<svg height="512" viewBox="0 0 64 64" width="512" xmlns="http://www.w3.org/2000/svg"><circle cx="20" cy="43" r="3"/><circle cx="44" cy="39" r="3"/><path d="m47 16.181-22 3.666v3.973l22-3.667z"/><path d="m32 56a1 1 0 0 1 1 1 3 3 0 0 0 3 3h24v-48h-7a1 1 0 0 1 -1-1v-7h-16a3 3 0 0 0 -3 3 1 1 0 0 1 -2 0 3 3 0 0 0 -3-3h-24v56h24a3 3 0 0 0 3-3 1 1 0 0 1 1-1zm24-2h-20v-2h20zm0-6h-20v-2h20zm-4-32h4v2h-4zm0 6h4v2h-4zm0 6h4v2h-4zm0 6h4v2h-4zm0 6h4v2h-4zm-16-30h14v2h-14zm-28 0h20v2h-20zm0 6h12v2h-12zm0 6h12v2h-12zm0 6h12v2h-12zm0 6h12v2h-12zm0 6h5v2h-5zm0 6h5v2h-5zm20 8h-20v-2h20zm-3-28.153v17.153a5 5 0 1 1 -5-5 4.948 4.948 0 0 1 3 1.026v-20.026a1 1 0 0 1 .835-.986l24-4a1 1 0 0 1 1.165.986v24a5 5 0 1 1 -5-5 4.948 4.948 0 0 1 3 1.026v-12.846z"/><path d="m54 10h4.586l-4.586-4.586z"/></svg>