<svg height="512" viewBox="0 0 64 64" width="512" xmlns="http://www.w3.org/2000/svg"><path d="m24 24.82 22-3.667v-3.972l-22 3.666z"/><circle cx="43" cy="40" r="3"/><circle cx="19" cy="44" r="3"/><path d="m60 9a5.008 5.008 0 0 0 -4.009-4.9 6.974 6.974 0 0 1 2.009 4.9v46a6.974 6.974 0 0 1 -2.009 4.9 5.008 5.008 0 0 0 4.009-4.9z"/><path d="m56 55v-46a5.008 5.008 0 0 0 -4.009-4.9 6.974 6.974 0 0 1 2.009 4.9v46a6.974 6.974 0 0 1 -2.009 4.9 5.008 5.008 0 0 0 4.009-4.9z"/><path d="m47 4h-37v56h37a5.006 5.006 0 0 0 5-5v-46a5.006 5.006 0 0 0 -5-5zm-33 4h4v2h-4zm4 48h-4v-2h4zm30 0h-28v-2h28zm0-16a5 5 0 1 1 -5-5 4.948 4.948 0 0 1 3 1.026v-12.846l-22 3.667v17.153a5 5 0 1 1 -5-5 4.948 4.948 0 0 1 3 1.026v-20.026a1 1 0 0 1 .835-.986l24-4a1 1 0 0 1 1.165.986zm0-30h-28v-2h28z"/><path d="m4 4h4v56h-4z"/></svg>