<svg height="512" viewBox="0 0 64 64" width="512" xmlns="http://www.w3.org/2000/svg"><circle cx="30" cy="40" r="2"/><path d="m48 20.281-14 3.5v1.939l14-3.5z"/><circle cx="46" cy="36" r="2"/><path d="m40 12a20 20 0 1 0 20 20 20.023 20.023 0 0 0 -20-20zm-16 20h-2a18.021 18.021 0 0 1 18-18v2a16.019 16.019 0 0 0 -16 16zm10-4.22v12.22a4 4 0 1 1 -4-4 3.959 3.959 0 0 1 2 .556v-13.556a1 1 0 0 1 .757-.97l16-4a1 1 0 0 1 1.243.97v17a4 4 0 1 1 -4-4 3.959 3.959 0 0 1 2 .556v-8.276zm6 22.22v-2a16.019 16.019 0 0 0 16-16h2a18.021 18.021 0 0 1 -18 18z"/><path d="m26.382 6 1-2h-16.764l1 2z"/><path d="m5 60h28a1 1 0 0 0 1-1v-5.839a21.993 21.993 0 0 1 0-42.322v-5.839a1 1 0 0 0 -1-1h-3.382l-1.718 3.447a1 1 0 0 1 -.9.553h-16a1 1 0 0 1 -.895-.553l-1.723-3.447h-3.382a1 1 0 0 0 -1 1v54a1 1 0 0 0 1 1zm18.029-44.971a24.029 24.029 0 0 0 0 33.942l-1.414 1.414a26.031 26.031 0 0 1 0-36.77zm-4.242-4.242 1.413 1.413a28.034 28.034 0 0 0 0 39.6l-1.414 1.414a30.033 30.033 0 0 1 0-42.426z"/></svg>