<?xml version="1.0"?>
<svg xmlns="http://www.w3.org/2000/svg" viewBox="0 0 64 64" width="512" height="512"><g id="Folder"><path d="M38.591,53.758,38.281,55h5.438l-.31-1.242A1,1,0,0,0,42.438,53H39.562A1,1,0,0,0,38.591,53.758Z"/><path d="M37,37a4,4,0,0,0,8,0H42V35h3V33H42V31h3a4,4,0,0,0-8,0h3v2H37v2h3v2Z"/><path d="M41,22A19,19,0,1,0,60,41,19.021,19.021,0,0,0,41,22Zm-6,9a6,6,0,0,1,12,0v6a6,6,0,0,1-12,0Zm7,15.949V51h.438a3,3,0,0,1,2.911,2.272l.621,2.485A1,1,0,0,1,45,57H37a1,1,0,0,1-.97-1.243l.621-2.485A3,3,0,0,1,39.562,51H40V46.949A10.013,10.013,0,0,1,31,37h2a8,8,0,0,0,16,0h2A10.013,10.013,0,0,1,42,46.949Z"/><path d="M41,20a20.846,20.846,0,0,1,11,3.145V18H15a1,1,0,0,0-1,1V44h6.24A20.843,20.843,0,0,1,41,20Z"/><path d="M5,44H9.026A4.948,4.948,0,0,1,8,41V17a5.006,5.006,0,0,1,5-5H50V9a1,1,0,0,0-1-1H21a3,3,0,0,1-3-3,1,1,0,0,0-1-1H5A1,1,0,0,0,4,5V43A1,1,0,0,0,5,44Z"/><path d="M52,16V15a1,1,0,0,0-1-1H13a3,3,0,0,0-3,3V41a3,3,0,0,0,2,2.816V19a3,3,0,0,1,3-3Z"/></g></svg>
