<svg height="512" viewBox="0 0 64 64" width="512" xmlns="http://www.w3.org/2000/svg"><path d="m60 50h-19.382l-1.718 3.447a1 1 0 0 1 -.9.553h-12a1 1 0 0 1 -.895-.553l-1.723-3.447h-19.382v3a3 3 0 0 0 3 3h50a3 3 0 0 0 3-3z"/><path d="m28 24a4 4 0 0 0 8 0h-3v-2h3v-2h-3v-2h3a4 4 0 0 0 -8 0h3v2h-3v2h3v2z"/><path d="m37.382 52 1-2h-12.764l1 2z"/><path d="m6 48h52v-37a3 3 0 0 0 -3-3h-46a3 3 0 0 0 -3 3zm16-4h-6v-2h6zm0-4h-6v-2h6zm0-4h-6v-2h6zm24 8h-4v-2h4zm0-4h-4v-2h4zm0-4h-4v-2h4zm8 8h-6v-2h6zm0-4h-6v-2h6zm0-4h-6v-2h6zm-4-22h2v8h2v2h-2v2h-2v-2h-2v-2h2zm-8 2h2v-2h2v2h2v2h-2v8h-2v-8h-2zm-16 2a6 6 0 0 1 12 0v6a6 6 0 0 1 -12 0zm6 14a8.009 8.009 0 0 0 8-8h2a10.013 10.013 0 0 1 -9 9.949v4.051h.438a3 3 0 0 1 2.911 2.272l.621 2.485a1 1 0 0 1 -.97 1.243h-8a1 1 0 0 1 -.97-1.243l.621-2.485a3 3 0 0 1 2.911-2.272h.438v-4.051a10.013 10.013 0 0 1 -9-9.949h2a8.009 8.009 0 0 0 8 8zm-16-16h2v-2h2v2h2v2h-2v8h-2v-8h-2zm-6 6h2v-8h2v8h2v2h-2v2h-2v-2h-2zm0 12h4v2h-4zm0 4h4v2h-4zm0 4h4v2h-4z"/><path d="m29.591 40.758-.311 1.242h5.44l-.311-1.242a1 1 0 0 0 -.971-.758h-2.876a1 1 0 0 0 -.971.758z"/></svg>