<?xml version="1.0"?>
<svg xmlns="http://www.w3.org/2000/svg" viewBox="0 0 64 64" width="512" height="512"><g id="Microphone-2" data-name="Microphone"><path d="M32,40A12.013,12.013,0,0,0,44,28V25H42v3a10,10,0,0,1-20,0V25H20v3A12.013,12.013,0,0,0,32,40Z"/><path d="M29,29H24.069a7.993,7.993,0,0,0,15.862,0H35V27h5V25H35V23h5V21H35V19h5V17H35V15h5V13H35V11h4.931a7.993,7.993,0,0,0-15.862,0H29v2H24v2h5v2H24v2h5v2H24v2h5v2H24v2h5Z"/><path d="M31.989,46l-.284,0c-.238,0-.469-.034-.7-.048V52h2V45.949C32.663,45.969,32.328,46,31.989,46Z"/><path d="M42,58H22a1,1,0,0,0-1,1v1H43V59A1,1,0,0,0,42,58Z"/><path d="M25.184,56H38.816A3,3,0,0,0,36,54H28A3,3,0,0,0,25.184,56Z"/><path d="M47,25H46v3a14,14,0,0,1-28,0V25H17a1,1,0,0,0-1,1v2A16.071,16.071,0,0,0,31.737,44,15.577,15.577,0,0,0,43,39.405a16.755,16.755,0,0,0,5-11.857V26A1,1,0,0,0,47,25Z"/><path d="M16,5a1,1,0,0,0-1.2-.98l-10,2A1,1,0,0,0,4,7v8a2,2,0,1,0,2,2V7.82l8-1.6V13a2,2,0,1,0,2,2Z"/><path d="M61.634,2.227a.989.989,0,0,0-.83-.207l-10,2A1,1,0,0,0,50,5v8a2,2,0,1,0,2,2V5.82l8-1.6V11a2,2,0,1,0,2,2V3A1,1,0,0,0,61.634,2.227Z"/></g></svg>
