<svg height="512" viewBox="0 0 64 64" width="512" xmlns="http://www.w3.org/2000/svg"><g id="Music_Player" data-name="Music Player"><ellipse cx="15" cy="17" rx="2.02" ry="2"/><path d="m7 52a1 1 0 0 1 -1-1v-4a1 1 0 0 1 1-1h15.4a20.011 20.011 0 0 1 .519-10h-18.919v15a3 3 0 0 0 3 3h16a3 3 0 0 0 2.269-1.075c-.2-.3-.381-.612-.563-.925z"/><path d="m10 28h2v2h-2z"/><path d="m42 24a18 18 0 1 0 18 18 18.021 18.021 0 0 0 -18-18zm0 34a16.019 16.019 0 0 1 -16-16h2a14.015 14.015 0 0 0 14 14zm0-11a5 5 0 1 1 5-5 5.006 5.006 0 0 1 -5 5zm14-5a14.015 14.015 0 0 0 -14-14v-2a16.019 16.019 0 0 1 16 16z"/><path d="m18 28h2v2h-2z"/><path d="m8 48v2h15.681a20.027 20.027 0 0 1 -.759-2z"/><path d="m6 25v9h17.681c.1-.224.213-.44.319-.66v-8.34a1 1 0 0 0 -1-1h-16a1 1 0 0 0 -1 1zm10 2a1 1 0 0 1 1-1h4a1 1 0 0 1 1 1v4a1 1 0 0 1 -1 1h-4a1 1 0 0 1 -1-1zm-8 0a1 1 0 0 1 1-1h4a1 1 0 0 1 1 1v4a1 1 0 0 1 -1 1h-4a1 1 0 0 1 -1-1z"/><circle cx="42" cy="42" r="3"/><path d="m22.845 9.219a11.169 11.169 0 0 0 -15.69 0l1.407 1.422a9.167 9.167 0 0 1 12.876 0z"/><path d="m19.99 12.053a7.091 7.091 0 0 0 -9.98 0l1.414 1.414a5.092 5.092 0 0 1 7.152 0z"/><path d="m15 4a13.165 13.165 0 0 1 9.3 3.812l1.4-1.424a15.245 15.245 0 0 0 -21.4 0l1.4 1.424a13.165 13.165 0 0 1 9.3-3.812z"/><path d="m61.615 2.212a.99.99 0 0 0 -.857-.182l-8 2a1 1 0 0 0 -.758.97v8a2 2 0 1 0 2 2v-9.219l6-1.5v6.719a2 2 0 1 0 2 2v-10a1 1 0 0 0 -.385-.788z"/><path d="m36 20a2 2 0 0 0 2-2v-9.219l6-1.5v6.719a2 2 0 1 0 2 2v-10a1 1 0 0 0 -.385-.788.988.988 0 0 0 -.857-.182l-8 2a1 1 0 0 0 -.758.97v8a2 2 0 0 0 0 4z"/></g></svg>