<svg height="512" viewBox="0 0 64 64" width="512" xmlns="http://www.w3.org/2000/svg"><g id="Music_System" data-name="Music System"><circle cx="15" cy="13" r="2"/><path d="m47 30a9 9 0 1 0 9 9 9.01 9.01 0 0 0 -9-9zm0 12a3 3 0 1 1 3-3 3 3 0 0 1 -3 3zm5-3a5.006 5.006 0 0 0 -5-5v-2a7.009 7.009 0 0 1 7 7z"/><path d="m47 22a7 7 0 1 0 -7-7 7.009 7.009 0 0 0 7 7zm0-10a3 3 0 1 1 -3 3 3 3 0 0 1 3-3z"/><path d="m59 4h-24a1 1 0 0 0 -1 1v54a1 1 0 0 0 1 1h24a1 1 0 0 0 1-1v-54a1 1 0 0 0 -1-1zm-12 2a9 9 0 1 1 -9 9 9.01 9.01 0 0 1 9-9zm11 51a1 1 0 0 1 -1 1h-20a1 1 0 0 1 -1-1v-4a1 1 0 0 1 1-1h20a1 1 0 0 1 1 1zm-11-7a11 11 0 1 1 11-11 11.013 11.013 0 0 1 -11 11z"/><circle cx="47" cy="39" r="1"/><path d="m38 54h18v2h-18z"/><circle cx="47" cy="15" r="1"/><path d="m12 37.72 6-1.5v-1.939l-6 1.5z"/><path d="m10.781 22h8.438l.5-2h-9.438z"/><circle cx="17" cy="43" r="1"/><path d="m25 20h-3.22l-.81 3.242a1 1 0 0 1 -.97.758h-10a1 1 0 0 1 -.97-.758l-.81-3.242h-3.22a1 1 0 0 0 -1 1v38a1 1 0 0 0 1 1h20a1 1 0 0 0 1-1v-38a1 1 0 0 0 -1-1zm-5 23a3 3 0 1 1 -3-3 2.966 2.966 0 0 1 1 .184v-1.9l-6 1.5v5.216a3 3 0 1 1 -3-3 2.966 2.966 0 0 1 1 .184v-7.184a1 1 0 0 1 .758-.97l8-2a1 1 0 0 1 1.242.97z"/><circle cx="9" cy="45" r="1"/><path d="m15 2a11.013 11.013 0 0 0 -11 11h2a9 9 0 0 1 18 0h2a11.013 11.013 0 0 0 -11-11z"/><path d="m22 13a7 7 0 0 0 -14 0h2a5 5 0 0 1 10 0z"/></g></svg>