<?xml version="1.0"?>
<svg xmlns="http://www.w3.org/2000/svg" viewBox="0 0 64 64" width="512" height="512"><g id="Music-3" data-name="Music"><path d="M32,18A14,14,0,1,0,46,32,14.015,14.015,0,0,0,32,18Zm7,22a3,3,0,0,1-3,3H28a3,3,0,0,1-3-3V34a3,3,0,0,1,3-3h.556A3.959,3.959,0,0,1,28,29V24a3,3,0,0,1,3-3h6a1,1,0,0,1,1,1v2a3,3,0,0,1-2,2.816V29a3.959,3.959,0,0,1-.556,2H36a3,3,0,0,1,3,3Z"/><path d="M36,24V23H31a1,1,0,0,0-1,1v1h5A1,1,0,0,0,36,24Z"/><path d="M32,31a2,2,0,0,0,2-2V27H30v2A2,2,0,0,0,32,31Z"/><path d="M36,33H33v5H31V33H28a1,1,0,0,0-1,1v6a1,1,0,0,0,1,1h8a1,1,0,0,0,1-1V34A1,1,0,0,0,36,33Z"/><path d="M9,12H7.184a2.982,2.982,0,0,0,5.632,0H11V10h2V8H11V6h1.816A2.982,2.982,0,0,0,7.184,6H9V8H7v2H9Z"/><path d="M54,48a6,6,0,1,0,6,6A6.006,6.006,0,0,0,54,48Zm0,10a4,4,0,0,1-4-4h2a2,2,0,0,0,2,2Z"/><path d="M14.758,46.03l-8,2A1,1,0,0,0,6,49v8a2,2,0,1,0,2,2V49.781l6-1.5V55a2,2,0,1,0,2,2V47a1,1,0,0,0-1.242-.97Z"/><path d="M9,17.931V22H7v2h6V22H11V17.931A8.008,8.008,0,0,0,18,10H16A6,6,0,0,1,4,10H2A8.008,8.008,0,0,0,9,17.931Z"/><path d="M21.42,20.01l-3.56-3.57-1.42,1.42,3.57,3.56A15.636,15.636,0,0,1,21.42,20.01Z"/><path d="M17.44,45.14l1.42,1.42,2.56-2.57a15.636,15.636,0,0,1-1.41-1.41Z"/><path d="M42.58,43.99l3.56,3.57,1.42-1.42-3.57-3.56A15.636,15.636,0,0,1,42.58,43.99Z"/><path d="M42.58,20.01a15.636,15.636,0,0,1,1.41,1.41l3.57-3.56-1.42-1.42Z"/><path d="M54,5.781V10a2,2,0,1,0,2,2V7.219l4-1V4.281Z"/></g></svg>
