<?xml version="1.0"?>
<svg xmlns="http://www.w3.org/2000/svg" viewBox="0 0 64 64" width="512" height="512"><g id="Music-2" data-name="Music"><polygon points="48 12.281 34 15.781 34 17.72 48 14.22 48 12.281"/><circle cx="46" cy="28" r="2"/><circle cx="30" cy="32" r="2"/><path d="M14,41a8.994,8.994,0,0,0,17.386,3.242A22.131,22.131,0,0,1,19.758,32.614,9,9,0,0,0,14,41Z"/><path d="M60,24A20,20,0,1,0,40,44,20.023,20.023,0,0,0,60,24ZM24,24H22A18.021,18.021,0,0,1,40,6V8A16.019,16.019,0,0,0,24,24Zm10-4.22V32a4,4,0,1,1-4-4,3.959,3.959,0,0,1,2,.556V15a1,1,0,0,1,.757-.97l16-4A1,1,0,0,1,50,11V28a4,4,0,1,1-4-4,3.959,3.959,0,0,1,2,.556V16.28ZM40,42V40A16.019,16.019,0,0,0,56,24h2A18.021,18.021,0,0,1,40,42Z"/><path d="M35.911,48.606a14.8,14.8,0,0,0,1.277-2.792,21.871,21.871,0,0,1-3.928-.874,10.994,10.994,0,1,1-14.2-14.2,21.871,21.871,0,0,1-.874-3.928,14.9,14.9,0,0,0-2.793,1.277,1,1,0,0,1-1.215-.154l-2.491-2.492L7.443,29.687l2.492,2.491a1,1,0,0,1,.154,1.216,14.864,14.864,0,0,0-1.6,3.856,1,1,0,0,1-.969.75H4v6H7.524a1,1,0,0,1,.969.75,14.864,14.864,0,0,0,1.6,3.856,1,1,0,0,1-.154,1.216L7.443,52.313l4.244,4.244,2.491-2.492a1,1,0,0,1,1.215-.154,14.925,14.925,0,0,0,3.857,1.6,1,1,0,0,1,.75.969V60h6V56.476a1,1,0,0,1,.75-.969,14.925,14.925,0,0,0,3.857-1.6,1.006,1.006,0,0,1,1.215.154l2.491,2.492,4.244-4.244-2.492-2.491A1,1,0,0,1,35.911,48.606Z"/><path d="M15,4V2A13.015,13.015,0,0,0,2,15H4A11.013,11.013,0,0,1,15,4Z"/><path d="M15,6a9.01,9.01,0,0,0-9,9H8a7.008,7.008,0,0,1,7-7Z"/><path d="M12,15a3,3,0,0,1,3-3V10a5.006,5.006,0,0,0-5,5Z"/><path d="M60,49A11.013,11.013,0,0,1,49,60v2A13.015,13.015,0,0,0,62,49Z"/><path d="M49,58a9.01,9.01,0,0,0,9-9H56a7.008,7.008,0,0,1-7,7Z"/><path d="M52,49a3,3,0,0,1-3,3v2a5.006,5.006,0,0,0,5-5Z"/></g></svg>
