<svg height="512" viewBox="0 0 64 64" width="512" xmlns="http://www.w3.org/2000/svg"><path d="m46 32h3a1 1 0 0 0 1-1v-4a1 1 0 0 0 -1-1h-3z"/><path d="m23 36h3v-14h-3a3 3 0 0 0 -3 3v8a3 3 0 0 0 3 3z"/><path d="m16 24h2v-4a14 14 0 0 1 28 0v4h2v-4a16 16 0 0 0 -32 0z"/><path d="m60 54h-17v1a3 3 0 0 1 -3 3h-16a3 3 0 0 1 -3-3v-1h-17v3a3 3 0 0 0 3 3h50a3 3 0 0 0 3-3z"/><path d="m14 27v4a1 1 0 0 0 1 1h3v-6h-3a1 1 0 0 0 -1 1z"/><path d="m38 22v14h3a3 3 0 0 0 3-3v-8a3 3 0 0 0 -3-3z"/><path d="m8 15v37h14a1 1 0 0 1 1 1v2a1 1 0 0 0 1 1h16a1 1 0 0 0 1-1v-2a1 1 0 0 1 1-1h14v-37a1 1 0 0 0 -1-1h-6.05a17.9 17.9 0 0 1 1.05 6v4.184a3 3 0 0 1 2 2.816v4a3 3 0 0 1 -3 3h-3.1a5.009 5.009 0 0 1 -4.9 4h-4a1 1 0 0 1 -1-1v-16a1 1 0 0 1 1-1h4a4.948 4.948 0 0 1 3 1.026v-1.026a12 12 0 0 0 -24 0v1.026a4.948 4.948 0 0 1 3-1.026h4a1 1 0 0 1 1 1v16a1 1 0 0 1 -1 1h-4a5.009 5.009 0 0 1 -4.9-4h-3.1a3 3 0 0 1 -3-3v-4a3 3 0 0 1 2-2.816v-4.184a17.9 17.9 0 0 1 1.05-6h-6.05a1 1 0 0 0 -1 1zm14 27h20v2h-20zm0 4h20v2h-20z"/></svg>