<?xml version="1.0"?>
<svg xmlns="http://www.w3.org/2000/svg" viewBox="0 0 64 64" width="512" height="512"><g id="Note"><path d="M6,13v1H27a1,1,0,0,1,.707.293l8,8A1,1,0,0,1,36,23V33.53a16.1,16.1,0,0,1,2-1.365V13a1,1,0,0,0-1-1H7A1,1,0,0,0,6,13Z"/><path d="M46,32A14,14,0,1,0,60,46,14.015,14.015,0,0,0,46,32ZM56.526,45.851a1,1,0,0,1-.973.044L51,43.618V53c0,2.28-3.009,4-7,4s-7-1.72-7-4,3.009-4,7-4c.334,0,.668.014,1,.04V36a1,1,0,0,1,1.447-.9l10,5A1,1,0,0,1,57,41v4A1,1,0,0,1,56.526,45.851Z"/><path d="M8,9v1H37a3,3,0,0,1,3,3V31.178a15.944,15.944,0,0,1,2-.651V9a1,1,0,0,0-1-1H9A1,1,0,0,0,8,9Z"/><path d="M29,22h3.586L28,17.414V21A1,1,0,0,0,29,22Z"/><path d="M46,30V5a1,1,0,0,0-1-1H11a1,1,0,0,0-1,1V6H41a3,3,0,0,1,3,3V30.139A15.9,15.9,0,0,1,46,30Z"/><path d="M47,50.175a1,1,0,0,1-1.175.984A10.531,10.531,0,0,0,44,51c-3.052,0-5,1.185-5,2s1.948,2,5,2,5-1.185,5-2V42a1,1,0,0,1,1.447-.9L55,43.382V41.618l-8-4Z"/><path d="M4,17V55a1,1,0,0,0,1,1H33.53A15.917,15.917,0,0,1,34,35.453V24H29a3,3,0,0,1-3-3V16H5A1,1,0,0,0,4,17Zm10,3h8v2H14Zm0,6H26v2H14Zm0,6H26v2H14Zm0,6H26v2H14Zm0,6H26v2H14Zm0,6H26v2H14ZM8,20h4v2H8Zm0,6h4v2H8Zm0,6h4v2H8Zm0,6h4v2H8Zm0,6h4v2H8Zm0,6h4v2H8Z"/></g></svg>
