<svg height="512" viewBox="0 0 64 64" width="512" xmlns="http://www.w3.org/2000/svg"><path d="m32.1 30.005 19.9 1.895v-23.119l-2-.5v20.719a1 1 0 0 1 -1 1 .918.918 0 0 1 -.117-.007l-16.883-1.986-16.883 1.986a1 1 0 0 1 -1.117-.993v-19.719l-2 .5v22.119l19.905-1.895a1 1 0 0 1 .195 0z"/><path d="m32.117 26.007 15.883 1.868v-21.094l-2-.5v18.719a1 1 0 0 1 -1 1 .964.964 0 0 1 -.152-.012l-12.848-1.976-12.848 1.976a1 1 0 0 1 -1.152-.988v-17.719l-2 .5v20.094l15.883-1.868a.916.916 0 0 1 .234 0z"/><path d="m44 4.926-11-.846v18.062l11 1.692z"/><path d="m31 4.08-11 .846v18.908l11-1.692z"/><path d="m21 38h2v10h-2z"/><path d="m29 49v-11h-4v11a1 1 0 0 1 -1 1h-1v10h8v-10h-1a1 1 0 0 1 -1-1z"/><path d="m31 38h2v10h-2z"/><path d="m19 49v-11h-4v11a1 1 0 0 1 -1 1h-1v10h8v-10h-1a1 1 0 0 1 -1-1z"/><path d="m11 38h2v10h-2z"/><path d="m9 49v-11h-3a1 1 0 0 0 -1 1v20a1 1 0 0 0 1 1h5v-10h-1a1 1 0 0 1 -1-1z"/><path d="m51 38h2v10h-2z"/><path d="m58 38h-3v11a1 1 0 0 1 -1 1h-1v10h5a1 1 0 0 0 1-1v-20a1 1 0 0 0 -1-1z"/><path d="m41 38h2v10h-2z"/><path d="m49 49v-11h-4v11a1 1 0 0 1 -1 1h-1v10h8v-10h-1a1 1 0 0 1 -1-1z"/><path d="m39 49v-11h-4v11a1 1 0 0 1 -1 1h-1v10h8v-10h-1a1 1 0 0 1 -1-1z"/></svg>