<svg height="512" viewBox="0 0 64 64" width="512" xmlns="http://www.w3.org/2000/svg"><g id="Record_File" data-name="Record File"><path d="m22 25h-2v3a12 12 0 0 0 24 0v-3h-2v3a10 10 0 0 1 -20 0z"/><path d="m52.005 21.009 2.59.001-2.589-2.589z"/><path d="m24 25v2h5v2h-4.931a7.993 7.993 0 0 0 15.862 0h-4.931v-2h5v-2h-5v-2h5v-2h-5v-2h5v-2h-5v-2h5v-2h-5v-2h4.931a7.993 7.993 0 0 0 -15.862 0h4.931v2h-5v2h5v2h-5v2h5v2h-5v2h5v2z"/><path d="m60 49v-36h-18v2.01h9.01a1 1 0 0 1 .707.293l6 6a1 1 0 0 1 .293.707l-.018 26.99z"/><path d="m3.991 50.991 25.009.009v-5.275a18.083 18.083 0 0 1 -15-17.725v-2a3 3 0 0 1 3-3h5v-6l-17.991-.009z"/><path d="m6 13h16v1.996h-16z"/><path d="m48 27.548v-1.548a1 1 0 0 0 -1-1h-1v3a14 14 0 0 1 -28 0v-3h-1a1 1 0 0 0 -1 1v2a16.071 16.071 0 0 0 15.737 16 15.6 15.6 0 0 0 11.263-4.595 16.755 16.755 0 0 0 5-11.857z"/><path d="m43 59a1 1 0 0 0 -1-1h-20a1 1 0 0 0 -1 1v1h22z"/><path d="m56.009 23.01h-5.005a1 1 0 0 1 -1-1v-5h-8.004v5.99h5a3 3 0 0 1 3 3v1.548a18.768 18.768 0 0 1 -5.6 13.283 17.774 17.774 0 0 1 -9.4 4.89v5.279l20.991.009z"/><path d="m31.989 46h-.284c-.238 0-.469-.034-.7-.048v10.048h2v-10.051c-.342.02-.677.051-1.016.051z"/></g></svg>