<svg height="512" viewBox="0 0 64 64" width="512" xmlns="http://www.w3.org/2000/svg"><g id="Sound_wave" data-name="Sound wave"><path d="m46 30.719 6-1.5v-1.938l-6 1.5z"/><path d="m52 51h2v2h-2z"/><circle cx="43" cy="38" r="1"/><circle cx="51" cy="36" r="1"/><path d="m18 51h2v2h-2z"/><path d="m10 51h2v2h-2z"/><path d="m44 51h2v2h-2z"/><path d="m32 48a4 4 0 1 0 4 4 4 4 0 0 0 -4-4zm1 5h-2v-2h2z"/><path d="m40 12a2 2 0 0 0 -2 2v8h4v-8a2 2 0 0 0 -2-2z"/><path d="m28 16a2 2 0 0 0 -2 2v4h4v-4a2 2 0 0 0 -2-2z"/><path d="m5 60h54a1 1 0 0 0 1-1v-54a1 1 0 0 0 -1-1h-54a1 1 0 0 0 -1 1v54a1 1 0 0 0 1 1zm9-6a1 1 0 0 1 -1 1h-4a1 1 0 0 1 -1-1v-4a1 1 0 0 1 1-1h4a1 1 0 0 1 1 1zm8 0a1 1 0 0 1 -1 1h-4a1 1 0 0 1 -1-1v-4a1 1 0 0 1 1-1h4a1 1 0 0 1 1 1zm10 4a6 6 0 1 1 6-6 6.006 6.006 0 0 1 -6 6zm16-4a1 1 0 0 1 -1 1h-4a1 1 0 0 1 -1-1v-4a1 1 0 0 1 1-1h4a1 1 0 0 1 1 1zm8 0a1 1 0 0 1 -1 1h-4a1 1 0 0 1 -1-1v-4a1 1 0 0 1 1-1h4a1 1 0 0 1 1 1zm-50-47a1 1 0 0 1 1-1h50a1 1 0 0 1 1 1v36a1 1 0 0 1 -1 1h-50a1 1 0 0 1 -1-1z"/><path d="m32 28a2 2 0 0 0 4 0v-4h-4z"/><path d="m20 32a2 2 0 0 0 4 0v-8h-4z"/><path d="m56 8h-48v34h48zm-2 28a3 3 0 1 1 -3-3 2.966 2.966 0 0 1 1 .184v-1.9l-6 1.5v5.216a3 3 0 1 1 -3-3 2.966 2.966 0 0 1 1 .184v-7.184a1 1 0 0 1 .757-.97l8-2a1 1 0 0 1 1.243.97zm0-12h-16v4a4 4 0 0 1 -8 0v-4h-4v8a4 4 0 0 1 -8 0v-8h-8v-2h2v-8a4 4 0 0 1 8 0v8h4v-4a4 4 0 0 1 8 0v4h4v-8a4 4 0 0 1 8 0v8h10z"/><path d="m16 12a2 2 0 0 0 -2 2v8h4v-8a2 2 0 0 0 -2-2z"/></g></svg>