<svg height="512" viewBox="0 0 64 64" width="512" xmlns="http://www.w3.org/2000/svg"><g id="Cassette_Player" data-name="Cassette Player"><circle cx="43" cy="30" r="3"/><path d="m24.974 27a4.9 4.9 0 0 1 0 6h14.052a4.9 4.9 0 0 1 0-6z"/><path d="m54 21h-44v18h44zm-11 14h-22a5 5 0 0 1 0-10h22a5 5 0 0 1 0 10z"/><circle cx="21" cy="30" r="3"/><circle cx="55" cy="46" r="1"/><circle cx="9" cy="46" r="1"/><path d="m32 13h4v2h-4z"/><path d="m42 13h4v2h-4z"/><path d="m8 13h4v2h-4z"/><path d="m52 13h4v2h-4z"/><path d="m5 51h54a1 1 0 0 0 1-1v-32a1 1 0 0 0 -1-1h-54a1 1 0 0 0 -1 1v32a1 1 0 0 0 1 1zm53-5a3 3 0 1 1 -3-3 3 3 0 0 1 3 3zm-50-26a1 1 0 0 1 1-1h46a1 1 0 0 1 1 1v20a1 1 0 0 1 -1 1h-46a1 1 0 0 1 -1-1zm1 23a3 3 0 1 1 -3 3 3 3 0 0 1 3-3z"/></g></svg>