<?xml version="1.0"?>
<svg xmlns="http://www.w3.org/2000/svg" viewBox="0 0 64 64" width="512" height="512"><g id="Cassette"><path d="M49.167,34.753,50.6,36.184A6.947,6.947,0,0,0,51.92,33H49.9A4.961,4.961,0,0,1,49.167,34.753Z"/><circle cx="55" cy="44" r="1"/><path d="M49.184,26.4A6.947,6.947,0,0,0,46,25.08V27.1a4.961,4.961,0,0,1,1.753.732Z"/><path d="M49.9,31H51.92A6.947,6.947,0,0,0,50.6,27.816l-1.431,1.431A4.961,4.961,0,0,1,49.9,31Z"/><circle cx="45" cy="32" r="3"/><path d="M40.1,33H38.08A6.947,6.947,0,0,0,39.4,36.184l1.431-1.431A4.961,4.961,0,0,1,40.1,33Z"/><path d="M44,27.1V25.08A6.947,6.947,0,0,0,40.816,26.4l1.431,1.431A4.961,4.961,0,0,1,44,27.1Z"/><path d="M14.816,37.6A6.947,6.947,0,0,0,18,38.92V36.9a4.961,4.961,0,0,1-1.753-.732Z"/><path d="M40.816,37.6A6.947,6.947,0,0,0,44,38.92V36.9a4.961,4.961,0,0,1-1.753-.732Z"/><path d="M14.1,33H12.08A6.947,6.947,0,0,0,13.4,36.184l1.431-1.431A4.961,4.961,0,0,1,14.1,33Z"/><path d="M20,36.9V38.92A6.947,6.947,0,0,0,23.184,37.6l-1.431-1.431A4.961,4.961,0,0,1,20,36.9Z"/><path d="M23.9,33a4.961,4.961,0,0,1-.732,1.753L24.6,36.184A6.947,6.947,0,0,0,25.92,33Z"/><path d="M46,36.9V38.92A6.947,6.947,0,0,0,49.184,37.6l-1.431-1.431A4.961,4.961,0,0,1,46,36.9Z"/><circle cx="9" cy="44" r="1"/><path d="M18,27.1V25.08A6.947,6.947,0,0,0,14.816,26.4l1.431,1.431A4.961,4.961,0,0,1,18,27.1Z"/><path d="M14.833,29.247,13.4,27.816A6.947,6.947,0,0,0,12.08,31H14.1A4.961,4.961,0,0,1,14.833,29.247Z"/><path d="M5,49H59a1,1,0,0,0,1-1V21H4V48A1,1,0,0,0,5,49Zm50-2a3,3,0,1,1,3-3A3,3,0,0,1,55,47ZM54,23h4v2H54ZM19,23H45a9,9,0,0,1,0,18H19a9,9,0,0,1,0-18ZM6,23h4v2H6ZM9,41a3,3,0,1,1-3,3A3,3,0,0,1,9,41Z"/><path d="M4,19H60V16a1,1,0,0,0-1-1H5a1,1,0,0,0-1,1Z"/><path d="M28,32a8.985,8.985,0,0,1-3.355,7h14.71a8.98,8.98,0,0,1,0-14H24.645A8.985,8.985,0,0,1,28,32Z"/><path d="M40.1,31a4.961,4.961,0,0,1,.732-1.753L39.4,27.816A6.947,6.947,0,0,0,38.08,31Z"/><circle cx="19" cy="32" r="3"/><path d="M23.9,31H25.92A6.947,6.947,0,0,0,24.6,27.816l-1.431,1.431A4.961,4.961,0,0,1,23.9,31Z"/><path d="M23.184,26.4A6.947,6.947,0,0,0,20,25.08V27.1a4.961,4.961,0,0,1,1.753.732Z"/></g></svg>
