<svg height="512" viewBox="0 0 64 64" width="512" xmlns="http://www.w3.org/2000/svg"><path d="m60 60v-56h-48v56zm-34-4h-4v-2h4zm6 0h-4v-2h4zm6 0h-4v-2h4zm6 0h-4v-2h4zm6 0h-4v-2h4zm6 0h-4v-2h4zm-4-48h4v2h-4zm-6 0h4v2h-4zm-6 0h4v2h-4zm-6 0h4v2h-4zm-6 0h4v2h-4zm-6 0h4v2h-4zm-6 0h4v2h-4zm20 4a20 20 0 1 1 -20 20 20.023 20.023 0 0 1 20-20zm-20 42h4v2h-4z"/><circle cx="36" cy="32" r="3"/><path d="m8 4h2v56h-2z"/><path d="m36 50a18 18 0 1 0 -18-18 18.021 18.021 0 0 0 18 18zm0-34a16.019 16.019 0 0 1 16 16h-2a14.015 14.015 0 0 0 -14-14zm0 11a5 5 0 1 1 -5 5 5.006 5.006 0 0 1 5-5zm-14 5a14.015 14.015 0 0 0 14 14v2a16.019 16.019 0 0 1 -16-16z"/><path d="m4 4h2v56h-2z"/></svg>