<svg height="512" viewBox="0 0 64 64" width="512" xmlns="http://www.w3.org/2000/svg"><circle cx="9" cy="35" r="1"/><path d="m29.591 34.758-.31 1.242h5.438l-.31-1.242a1 1 0 0 0 -.971-.758h-2.876a1 1 0 0 0 -.971.758z"/><path d="m28 18a4 4 0 0 0 8 0h-3v-2h3v-2h-3v-2h3a4 4 0 0 0 -8 0h3v2h-3v2h3v2z"/><path d="m12 27.719 6-1.5v-1.938l-6 1.5z"/><circle cx="17" cy="33" r="1"/><path d="m60 42h-56v3a3 3 0 0 0 3 3h50a3 3 0 0 0 3-3zm-26 4h-4v-2h4z"/><path d="m45 59a1 1 0 0 0 -1-1h-24a1 1 0 0 0 -1 1v1h26z"/><path d="m26 50h12v6h-12z"/><circle cx="55" cy="17" r="1"/><circle cx="47" cy="19" r="1"/><path d="m60 7a3 3 0 0 0 -3-3h-50a3 3 0 0 0 -3 3v33h56zm-34 5a6 6 0 0 1 12 0v6a6 6 0 0 1 -12 0zm-18-4h4v2h-4zm0 4h4v2h-4zm0 4h4v2h-4zm12 17a3 3 0 1 1 -3-3 2.966 2.966 0 0 1 1 .184v-1.9l-6 1.5v5.216a3 3 0 1 1 -3-3 2.966 2.966 0 0 1 1 .184v-7.184a1 1 0 0 1 .757-.97l8-2a1 1 0 0 1 1.243.97zm0-15h-6v-2h6zm0-4h-6v-2h6zm0-4h-6v-2h6zm13 17.949v4.051h.438a3 3 0 0 1 2.911 2.272l.621 2.485a1 1 0 0 1 -.97 1.243h-8a1 1 0 0 1 -.97-1.243l.621-2.485a3 3 0 0 1 2.911-2.272h.438v-4.051a10.013 10.013 0 0 1 -9-9.949h2a8 8 0 0 0 16 0h2a10.013 10.013 0 0 1 -9 9.949zm15 8.051h-4v-2h4zm0-4h-4v-2h4zm0-4h-4v-2h4zm8 8h-6v-2h6zm0-4h-6v-2h6zm0-4h-6v-2h6zm2-11a3 3 0 1 1 -3-3 2.966 2.966 0 0 1 1 .184v-1.9l-6 1.5v5.216a3 3 0 1 1 -3-3 2.966 2.966 0 0 1 1 .184v-7.184a1 1 0 0 1 .757-.97l8-2a1 1 0 0 1 1.243.97z"/><path d="m50 11.719 6-1.5v-1.938l-6 1.5z"/></svg>