<svg height="512" viewBox="0 0 64 64" width="512" xmlns="http://www.w3.org/2000/svg"><path d="m29.591 43.758-.311 1.242h5.44l-.311-1.242a1 1 0 0 0 -.971-.758h-2.876a1 1 0 0 0 -.971.758z"/><path d="m32 49a17 17 0 1 0 -17-17 17.019 17.019 0 0 0 17 17zm-6-26a6 6 0 0 1 12 0v6a6 6 0 0 1 -12 0zm-2 6a8 8 0 0 0 16 0h2a10.013 10.013 0 0 1 -9 9.949v2.051h.438a3 3 0 0 1 2.911 2.272l.621 2.485a1 1 0 0 1 -.97 1.243h-8a1 1 0 0 1 -.97-1.243l.621-2.485a3 3 0 0 1 2.911-2.272h.438v-2.051a10.013 10.013 0 0 1 -9-9.949z"/><path d="m28 29a4 4 0 0 0 8 0h-3v-2h3v-2h-3v-2h3a4 4 0 0 0 -8 0h3v2h-3v2h3v2z"/><path d="m20.089 51.2a1 1 0 0 1 1.074-.056 21.9 21.9 0 0 0 4.964 2.056 1 1 0 0 1 .72.8l1 6h8.306l1-6a1 1 0 0 1 .72-.8 21.9 21.9 0 0 0 4.964-2.058 1 1 0 0 1 1.074.056l4.951 3.536 5.873-5.872-3.535-4.951a1 1 0 0 1 -.055-1.075 21.922 21.922 0 0 0 2.055-4.963 1 1 0 0 1 .8-.72l6-1v-8.306l-6-1a1 1 0 0 1 -.8-.72 21.922 21.922 0 0 0 -2.057-4.963 1 1 0 0 1 .055-1.075l3.536-4.952-5.872-5.872-4.951 3.535a1 1 0 0 1 -1.074.056 21.9 21.9 0 0 0 -4.964-2.056 1 1 0 0 1 -.72-.8l-1-6h-8.306l-1 6a1 1 0 0 1 -.72.8 21.9 21.9 0 0 0 -4.964 2.058 1 1 0 0 1 -1.074-.056l-4.951-3.537-5.873 5.872 3.535 4.952a1 1 0 0 1 .055 1.075 21.922 21.922 0 0 0 -2.055 4.963 1 1 0 0 1 -.8.72l-6 1v8.306l6 1a1 1 0 0 1 .8.72 21.922 21.922 0 0 0 2.057 4.963 1 1 0 0 1 -.055 1.075l-3.537 4.952 5.873 5.872zm11.911-38.2a19 19 0 1 1 -19 19 19.021 19.021 0 0 1 19-19z"/></svg>