<svg height="512" viewBox="0 0 64 64" width="512" xmlns="http://www.w3.org/2000/svg"><path d="m41 22a19 19 0 1 0 19 19 19.021 19.021 0 0 0 -19-19zm-7 21h-2v11h-2v-11h-2v-2h2v-11h2v11h2zm10-7h-2v18h-2v-18h-2v-2h2v-4h2v4h2zm10 13h-2v5h-2v-5h-2v-2h2v-17h2v17h2z"/><path d="m41 20a20.846 20.846 0 0 1 11 3.145v-5.145h-37a1 1 0 0 0 -1 1v25h6.24a20.843 20.843 0 0 1 20.76-24z"/><path d="m52 16v-1a1 1 0 0 0 -1-1h-38a3 3 0 0 0 -3 3v24a3 3 0 0 0 2 2.816v-24.816a3 3 0 0 1 3-3z"/><path d="m5 44h4.026a4.948 4.948 0 0 1 -1.026-3v-24a5.006 5.006 0 0 1 5-5h37v-3a1 1 0 0 0 -1-1h-28a3 3 0 0 1 -3-3 1 1 0 0 0 -1-1h-12a1 1 0 0 0 -1 1v38a1 1 0 0 0 1 1z"/></svg>