<svg height="512" viewBox="0 0 64 64" width="512" xmlns="http://www.w3.org/2000/svg"><path d="m26 54h-8a3 3 0 0 0 -2.816 2h13.632a3 3 0 0 0 -2.816-2z"/><path d="m7 25a1 1 0 0 0 -1 1v2a16.071 16.071 0 0 0 15.737 16 15.65 15.65 0 0 0 11.263-4.595 16.751 16.751 0 0 0 5-11.857v-1.548a1 1 0 0 0 -2 0v2a14.013 14.013 0 0 1 -14.7 13.983 14.181 14.181 0 0 1 -13.3-14.358v-1.625a1 1 0 0 0 -1-1z"/><path d="m51 12a1 1 0 0 1 -1-1v-7h-22.03a9.989 9.989 0 0 1 4.03 8v16a10.016 10.016 0 0 1 -10 10v2a12.009 12.009 0 0 0 12-12v-2a3 3 0 0 1 6 0v1.55a18.752 18.752 0 0 1 -5.6 13.28 17.781 17.781 0 0 1 -9.4 4.89v6.28h1a5.017 5.017 0 0 1 4.9 4h1.1a3.009 3.009 0 0 1 3 3v1h23v-48zm-5 42h-2v-2h2zm0-6h-2v-2h2zm0-6h-2v-2h2zm0-6h-2v-2h2zm0-6h-2v-2h2zm0-6h-2v-2h2zm0-6h-2v-2h2zm8 36h-6v-2h6zm0-6h-6v-2h6zm0-6h-6v-2h6zm0-6h-6v-2h6zm0-6h-6v-2h6zm0-6h-6v-2h6zm0-6h-6v-2h6z"/><path d="m21.7 46c-.238 0-.469-.034-.7-.048v6.048h2v-6.051c-.337.02-.672.051-1.012.051z"/><path d="m14 25v2h5v2h-4.931a7.993 7.993 0 0 0 15.862 0h-4.931v-2h5v-2h-5v-2h5v-2h-5v-2h5v-2h-5v-2h5v-2h-5v-2h4.931a7.993 7.993 0 0 0 -15.862 0h4.931v2h-5v2h5v2h-5v2h5v2h-5v2h5v2z"/><path d="m32 58h-20a1 1 0 0 0 -1 1v1h22v-1a1 1 0 0 0 -1-1z"/><path d="m52 10h4.586l-4.586-4.586z"/></svg>