<svg height="512" viewBox="0 0 64 64" width="512" xmlns="http://www.w3.org/2000/svg"><path d="m16 46v-18h-3a3 3 0 0 0 -3 3v12a3 3 0 0 0 3 3z"/><path d="m51 28h-3v18h3a3 3 0 0 0 3-3v-12a3 3 0 0 0 -3-3z"/><path d="m36 58h-8a1 1 0 0 0 0 2h8a1 1 0 0 0 0-2z"/><path d="m8 42v-10h-3a1 1 0 0 0 -1 1v8a1 1 0 0 0 1 1z"/><path d="m56 23v7h2v-7a19.021 19.021 0 0 0 -19-19h-14a19.021 19.021 0 0 0 -19 19v7h2v-7a17.019 17.019 0 0 1 17-17h14a17.019 17.019 0 0 1 17 17z"/><path d="m59 32h-3v10h3a1 1 0 0 0 1-1v-8a1 1 0 0 0 -1-1z"/><path d="m14 58a7.008 7.008 0 0 1 -7-7v-7h-2v7a9.014 9.014 0 0 0 9 9h11.18a2.868 2.868 0 0 1 0-2z"/></svg>