<svg height="512" viewBox="0 0 64 64" width="512" xmlns="http://www.w3.org/2000/svg"><g id="Music_note" data-name="Music note"><path d="m33 39.208a1 1 0 0 1 -1.412.911 13.69 13.69 0 0 0 -5.588-1.119c-4.878 0-9 2.29-9 5s4.122 5 9 5 9-2.29 9-5v-25a1 1 0 0 1 1.5-.864l10.5 6.123v-1.7l-14-8.75z"/><circle cx="50" cy="40" r="1"/><circle cx="42" cy="42" r="1"/><path d="m25 18.281-6 1.5v1.939l6-1.5z"/><circle cx="16" cy="29" r="1"/><circle cx="24" cy="27" r="1"/><path d="m32 4a28 28 0 1 0 28 28 28.032 28.032 0 0 0 -28-28zm0 54a26 26 0 1 1 26-26 26.029 26.029 0 0 1 -26 26z"/><path d="m32 8a24 24 0 1 0 24 24 24.028 24.028 0 0 0 -24-24zm-19 21a3 3 0 0 1 3-3 2.966 2.966 0 0 1 1 .184v-7.184a1 1 0 0 1 .757-.97l8-2a1 1 0 0 1 1.243.97v10a3 3 0 1 1 -3-3 2.966 2.966 0 0 1 1 .184v-1.9l-6 1.5v5.216a3 3 0 0 1 -6 0zm24 15c0 3.925-4.832 7-11 7s-11-3.075-11-7 4.832-7 11-7a16.388 16.388 0 0 1 5 .755v-25.755a1 1 0 0 1 1.53-.848l16 10a1 1 0 0 1 .47.848v4a1 1 0 0 1 -1.5.864l-10.5-6.123zm13-1a3 3 0 0 1 0-6 2.966 2.966 0 0 1 1 .184v-1.9l-6 1.5v5.216a3 3 0 1 1 -3-3 2.966 2.966 0 0 1 1 .184v-7.184a1 1 0 0 1 .757-.97l8-2a1 1 0 0 1 1.243.97v10a3 3 0 0 1 -3 3z"/><path d="m45 34.72 6-1.5v-1.939l-6 1.5z"/></g></svg>