<svg height="512" viewBox="0 0 64 64" width="512" xmlns="http://www.w3.org/2000/svg"><g id="Radio-2" data-name="Radio"><path d="m10 42h44v2h-44z"/><path d="m10 46h44v2h-44z"/><path d="m10 50h44v2h-44z"/><path d="m10 54h44v2h-44z"/><path d="m51 31h-2v-3h-4v5h-2v-5h-4v3h-2v-3h-4v5h-2v-5h-4v3h-2v-3h-4v5h-2v-5h-4v3h-2v-3h-5v8h48v-8h-5z"/><path d="m59 24h-54a1 1 0 0 0 -1 1v34a1 1 0 0 0 1 1h54a1 1 0 0 0 1-1v-34a1 1 0 0 0 -1-1zm-3 33a1 1 0 0 1 -1 1h-46a1 1 0 0 1 -1-1v-16a1 1 0 0 1 1-1h46a1 1 0 0 1 1 1zm2-20a1 1 0 0 1 -1 1h-50a1 1 0 0 1 -1-1v-10a1 1 0 0 1 1-1h50a1 1 0 0 1 1 1z"/><path d="m29 19a2 2 0 0 0 2-2v-7.219l6-1.5v4.719a2 2 0 1 0 2 2v-8a1 1 0 0 0 -1.242-.97l-8 2a1 1 0 0 0 -.758.97v6a2 2 0 0 0 0 4z"/><path d="m61.634 2.227a1 1 0 0 0 -.83-.207l-10 2a1 1 0 0 0 -.804.98v8a2 2 0 1 0 2 2v-9.18l8-1.6v6.78a2 2 0 1 0 2 2v-10a1 1 0 0 0 -.366-.773z"/><path d="m6 17a2 2 0 0 0 2-2v-9.18l8-1.6v6.78a2 2 0 1 0 2 2v-10a1 1 0 0 0 -1.2-.98l-10 2a1 1 0 0 0 -.8.98v8a2 2 0 0 0 0 4z"/></g></svg>