<svg height="512" viewBox="0 0 64 64" width="512" xmlns="http://www.w3.org/2000/svg"><circle cx="28" cy="35" r="1"/><circle cx="51" cy="45" r="1"/><path d="m23 40h18v-10h-18zm5-8h8a3 3 0 0 1 0 6h-8a3 3 0 0 1 0-6z"/><path d="m51 40a5 5 0 1 0 5 5 5.006 5.006 0 0 0 -5-5zm0 8a3 3 0 1 1 3-3 3 3 0 0 1 -3 3z"/><path d="m33.184 36a2.809 2.809 0 0 1 0-2h-2.368a2.809 2.809 0 0 1 0 2z"/><circle cx="9" cy="31" r="1"/><circle cx="13" cy="45" r="1"/><path d="m25 46h2v2h-2z"/><path d="m29 46h2v2h-2z"/><circle cx="55" cy="31" r="1"/><path d="m37 46h2v2h-2z"/><circle cx="36" cy="35" r="1"/><path d="m33 46h2v2h-2z"/><path d="m13 40a5 5 0 1 0 5 5 5.006 5.006 0 0 0 -5-5zm0 8a3 3 0 1 1 3-3 3 3 0 0 1 -3 3z"/><path d="m52 7a1 1 0 0 0 -1-1h-38a1 1 0 0 0 -1 1v11h2v-9a1 1 0 0 1 1-1h34a1 1 0 0 1 1 1v9h2z"/><path d="m16 10h32v8h-32z"/><path d="m28 20h8v4h-8z"/><path d="m38 20h6v4h-6z"/><path d="m20 20h6v4h-6z"/><path d="m46 20h6v4h-6z"/><path d="m12 20h6v4h-6z"/><path d="m60 53v-27h-56v27a1 1 0 0 0 1 1h54a1 1 0 0 0 1-1zm-51-25a3 3 0 1 1 -3 3 3 3 0 0 1 3-3zm4 24a7 7 0 1 1 7-7 7.008 7.008 0 0 1 -7 7zm28-3a1 1 0 0 1 -1 1h-16a1 1 0 0 1 -1-1v-4a1 1 0 0 1 1-1h16a1 1 0 0 1 1 1zm2-8a1 1 0 0 1 -1 1h-20a1 1 0 0 1 -1-1v-12a1 1 0 0 1 1-1h20a1 1 0 0 1 1 1zm8 11a7 7 0 1 1 7-7 7.008 7.008 0 0 1 -7 7zm4-18a3 3 0 1 1 3-3 3 3 0 0 1 -3 3z"/><path d="m60 21a1 1 0 0 0 -1-1h-5v4h6z"/><path d="m48 56h8v2h-8z"/><path d="m4 24h6v-4h-5a1 1 0 0 0 -1 1z"/><path d="m9 56h8v2h-8z"/></svg>