<svg height="512" viewBox="0 0 64 64" width="512" xmlns="http://www.w3.org/2000/svg"><path d="m32 21a11 11 0 1 0 11 11 11.013 11.013 0 0 0 -11-11zm0 16a5 5 0 1 1 5-5 5.006 5.006 0 0 1 -5 5zm7-5a7.008 7.008 0 0 0 -7-7v-2a9.01 9.01 0 0 1 9 9z"/><path d="m21 10h22v2h-22z"/><circle cx="32" cy="32" r="3"/><path d="m48 4h-32a1 1 0 0 0 -1 1v54a1 1 0 0 0 1 1h32a1 1 0 0 0 1-1v-54a1 1 0 0 0 -1-1zm-3 51a1 1 0 0 1 -1 1h-24a1 1 0 0 1 -1-1v-4a1 1 0 0 1 1-1h24a1 1 0 0 1 1 1zm-13-10a13 13 0 1 1 13-13 13.015 13.015 0 0 1 -13 13zm13-32a1 1 0 0 1 -1 1h-24a1 1 0 0 1 -1-1v-4a1 1 0 0 1 1-1h24a1 1 0 0 1 1 1z"/><path d="m21 52h22v2h-22z"/><path d="m2 32a9.01 9.01 0 0 0 9 9v-2a7 7 0 0 1 0-14v-2a9.01 9.01 0 0 0 -9 9z"/><path d="m6 32a5.006 5.006 0 0 0 5 5v-2a3 3 0 0 1 0-6v-2a5.006 5.006 0 0 0 -5 5z"/><path d="m53 23v2a7 7 0 0 1 0 14v2a9 9 0 0 0 0-18z"/><path d="m58 32a5.006 5.006 0 0 0 -5-5v2a3 3 0 0 1 0 6v2a5.006 5.006 0 0 0 5-5z"/></svg>