<svg height="512" viewBox="0 0 64 64" width="512" xmlns="http://www.w3.org/2000/svg"><path d="m24 39.78 8-1.6v-1.96l-8 1.6z"/><circle cx="33" cy="23" r="1"/><circle cx="43" cy="21" r="1"/><circle cx="31" cy="45" r="1"/><circle cx="21" cy="47" r="1"/><path d="m48 8h-32v44h32zm-26 2h6v2h-6zm0 4h6v2h-6zm-4-4h2v2h-2zm0 4h2v2h-2zm16 31a3 3 0 1 1 -3-3 2.966 2.966 0 0 1 1 .184v-1.964l-8 1.6v5.18a3 3 0 1 1 -3-3 2.966 2.966 0 0 1 1 .184v-7.184a1 1 0 0 1 .8-.98l10-2a1 1 0 0 1 1.2.98zm4 5h-2v-2h2zm0-4h-2v-2h2zm8 4h-6v-2h6zm0-4h-6v-2h6zm0-25a3 3 0 1 1 -3-3 2.966 2.966 0 0 1 1 .184v-1.964l-8 1.6v5.18a3 3 0 1 1 -3-3 2.966 2.966 0 0 1 1 .184v-7.184a1 1 0 0 1 .8-.98l10-2a1 1 0 0 1 1.2.98z"/><path d="m36 15.78 8-1.6v-1.96l-8 1.6z"/><path d="m13 60h38a1 1 0 0 0 1-1v-54a1 1 0 0 0 -1-1h-38a1 1 0 0 0 -1 1v54a1 1 0 0 0 1 1zm20-2h-2v-2h2zm-19-51a1 1 0 0 1 1-1h34a1 1 0 0 1 1 1v46a1 1 0 0 1 -1 1h-34a1 1 0 0 1 -1-1z"/></svg>