<svg height="512" viewBox="0 0 64 64" width="512" xmlns="http://www.w3.org/2000/svg"><path d="m19 18a2 2 0 0 0 2-2v-2h-4v2a2 2 0 0 0 2 2z"/><path d="m23 20h-3v5h-2v-5h-3a1 1 0 0 0 -1 1v6a1 1 0 0 0 1 1h8a1 1 0 0 0 1-1v-6a1 1 0 0 0 -1-1z"/><path d="m23 11v-1h-5a1 1 0 0 0 -1 1v1h5a1 1 0 0 0 1-1z"/><path d="m19 4a15 15 0 1 0 15 15 15.017 15.017 0 0 0 -15-15zm7 23a3 3 0 0 1 -3 3h-8a3 3 0 0 1 -3-3v-6a3 3 0 0 1 3-3h.556a3.959 3.959 0 0 1 -.556-2v-5a3 3 0 0 1 3-3h6a1 1 0 0 1 1 1v2a3.006 3.006 0 0 1 -2 2.829v2.171a3.959 3.959 0 0 1 -.556 2h.556a3 3 0 0 1 3 3z"/><path d="m45 44a2 2 0 0 0 2-2v-2h-4v2a2 2 0 0 0 2 2z"/><path d="m49 37v-1h-5a1 1 0 0 0 -1 1v1h5a1 1 0 0 0 1-1z"/><path d="m49 46h-3v5h-2v-5h-3a1 1 0 0 0 -1 1v6a1 1 0 0 0 1 1h8a1 1 0 0 0 1-1v-6a1 1 0 0 0 -1-1z"/><path d="m45 30a15 15 0 1 0 15 15 15.017 15.017 0 0 0 -15-15zm7 23a3 3 0 0 1 -3 3h-8a3 3 0 0 1 -3-3v-6a3 3 0 0 1 3-3h.556a3.959 3.959 0 0 1 -.556-2v-5a3 3 0 0 1 3-3h6a1 1 0 0 1 1 1v2a3.006 3.006 0 0 1 -2 2.829v2.171a3.959 3.959 0 0 1 -.556 2h.556a3 3 0 0 1 3 3z"/><path d="m61.615 2.212a.987.987 0 0 0 -.857-.182l-8 2a1 1 0 0 0 -.758.97v8a2 2 0 1 0 2 2v-9.219l6-1.5v6.719a2 2 0 1 0 2 2v-10a1 1 0 0 0 -.385-.788z"/><path d="m14.758 46.03-8 2a1 1 0 0 0 -.758.97v8a2 2 0 1 0 2 2v-9.219l6-1.5v6.719a2 2 0 1 0 2 2v-10a1 1 0 0 0 -1.242-.97z"/><path d="m45 26h2v-8a1 1 0 0 0 -1-1h-8v2h7z"/><path d="m19 38h-2v8a1 1 0 0 0 1 1h8v-2h-7z"/></svg>