<svg id="Capa_1" enable-background="new 0 0 512 512" height="512" viewBox="0 0 512 512" width="512" xmlns="http://www.w3.org/2000/svg"><path d="m409.001 104.523c-3.79-8.231-1.561-20.133-6.973-27.543-5.315-7.278-17.356-8.843-24.054-15.173-6.531-6.173-8.698-18.104-16.376-23.231-7.466-4.986-19.338-2.47-27.734-6.336-8.15-3.752-13.91-14.436-22.795-17.011-8.611-2.496-19.204 3.409-28.376 2.129-8.869-1.237-17.417-9.858-26.693-9.858s-17.824 8.621-26.692 9.858c-9.173 1.28-19.767-4.625-28.379-2.128-8.886 2.575-14.647 13.26-22.797 17.012-8.396 3.866-20.267 1.35-27.734 6.337-7.68 5.129-9.849 17.063-16.382 23.237-6.698 6.331-18.738 7.897-24.052 15.175-5.41 7.41-3.18 19.31-6.97 27.542-2.547 5.532-8.051 10.105-12.033 15.194h330.079c-3.982-5.093-9.49-9.669-12.039-15.204z" fill="#ffe09f"/><path d="m181.558 112.401c0-36.369 12.251-69.796 32.658-96.696-4.632-.938-9.186-1.665-13.287-.476-8.886 2.575-14.647 13.26-22.797 17.012-8.396 3.866-20.267 1.35-27.734 6.337-7.68 5.129-9.849 17.063-16.382 23.237-6.698 6.331-18.738 7.897-24.052 15.175-5.41 7.41-3.18 19.31-6.97 27.542-2.547 5.532-8.051 10.105-12.033 15.194h90.966c-.11-2.446-.369-4.852-.369-7.325z" fill="#f6d190"/><path d="m87.661 119.726 31.452 377.423c.346 4.155 3.819 7.351 7.988 7.351h257.797c4.169 0 7.642-3.196 7.988-7.351l31.452-377.423z" fill="#fff5d7"/><path d="m182.893 457.475-15.071-337.749h-80.161l31.452 377.424c.346 4.155 3.819 7.35 7.988 7.35h257.797c4.169 0 7.642-3.196 7.988-7.35l.724-16.698h-186.692c-12.865 0-23.451-10.125-24.025-22.977z" fill="#f9eac7"/><path d="m256 119.726h-56.113l10.688 384.774h45.425z" fill="#ff8086"/><path d="m346.849 504.5h-45.424l10.688-384.774 56.113 8.016z" fill="#ff8086"/><path d="m87.661 119.726 31.452 377.423c.346 4.155 3.819 7.351 7.988 7.351h38.049l-21.376-384.774z" fill="#e5646e"/><circle cx="256" cy="312.113" fill="#f9eac7" r="112.226"/><circle cx="256" cy="312.113" fill="#fff5d7" r="88.177"/><path d="m261.019 251.63 12.425 38.241h40.209c5.112 0 7.238 6.542 3.102 9.546l-32.53 23.634 12.425 38.241c1.58 4.862-3.985 8.905-8.121 5.9l-32.529-23.632-32.53 23.634c-4.136 3.005-9.7-1.038-8.121-5.9l4.116-12.667 8.309-25.574-32.53-23.634c-4.136-3.005-2.01-9.546 3.102-9.546h40.209l12.425-38.241c1.581-4.864 8.459-4.864 10.039-.002z" fill="#ff8086"/><g fill="#e5646e"><path d="m195.244 299.418 32.53 23.634-8.31 25.574-4.116 12.668c-1.58 4.862 3.985 8.905 8.12 5.9l32.532-23.635 32.53 23.634c2.054 1.492 4.457 1.241 6.166.02l-56.14-77.342h-40.209c-5.113 0-7.238 6.542-3.103 9.547z"/><path d="m209.907 480.452.668 24.048h45.425v-24.048z"/><path d="m302.093 480.452-.668 24.048h45.424l1.365-24.048z"/></g><path d="m313.654 282.372h-34.76l-10.742-33.059s0 0 0-.001c-1.716-5.28-6.6-8.828-12.152-8.828s-10.436 3.548-12.152 8.829l-10.742 33.059h-34.76c-5.552 0-10.436 3.548-12.151 8.829s.149 11.021 4.641 14.285l28.122 20.432-10.741 33.059c-1.716 5.281.149 11.021 4.642 14.285 2.246 1.632 4.878 2.448 7.51 2.448s5.264-.816 7.51-2.448l28.121-20.432 28.122 20.431c4.492 3.264 10.528 3.264 15.021 0s6.357-9.004 4.642-14.285l-10.741-33.059 28.122-20.432c4.492-3.264 6.357-9.004 4.641-14.285s-6.601-8.828-12.153-8.828zm-33.837 34.613c-2.629 1.91-3.729 5.295-2.725 8.385l10.311 31.734-26.996-19.613c-1.314-.955-2.861-1.432-4.408-1.432s-3.094.478-4.408 1.432l-26.996 19.613 10.311-31.735c1.004-3.09-.096-6.475-2.725-8.385l-26.995-19.614h33.368c3.249 0 6.129-2.092 7.133-5.182l10.313-31.734 10.312 31.735c1.004 3.09 3.884 5.182 7.133 5.182h33.368z"/><path d="m277.907 112.226h.008c.048-.007.014-.003-.008 0z"/><path d="m440.371 112.226h-15.829c-.806-.914-1.62-1.803-2.42-2.676-2.635-2.874-5.123-5.589-6.309-8.163-1.171-2.543-1.591-6.194-2.037-10.06-.703-6.108-1.5-13.031-5.692-18.77-4.071-5.575-10.289-8.432-15.775-10.952-3.633-1.669-7.064-3.245-9.184-5.249-2.016-1.905-3.732-5.19-5.549-8.669-2.805-5.37-5.985-11.456-11.814-15.349-5.618-3.751-12.308-4.38-18.21-4.934-4.043-.38-7.863-.739-10.552-1.977-2.521-1.161-5.197-3.772-8.029-6.536-4.292-4.188-9.155-8.936-15.815-10.866-6.417-1.858-12.929-.502-18.676.694-4.009.835-7.795 1.625-10.753 1.211-2.743-.382-6.059-2.133-9.57-3.987-5.274-2.786-11.254-5.943-18.157-5.943s-12.883 3.157-18.159 5.943c-3.511 1.854-6.827 3.604-9.57 3.987-2.961.414-6.745-.375-10.754-1.21-5.749-1.196-12.261-2.552-18.677-.693-6.661 1.93-11.525 6.678-15.816 10.867-2.833 2.764-5.508 5.375-8.03 6.537-2.689 1.238-6.508 1.597-10.552 1.977-5.902.555-12.592 1.184-18.21 4.935-5.831 3.894-9.011 9.981-11.817 15.353-1.818 3.479-3.535 6.766-5.551 8.672-2.12 2.003-5.551 3.58-9.184 5.249-5.485 2.521-11.703 5.377-15.774 10.953-4.19 5.739-4.987 12.661-5.689 18.769-.444 3.865-.864 7.516-2.035 10.059-1.185 2.573-3.673 5.288-6.307 8.162-.798.871-1.61 1.757-2.414 2.668h-15.832c-4.142 0-7.5 3.358-7.5 7.5s3.358 7.5 7.5 7.5h9.131l31.491 377.897c.324 3.887 3.573 6.877 7.474 6.877h272.549c3.901 0 7.15-2.99 7.474-6.877l31.491-377.897h9.131c4.142 0 7.5-3.358 7.5-7.5s-3.357-7.502-7.499-7.502zm-330.564-4.558c2.173-4.721 2.752-9.752 3.312-14.618.538-4.678 1.046-9.097 2.902-11.638 1.768-2.421 5.729-4.241 9.922-6.168 4.363-2.005 9.309-4.277 13.225-7.979 3.843-3.633 6.232-8.205 8.542-12.627 2.166-4.145 4.211-8.06 6.853-9.824 2.465-1.646 6.748-2.049 11.283-2.475 4.879-.458 10.409-.978 15.421-3.286 4.873-2.244 8.615-5.896 12.233-9.427 3.325-3.245 6.466-6.311 9.516-7.194 2.834-.821 7.016.049 11.443.971 4.849 1.01 10.344 2.153 15.884 1.382 5.348-.746 10.001-3.203 14.501-5.579 4.099-2.163 7.969-4.206 11.156-4.206s7.057 2.043 11.155 4.207c4.5 2.376 9.154 4.833 14.502 5.579 5.536.772 11.033-.372 15.883-1.382 4.428-.922 8.61-1.792 11.442-.972 3.049.884 6.189 3.948 9.513 7.193 3.619 3.531 7.36 7.184 12.233 9.427 1.734.798 3.531 1.373 5.341 1.814 3.579 4.902 3.171 11.826-1.252 16.25-4.89 4.891-12.845 4.89-17.735 0-2.929-2.929-7.678-2.929-10.606 0-2.929 2.929-2.929 7.678 0 10.606 5.369 5.369 12.421 8.054 19.474 8.054 7.052 0 14.104-2.685 19.474-8.054 6.653-6.653 9.18-15.89 7.589-24.51 1.754.354 3.286.842 4.421 1.6 2.64 1.763 4.684 5.676 6.849 9.82 2.31 4.421 4.698 8.993 8.542 12.625 3.916 3.701 8.861 5.973 13.225 7.978 4.194 1.927 8.155 3.746 9.923 6.168 1.856 2.542 2.365 6.961 2.904 11.639.56 4.866 1.14 9.897 3.313 14.618.751 1.63 1.657 3.136 2.65 4.565h-103.464c2.348-4.584 3.447-9.87 2.875-15.364-.429-4.12-4.117-7.118-8.236-6.683-4.12.429-7.112 4.117-6.683 8.236.716 6.877-5.364 13.81-11.628 13.81h-110.114c-.183-5.157 2.839-10.114 7.904-12.119 3.851-1.524 5.738-5.882 4.213-9.734-1.524-3.851-5.882-5.736-9.734-4.213-10.944 4.332-17.57 14.939-17.397 26.066h-45.413c.991-1.425 1.895-2.929 2.644-4.556zm194.595 19.558-2.072 74.615c-12.341-5.19-25.472-8.268-38.829-9.119v-65.496zm-55.902 0v65.473c-3.501.215-7.004.583-10.497 1.108-9.809 1.475-19.318 4.154-28.335 7.929l-2.07-74.51zm-53.631 81.955c-11.347 6.731-21.597 15.35-30.267 25.595-2.285 2.7-4.438 5.491-6.461 8.361l-6.439-115.912h40.89zm-68.243 287.819-30.814-369.774h40.867l7.846 141.242c-5.618 14.371-8.447 29.803-8.179 45.479.322 18.85 5.073 37.217 13.687 53.656l7.189 129.397zm121.874 0h-30.63l-2.006-72.216c10.503 3.745 21.49 6.006 32.636 6.716zm-47.947-96.188c-3.51-2.199-8.138-1.137-10.338 2.373-2.199 3.51-1.137 8.138 2.373 10.338 2.639 1.654 5.34 3.188 8.085 4.622l2.19 78.855h-30.619l-5.872-105.694c.038.042.074.086.112.128 1.482 1.669 3.542 2.521 5.611 2.521 1.771 0 3.548-.624 4.977-1.892 3.098-2.75 3.379-7.49.629-10.588-16.569-18.662-25.93-42.735-26.357-67.786-.432-25.298 8.343-49.882 24.709-69.224s39.159-32.065 64.179-35.827c24.773-3.723 50.067 1.522 71.214 14.774 3.51 2.198 8.138 1.137 10.338-2.373 2.199-3.51 1.137-8.138-2.373-10.338-.757-.474-1.518-.939-2.284-1.396l2.28-82.082h40.89l-6.45 116.093c-2.568-3.649-5.348-7.165-8.333-10.528-2.75-3.097-7.49-3.378-10.588-.629-3.098 2.75-3.379 7.49-.629 10.588 16.569 18.662 25.93 42.735 26.357 67.786.432 25.298-8.343 49.882-24.709 69.224s-39.159 32.065-64.179 35.826c-24.775 3.728-50.066-1.52-71.213-14.771zm93.577 96.188h-30.63v-65.49c3.502-.215 7.004-.565 10.497-1.09 7.589-1.141 14.996-3.009 22.136-5.542zm45.625 0h-30.619l2.187-78.728c12.877-6.699 24.521-15.736 34.293-26.765zm45.619 0h-30.596l7.175-129.15c9.266-17.623 14.045-37.396 13.701-57.57-.245-14.354-3.059-28.429-8.191-41.586l7.858-141.468h40.867z"/><path d="m219.927 95.148c7.053 0 14.105-2.685 19.474-8.054 2.929-2.929 2.929-7.678 0-10.606-2.929-2.929-7.678-2.929-10.606 0-4.889 4.889-12.845 4.89-17.735 0-4.889-4.89-4.889-12.845 0-17.735 2.929-2.929 2.929-7.678 0-10.606-2.929-2.929-7.678-2.929-10.606 0-10.738 10.738-10.738 28.21 0 38.948 5.369 5.369 12.421 8.053 19.473 8.053z"/></svg>