<?xml version="1.0" encoding="iso-8859-1"?>
<!-- Generator: Adobe Illustrator 19.0.0, SVG Export Plug-In . SVG Version: 6.00 Build 0)  -->
<svg version="1.1" id="Layer_1" xmlns="http://www.w3.org/2000/svg" xmlns:xlink="http://www.w3.org/1999/xlink" x="0px" y="0px"
	 viewBox="0 0 511.999 511.999" style="enable-background:new 0 0 511.999 511.999;" xml:space="preserve">
<g>
	<g>
		<path d="M417.868,117.604c-1.055-3.247-3.861-5.613-7.241-6.104L309.34,96.782L264.043,5c-1.512-3.061-4.629-5-8.043-5
			s-6.532,1.938-8.043,5l-45.298,91.782L101.371,111.5c-3.378,0.49-6.186,2.857-7.241,6.104c-1.055,3.247-0.175,6.81,2.268,9.194
			l73.294,71.443L152.39,299.119c-0.578,3.365,0.806,6.766,3.567,8.771c1.563,1.136,3.413,1.714,5.272,1.714
			c1.427,0,2.86-0.341,4.172-1.03l63.694-33.486v67.716h-56.318c-4.954,0-8.969,4.016-8.969,8.969v36.461h-32.173
			c-4.507,0-8.313,3.344-8.895,7.814l-13.748,105.826c-0.332,2.559,0.453,5.136,2.156,7.075s4.159,3.049,6.739,3.049h276.223
			c2.579,0,5.036-1.111,6.739-3.049c1.703-1.938,2.489-4.516,2.156-7.075l-13.748-105.826c-0.58-4.469-4.388-7.814-8.895-7.814
			h-32.174v-36.461c0-4.953-4.014-8.969-8.969-8.969h-56.311v-67.713l63.685,33.482c3.022,1.588,6.684,1.323,9.445-0.683
			c2.762-2.007,4.146-5.408,3.567-8.771l-17.301-100.88l73.292-71.443C418.043,124.416,418.923,120.852,417.868,117.604z
			 M372.483,406.174l11.419,87.889H128.097l11.419-87.889H372.483z M330.252,360.744v27.492h-0.001H181.749v-27.492H330.252z
			 M247.034,342.807V265.66l8.965-4.713l8.972,4.718v77.142H247.034z M326.409,188.688c-2.114,2.06-3.078,5.03-2.578,7.938
			l15.026,87.616l-78.683-41.367c-1.307-0.686-2.74-1.03-4.173-1.03c-1.434,0-2.866,0.343-4.173,1.03l-78.685,41.367l15.027-87.616
			c0.5-2.909-0.465-5.879-2.578-7.939l-63.656-62.048l87.97-12.783c2.921-0.424,5.447-2.259,6.753-4.906l39.342-79.715l39.34,79.715
			c1.307,2.646,3.831,4.482,6.753,4.906l87.97,12.783L326.409,188.688z"/>
	</g>
</g>
<g>
	<g>
		<path d="M353.621,138.48c-1.055-3.247-3.861-5.613-7.241-6.104l-56.896-8.268L264.043,72.55c-1.512-3.061-4.629-5-8.043-5
			c-3.414,0-6.532,1.938-8.043,5l-25.445,51.557l-56.896,8.268c-3.378,0.49-6.186,2.857-7.241,6.104
			c-1.055,3.247-0.175,6.81,2.268,9.194l41.172,40.132l-9.72,56.667c-0.578,3.365,0.806,6.766,3.567,8.771
			c1.563,1.136,3.413,1.714,5.272,1.714c1.427,0,2.86-0.341,4.172-1.03l50.891-26.756l50.89,26.754
			c3.023,1.588,6.685,1.324,9.445-0.683c2.762-2.007,4.146-5.406,3.567-8.771l-9.72-56.666l41.172-40.132
			C353.797,145.29,354.676,141.726,353.621,138.48z M294.285,178.251c-2.114,2.06-3.078,5.03-2.578,7.939l7.445,43.403
			l-38.978-20.492c-2.614-1.373-5.734-1.373-8.347,0l-38.979,20.493l7.445-43.403c0.5-2.909-0.465-5.879-2.578-7.939l-31.535-30.738
			l43.578-6.333c2.921-0.424,5.447-2.259,6.753-4.906l19.49-39.489l19.488,39.489c1.307,2.646,3.831,4.482,6.753,4.906l43.578,6.333
			L294.285,178.251z"/>
	</g>
</g>
<g>
</g>
<g>
</g>
<g>
</g>
<g>
</g>
<g>
</g>
<g>
</g>
<g>
</g>
<g>
</g>
<g>
</g>
<g>
</g>
<g>
</g>
<g>
</g>
<g>
</g>
<g>
</g>
<g>
</g>
</svg>
