<?xml version="1.0" encoding="iso-8859-1"?>
<!-- Generator: Adobe Illustrator 19.0.0, SVG Export Plug-In . SVG Version: 6.00 Build 0)  -->
<svg version="1.1" id="Layer_1" xmlns="http://www.w3.org/2000/svg" xmlns:xlink="http://www.w3.org/1999/xlink" x="0px" y="0px"
	 viewBox="0 0 512.002 512.002" style="enable-background:new 0 0 512.002 512.002;" xml:space="preserve">
<g>
	<g>
		<path d="M482.698,448.889c-9.829-74.642-55.276-169.852-91.672-236.58c-14.296-26.209-29.705-52.72-45.801-78.798
			c-10.746-17.409-30.242-27.679-50.498-26.913c-0.44-0.334,45.536-14.739,45.536-14.739c19.832-5.817,33.684-24.314,33.684-44.983
			C373.946,21.029,352.917,0,327.069,0c-20.668,0-39.166,13.851-44.983,33.684l-10.707,36.5l-10.707-36.501
			C254.855,13.85,236.357,0,215.69,0c-25.848,0-46.877,21.029-46.877,46.877c0,20.667,13.85,39.165,33.684,44.983l25.131,7.372
			c-18.16,8.278-39.978,25.16-62.478,58.376c-48.445,71.515-88.055,68.201-123.638,53.967c-4.674-1.872-9.979,0.404-11.849,5.078
			c-1.87,4.674,0.404,9.979,5.078,11.849c12.011,4.804,26.864,9.624,43.665,9.624c7.611,0,15.625-0.989,23.951-3.419
			c27.325-7.97,52.802-29.846,77.886-66.874c8.74-12.901,17.223-22.918,25.196-30.705c-0.486,1.829-0.894,3.693-1.203,5.599
			c-6.332,39.027-14.613,98.749-18.106,161.63c-4.24,76.342-0.34,137.695,11.594,182.353c3.979,14.892,17.474,25.292,32.819,25.292
			h59.499c15.344,0,28.84-10.4,32.819-25.292c3.887-14.545,6.793-30.341,8.887-46.967c11.562,22.292,23.387,41.387,35.318,56.971
			c6.607,8.633,16.732,13.393,27.101,13.392c4.334,0,8.71-0.831,12.89-2.56l54.985-22.738
			C476.228,478.941,484.722,464.169,482.698,448.889z M299.58,38.815c3.555-12.121,14.859-20.584,27.489-20.584
			c15.796,0,28.647,12.851,28.647,28.647c0,12.63-8.464,23.934-20.585,27.489l-50.311,14.758L299.58,38.815z M207.627,74.368
			c-12.121-3.556-20.584-14.86-20.584-27.49c0-15.796,12.851-28.647,28.647-28.647c12.63,0,23.934,8.465,27.49,20.584l14.758,50.311
			L207.627,74.368z M222.229,145.646c3.044-18.758,19.052-32.372,38.062-32.372c19.011,0,35.017,13.616,38.06,32.373
			c5.158,31.791,9.091,61.046,12.02,87.908c-3.15,29.203-7.194,59.088-12.023,88.84c-1.468,9.035-6.11,17.273-13.072,23.196
			c-6.957,5.919-15.829,9.178-24.984,9.178c-19.018,0-35.023-13.613-38.056-32.375c-4.83-29.752-8.875-59.64-12.025-88.846
			C213.139,206.687,217.071,177.435,222.229,145.646z M305.247,482.003c-1.851,6.929-8.105,11.767-15.208,11.767h-59.498
			c-7.103,0-13.356-4.838-15.208-11.767c-5.832-21.827-15.196-71.973-11.755-160.924c0.225,1.41,0.433,2.822,0.661,4.231
			c4.466,27.634,28.039,47.689,56.051,47.689c13.478,0,26.547-4.803,36.797-13.524c10.255-8.725,17.093-20.857,19.254-34.159
			c0.229-1.404,0.436-2.81,0.661-4.214C320.441,410.039,311.08,460.177,305.247,482.003z M316.348,142.725
			c-0.857-5.277-2.414-10.273-4.56-14.911c7.29,3.063,13.636,8.324,17.925,15.272c15.749,25.516,30.827,51.45,44.837,77.094
			c8.187,28.022,15.825,57.028,22.704,86.24c2.096,8.899,0.954,18.284-3.216,26.427c-4.16,8.125-11.116,14.53-19.579,18.035
			c-12.883,5.326-27.548,3.233-38.387-5.198C334.833,270.697,324.627,193.754,316.348,142.725z M455.076,467.959l-54.988,22.739
			c-6.562,2.714-14.19,0.63-18.549-5.067c-15.753-20.575-31.424-47.821-46.597-80.973c0.74-12.349,1.131-24.971,1.228-37.732
			c7.404,3.368,15.447,5.109,23.565,5.109c7.312,0,14.685-1.411,21.692-4.308c12.464-5.162,22.705-14.598,28.837-26.57
			c6.139-11.988,7.821-25.809,4.734-38.916c-0.318-1.355-0.653-2.704-0.976-4.058c23.618,51.058,44.469,106.513,50.601,153.092
			C465.567,458.386,461.64,465.245,455.076,467.959z"/>
	</g>
</g>
<g>
</g>
<g>
</g>
<g>
</g>
<g>
</g>
<g>
</g>
<g>
</g>
<g>
</g>
<g>
</g>
<g>
</g>
<g>
</g>
<g>
</g>
<g>
</g>
<g>
</g>
<g>
</g>
<g>
</g>
</svg>
