<?xml version="1.0" encoding="iso-8859-1"?>
<!-- Generator: Adobe Illustrator 19.0.0, SVG Export Plug-In . SVG Version: 6.00 Build 0)  -->
<svg version="1.1" id="Layer_1" xmlns="http://www.w3.org/2000/svg" xmlns:xlink="http://www.w3.org/1999/xlink" x="0px" y="0px"
	 viewBox="0 0 512 512" style="enable-background:new 0 0 512 512;" xml:space="preserve">
<g>
	<g>
		<path d="M102.518,106.339c-38.435,0-69.704,31.269-69.704,69.704s31.269,69.704,69.704,69.704
			c38.434,0,69.703-31.269,69.703-69.704C172.221,137.608,140.953,106.339,102.518,106.339z M102.518,228.322
			c-28.827,0-52.279-23.452-52.279-52.279s23.452-52.279,52.279-52.279c28.826,0,52.278,23.452,52.278,52.279
			S131.345,228.322,102.518,228.322z"/>
	</g>
</g>
<g>
	<g>
		<path d="M359.248,106.339c-38.435,0-69.704,31.269-69.704,69.704s31.269,69.704,69.704,69.704s69.704-31.269,69.704-69.704
			S397.683,106.339,359.248,106.339z M359.248,228.322c-28.827,0-52.279-23.452-52.279-52.279s23.452-52.279,52.279-52.279
			s52.279,23.452,52.279,52.279S388.075,228.322,359.248,228.322z"/>
	</g>
</g>
<g>
	<g>
		<path d="M494.107,320.427V199.904h8.35c4.811,0,8.712-3.901,8.712-8.712v-30.298c0-4.811-3.901-8.712-8.712-8.712h-8.35v-37.536
			c0-13.72-11.162-24.883-24.882-24.883s-24.882,11.162-24.882,24.883v4.283c-18.427-27.366-49.693-45.404-85.094-45.404
			c-3.028,0-6.023,0.139-8.985,0.398c-11.18,0.322-32.173,0.303-54.068-2.958c-4.653-32.132-32.068-56.368-65.31-56.368
			c-33.239,0-60.652,24.232-65.309,56.358c-21.936,3.262-42.985,3.279-54.148,2.96c-2.937-0.254-5.906-0.391-8.907-0.391
			C45.989,73.525,0,119.515,0,176.043s45.989,102.518,102.518,102.518c56.529,0,102.518-45.989,102.518-102.518
			c0-0.008,0-0.016,0-0.024c8.229-3.127,16.894-4.734,25.847-4.734c8.954,0,17.618,1.607,25.848,4.734c0,0.008,0,0.016,0,0.024
			c0,56.529,45.989,102.518,102.518,102.518c35.401,0,66.666-18.038,85.094-45.404v87.27c-10.38,3.437-17.893,13.228-17.893,24.746
			c0,11.519,7.512,21.309,17.893,24.746v102.6c0,13.72,11.162,24.882,24.882,24.882s24.882-11.162,24.882-24.882v-102.6
			C504.488,366.481,512,356.691,512,345.173S504.488,323.864,494.107,320.427z M230.883,32.023
			c22.302,0,41.039,14.818,46.778,35.346c-6.208-1.523-12.281-3.379-18.016-5.635c-6.16-9.354-16.75-15.545-28.762-15.545
			c-12.014,0-22.604,6.191-28.763,15.546c-5.73,2.254-11.803,4.109-18.013,5.629C189.846,46.838,208.583,32.023,230.883,32.023z
			 M247.88,80.609c0,9.372-7.624,16.996-16.996,16.996c-9.372,0-16.996-7.625-16.996-16.996c0-9.371,7.624-16.996,16.996-16.996
			C240.256,63.613,247.88,71.237,247.88,80.609z M102.518,261.137c-46.921,0-85.093-38.174-85.093-85.094
			S55.597,90.95,102.518,90.95s85.093,38.172,85.093,85.093S149.438,261.137,102.518,261.137z M230.883,153.861
			c-9.429,0-18.611,1.425-27.423,4.235c-5.094-28.725-22.188-53.355-45.9-68.505c12.658-1.395,26.139-3.732,38.938-7.537
			c0.761,18.312,15.889,32.975,34.384,32.975c18.498,0,33.627-14.668,34.384-32.982c12.799,3.804,26.278,6.149,38.937,7.544
			c-23.711,15.15-40.806,39.779-45.898,68.504C249.493,155.285,240.313,153.861,230.883,153.861z M359.248,261.137
			c-46.921,0-85.093-38.172-85.093-85.093s38.172-85.093,85.093-85.093s85.093,38.172,85.093,85.093
			C444.342,222.964,406.168,261.137,359.248,261.137z M461.766,114.646c0-4.112,3.347-7.458,7.459-7.458s7.458,3.346,7.458,7.459
			v37.536h-14.917V114.646z M461.766,169.606h31.979v12.873h-31.979V169.606z M461.766,199.904h14.917v119.203h-14.917V199.904z
			 M476.684,472.52c-0.001,4.112-3.347,7.458-7.459,7.458s-7.458-3.345-7.458-7.458v-101.28h14.917V472.52z M485.935,353.814
			h-33.421c-4.765,0-8.64-3.876-8.64-8.64c0-4.764,3.876-8.64,8.64-8.64h33.421c4.765,0,8.64,3.876,8.64,8.64
			C494.576,349.937,490.699,353.814,485.935,353.814z"/>
	</g>
</g>
<g>
</g>
<g>
</g>
<g>
</g>
<g>
</g>
<g>
</g>
<g>
</g>
<g>
</g>
<g>
</g>
<g>
</g>
<g>
</g>
<g>
</g>
<g>
</g>
<g>
</g>
<g>
</g>
<g>
</g>
</svg>
