<?xml version="1.0" encoding="iso-8859-1"?>
<!-- Generator: Adobe Illustrator 19.0.0, SVG Export Plug-In . SVG Version: 6.00 Build 0)  -->
<svg version="1.1" id="Layer_1" xmlns="http://www.w3.org/2000/svg" xmlns:xlink="http://www.w3.org/1999/xlink" x="0px" y="0px"
	 viewBox="0 0 512.001 512.001" style="enable-background:new 0 0 512.001 512.001;" xml:space="preserve">
<g>
	<g>
		<path d="M406.248,78.914V8.732c0-4.822-3.909-8.732-8.732-8.732h-94.344c-4.822,0-8.732,3.909-8.732,8.732v12.273h-76.88V8.732
			c0-4.822-3.909-8.732-8.732-8.732h-94.344c-4.822,0-8.732,3.909-8.732,8.732v70.183c0,27.855,20.48,51.011,47.172,55.217v30.99
			H123.33c-3.493,0-6.644,2.087-8.02,5.298c-0.737,1.72-0.867,3.583-0.476,5.336l-0.014,0.003l30.342,135.954
			c0.662,2.971,2.826,5.383,5.708,6.364c0.92,0.313,1.869,0.466,2.813,0.466c2.014,0,4-0.697,5.593-2.026l10.017-8.352
			l81.865,198.435c1.348,3.269,4.536,5.402,8.073,5.402c3.536,0,6.723-2.133,8.072-5.402l135.876-329.416
			c1.111-2.694,0.805-5.764-0.816-8.186s-4.343-3.876-7.257-3.876h-36.029v-30.99C385.768,129.926,406.248,106.768,406.248,78.914z
			 M311.904,17.463h50.121l-50.121,26.251V17.463z M309.29,116.807c8.349,9.038,19.63,15.325,32.322,17.324v30.99h-76.88v-9.985
			C285.786,151.819,302.969,136.712,309.29,116.807z M294.441,82.541l-18.488-13.753l18.488-18.201V82.541z M281.858,38.468
			l-20.083,19.773l-26.579-19.773H281.858z M217.56,47.115l76.644,57.016c-2.104,19.221-18.432,34.228-38.204,34.228
			c-21.197,0-38.44-17.244-38.44-38.44V47.115z M202.711,116.807c6.322,19.905,23.506,35.012,44.558,38.328v9.985h-76.88v-30.99
			C183.08,132.131,194.362,125.845,202.711,116.807z M200.097,17.463v12.273v13.978l-50.121-26.251H200.097z M123.217,78.914V23.162
			l76.88,40.266v15.486c0,21.196-17.244,38.44-38.44,38.44C140.461,117.354,123.217,100.11,123.217,78.914z M159.088,293.936
			l-24.851-111.352h158.405L159.088,293.936z M382.059,182.586l-122.83,297.786l-75.88-183.927L319.91,182.586H382.059z
			 M350.344,117.354c-21.196,0-38.44-17.244-38.44-38.44V63.428l76.88-40.266v55.752C388.784,100.11,371.54,117.354,350.344,117.354
			z"/>
	</g>
</g>
<g>
</g>
<g>
</g>
<g>
</g>
<g>
</g>
<g>
</g>
<g>
</g>
<g>
</g>
<g>
</g>
<g>
</g>
<g>
</g>
<g>
</g>
<g>
</g>
<g>
</g>
<g>
</g>
<g>
</g>
</svg>
