<?xml version="1.0" encoding="iso-8859-1"?>
<!-- Generator: Adobe Illustrator 19.0.0, SVG Export Plug-In . SVG Version: 6.00 Build 0)  -->
<svg version="1.1" id="Layer_1" xmlns="http://www.w3.org/2000/svg" xmlns:xlink="http://www.w3.org/1999/xlink" x="0px" y="0px"
	 viewBox="0 0 512 512" style="enable-background:new 0 0 512 512;" xml:space="preserve">
<g>
	<g>
		<path d="M485.14,114.394c-5.472-5.472-11.393-10.303-17.684-14.464h16.843c5.091,0,9.218-4.127,9.218-9.218V38.453
			c0-5.091-4.127-9.218-9.218-9.218H27.7c-5.091,0-9.218,4.127-9.218,9.218v52.259c0,5.091,4.127,9.218,9.218,9.218h16.838
			c-6.288,4.162-12.21,8.994-17.68,14.464C9.539,131.714,0,154.743,0,179.238s9.539,47.524,26.86,64.845
			c13.088,13.088,30.155,20.742,48.472,21.866v207.597c0,5.091,4.127,9.218,9.218,9.218h342.898c5.091,0,9.218-4.127,9.218-9.218
			V265.949c18.317-1.125,35.384-8.778,48.472-21.866C502.46,226.763,512,203.734,512,179.238S502.461,131.714,485.14,114.394z
			 M36.919,81.494V47.671h438.164v33.823H36.919z M169.688,464.329h-34.547v-74.348c0-9.525,7.749-17.273,17.273-17.273
			s17.273,7.749,17.273,17.273V464.329z M273.273,464.329h-34.547v-74.348c0-9.525,7.749-17.273,17.273-17.273
			c9.524,0,17.273,7.749,17.273,17.273V464.329z M376.859,464.329h-34.547v-74.348c0-9.525,7.749-17.273,17.273-17.273
			c9.524,0,17.273,7.749,17.273,17.273V464.329z M418.23,464.329h-22.936v-74.348c0-19.691-16.02-35.709-35.709-35.709
			s-35.709,16.02-35.709,35.709v74.348H291.71v-74.348c0-19.691-16.02-35.709-35.709-35.709s-35.709,16.02-35.709,35.709v74.348
			h-32.166v-74.348c0-19.691-16.02-35.709-35.709-35.709s-35.709,16.02-35.709,35.709v74.348H93.768V324.224H418.23V464.329z
			 M93.768,305.788v-39.217H418.23v39.217H93.768z M472.103,231.046c-10.722,10.724-24.978,16.628-40.143,16.628
			s-29.421-5.906-40.144-16.628c-16.988-16.989-16.988-44.632,0-61.622c12.872-12.872,33.818-12.872,46.69,0
			c9.579,9.579,9.579,25.166,0,34.746c-3.6,3.6-3.6,9.437,0,13.036c3.6,3.6,9.437,3.6,13.035,0
			c8.123-8.122,12.597-18.922,12.597-30.408s-4.474-22.287-12.597-30.408c-20.06-20.06-52.7-20.061-72.762,0
			c-24.177,24.177-24.177,63.517,0,87.694c1.421,1.421,2.902,2.76,4.412,4.052H128.805c1.512-1.292,2.992-2.631,4.412-4.052
			c24.177-24.177,24.177-63.517,0-87.694c-20.062-20.062-52.703-20.06-72.762,0c-16.768,16.767-16.768,44.05,0,60.817
			c3.6,3.6,9.437,3.6,13.036,0c3.6-3.6,3.6-9.437,0-13.036c-9.579-9.579-9.579-25.166,0-34.746c12.872-12.871,33.817-12.872,46.69,0
			c16.988,16.989,16.988,44.633,0,61.622c-22.136,22.136-58.152,22.136-80.287,0c-28.567-28.567-28.567-75.049,0-103.617
			c18.297-18.294,42.632-28.034,68.495-27.476c0.069,0.001,0.136,0.002,0.205,0.002h294.81c0.069,0,0.136,0,0.205-0.002
			c25.86-0.591,50.199,9.182,68.494,27.476c13.838,13.838,21.46,32.237,21.46,51.809
			C493.563,198.809,485.941,217.208,472.103,231.046z"/>
	</g>
</g>
<g>
</g>
<g>
</g>
<g>
</g>
<g>
</g>
<g>
</g>
<g>
</g>
<g>
</g>
<g>
</g>
<g>
</g>
<g>
</g>
<g>
</g>
<g>
</g>
<g>
</g>
<g>
</g>
<g>
</g>
</svg>
