<?xml version="1.0" encoding="iso-8859-1"?>
<!-- Generator: Adobe Illustrator 19.0.0, SVG Export Plug-In . SVG Version: 6.00 Build 0)  -->
<svg version="1.1" id="Layer_1" xmlns="http://www.w3.org/2000/svg" xmlns:xlink="http://www.w3.org/1999/xlink" x="0px" y="0px"
	 viewBox="0 0 512.001 512.001" style="enable-background:new 0 0 512.001 512.001;" xml:space="preserve">
<g>
	<g>
		<path d="M471.748,159.942c-4.855-14.173-19.859-21.791-34.163-17.347c-11.421,3.551-22.93,6.752-34.51,9.62v-5.139
			c0-39.296-15.3-76.229-43.076-103.995C332.229,15.3,295.294,0,256.001,0c-81.099,0-147.076,65.977-147.076,147.076v5.139
			c-11.579-2.869-23.088-6.07-34.508-9.62c-14.301-4.445-29.31,3.173-34.164,17.348c-2.427,7.093-1.894,14.679,1.5,21.363
			c3.395,6.686,9.208,11.593,16.368,13.819c64.095,19.922,130.672,30.024,197.882,30.024c67.209,0,133.787-10.102,197.879-30.024
			c7.161-2.226,12.974-7.134,16.371-13.821C473.644,174.62,474.175,167.034,471.748,159.942z M256.001,18.333
			c34.396,0,66.725,13.392,91.034,37.711c17.478,17.471,29.312,39.087,34.584,62.637c-41.057,9.515-83.273,14.336-125.62,14.336
			c-42.331,0-84.533-4.819-125.582-14.331C143.381,61.312,194.763,18.333,256.001,18.333z M127.258,147.076
			c0-3.439,0.139-6.847,0.406-10.219c41.969,9.614,85.089,14.493,128.337,14.493c43.251,0,86.371-4.879,128.339-14.491
			c0.264,3.382,0.402,6.788,0.402,10.217v9.372c-42.233,9.092-85.341,13.702-128.741,13.702c-43.401,0-86.51-4.611-128.742-13.702
			V147.076z M453.902,173.006c-1.134,2.232-3.074,3.871-5.465,4.613c-62.33,19.375-127.077,29.198-192.438,29.198
			s-130.108-9.824-192.44-29.198c-2.388-0.742-4.329-2.381-5.462-4.611s-1.31-4.762-0.501-7.126c1.304-3.812,4.813-6.2,8.624-6.2
			c0.908,0,1.835,0.136,2.752,0.422c60.579,18.832,123.505,28.381,187.027,28.381s126.448-9.549,187.027-28.381
			c4.762-1.48,9.758,1.057,11.375,5.779C455.212,168.246,455.034,170.776,453.902,173.006z"/>
	</g>
</g>
<g>
	<g>
		<path d="M362.474,468.909c3.879-5.509,5.846-11.804,5.846-18.711c0-6.908-1.967-13.203-5.847-18.714
			c-2.058-2.922-2.487-6.842-1.121-10.231c3.719-9.223,1.346-18.655-6.512-25.875c-10.809-9.934-27.344-9.269-49.15,1.985
			c-9.409,4.857-17.67,10.597-22.356,14.062c-18.162-5.593-36.507-5.593-54.67,0c-4.686-3.465-12.946-9.205-22.356-14.062
			c-21.799-11.252-38.337-11.919-49.151-1.984c-7.857,7.221-10.229,16.652-6.511,25.873c1.366,3.389,0.938,7.309-1.121,10.233
			c-3.879,5.509-5.846,11.804-5.846,18.712c0,6.908,1.967,13.204,5.846,18.712c2.058,2.922,2.487,6.843,1.121,10.232
			c-3.718,9.223-1.346,18.654,6.512,25.875c5.067,4.658,11.391,6.984,18.929,6.984c8.541,0,18.639-2.991,30.221-8.969
			c9.41-4.857,17.67-10.597,22.356-14.062c9.081,2.797,18.208,4.209,27.335,4.209c9.128,0,18.254-1.413,27.335-4.211
			c4.686,3.465,12.946,9.205,22.356,14.062c11.584,5.979,21.679,8.969,30.221,8.969c7.535,0,13.863-2.327,18.929-6.984
			c7.858-7.22,10.231-16.652,6.512-25.875C359.986,475.754,360.415,471.833,362.474,468.909z M216.19,475.443
			c-16.378,11.935-39.168,22.927-46.626,16.075c-3.02-2.776-2.432-4.234-1.913-5.52c3.724-9.235,2.552-19.569-3.135-27.644
			c-1.683-2.391-2.502-5.059-2.502-8.156c0-3.097,0.819-5.765,2.502-8.156c5.687-8.075,6.859-18.409,3.135-27.644
			c-0.519-1.286-1.106-2.744,1.912-5.52c7.465-6.853,30.253,4.14,46.627,16.074C211.187,441.733,211.187,458.662,216.19,475.443z
			 M277.872,471.488c-14.679,4.526-29.063,4.526-43.742,0c-4.549-14.288-4.549-28.292,0-42.58c14.679-4.527,29.063-4.527,43.742,0
			C282.421,443.196,282.421,457.2,277.872,471.488z M347.486,458.353c-5.688,8.074-6.862,18.41-3.137,27.646
			c0.519,1.287,1.106,2.745-1.912,5.52c-7.463,6.853-30.249-4.138-46.626-16.074c5.005-16.784,5.004-33.715-0.002-50.499
			c16.358-11.949,39.138-22.947,46.628-16.066c3.019,2.774,2.431,4.233,1.912,5.52c-3.724,9.235-2.551,19.57,3.136,27.644
			c1.683,2.391,2.502,5.059,2.502,8.156C349.987,453.296,349.168,455.963,347.486,458.353z"/>
	</g>
</g>
<g>
	<g>
		<path d="M256.001,287.818c-17.186,0-31.167,13.981-31.167,31.167v22c0,5.063,4.103,9.167,9.167,9.167h44
			c5.064,0,9.167-4.104,9.167-9.167v-22C287.168,301.799,273.187,287.818,256.001,287.818z M268.834,331.819h-25.667v-12.833
			c0-7.077,5.757-12.833,12.833-12.833c7.077,0,12.833,5.757,12.833,12.833V331.819z"/>
	</g>
</g>
<g>
</g>
<g>
</g>
<g>
</g>
<g>
</g>
<g>
</g>
<g>
</g>
<g>
</g>
<g>
</g>
<g>
</g>
<g>
</g>
<g>
</g>
<g>
</g>
<g>
</g>
<g>
</g>
<g>
</g>
</svg>
