<?xml version="1.0" encoding="iso-8859-1"?>
<!-- Generator: Adobe Illustrator 19.0.0, SVG Export Plug-In . SVG Version: 6.00 Build 0)  -->
<svg version="1.1" id="Layer_1" xmlns="http://www.w3.org/2000/svg" xmlns:xlink="http://www.w3.org/1999/xlink" x="0px" y="0px"
	 viewBox="0 0 511.998 511.998" style="enable-background:new 0 0 511.998 511.998;" xml:space="preserve">
<g>
	<g>
		<path d="M503.366,132.079h-48.559V99.43c0-9.945-3.874-19.297-10.911-26.333c-7.027-7.027-16.376-10.897-26.319-10.897
			c-0.03,0-0.059,0.002-0.089,0.002H208.813c-20.53,0-37.231,16.702-37.231,37.231v58.569H94.425
			c-20.53,0-37.232,16.702-37.232,37.231v180.106H8.634c-4.768,0-8.634,3.866-8.634,8.634v28.596
			c0,20.53,16.702,37.231,37.231,37.231h208.758c20.53,0,37.231-16.702,37.231-37.231v-58.569h77.156
			c9.943-0.001,19.293-3.876,26.319-10.903c7.04-7.024,10.916-16.373,10.916-26.327v-98.603h77.156
			c9.937,0,19.288-3.868,26.34-10.906c7.024-7.04,10.891-16.389,10.891-26.325v-40.224C512,135.944,508.134,132.079,503.366,132.079
			z M188.849,99.432L188.849,99.432c0-11.008,8.955-19.962,19.962-19.962h0.737c-3.684,5.775-5.829,12.62-5.829,19.962v58.569
			h-14.87V99.432z M74.462,195.231c0-11.008,8.955-19.962,19.963-19.962h0.96c-3.684,5.775-5.829,12.621-5.829,19.962v180.106
			H74.462V195.231z M37.231,432.531c-11.008,0-19.962-8.955-19.962-19.962v-19.962h191.489v19.962c0,7.34,2.134,14.19,5.816,19.962
			H37.231z M234.035,428.518c-4.588-3.446-7.637-8.81-7.956-14.9h7.956V428.518z M234.035,396.35h-8.01v-12.378
			c0.001-4.768-3.865-8.634-8.633-8.634H106.825v-67.092h127.211V396.35z M234.035,290.977H106.825v-87.111h127.211V290.977z
			 M235.056,186.597h-126.24c3.228-6.69,10.059-11.328,17.972-11.328h113.076C237.672,178.705,236.029,182.522,235.056,186.597z
			 M265.952,195.231v217.338c0,9.165-6.217,16.886-14.648,19.222v-236.56c0-11.008,8.955-19.962,19.963-19.962h0.513
			C268.096,181.044,265.952,187.89,265.952,195.231z M348.2,332.554c-4.728-3.653-7.79-9.361-7.79-15.784v-2.157h7.79V332.554z
			 M348.2,297.345h-7.79v-9.172h-17.268v28.596c0,7.341,2.145,14.188,5.829,19.962h-45.75v-83.518h39.926v34.958h17.268V224.05
			h7.786V297.345z M283.22,235.946v-40.714c0-11.008,8.955-19.962,19.963-19.962s19.962,8.955,19.962,19.962v40.714H283.22z
			 M348.2,206.782h-7.786v-11.55c0-20.529-16.702-37.231-37.232-37.231h-82.193v-29.886H348.2V206.782z M348.199,99.432v11.414
			H220.988V99.432c0-11.008,8.955-19.962,19.962-19.962h113.077C350.344,85.244,348.199,92.09,348.199,99.432z M380.345,316.77
			c0,5.334-2.076,10.343-5.852,14.109c-2.537,2.538-5.644,4.288-9.026,5.176V99.432c0-11.008,8.954-19.962,19.962-19.962h0.743
			c-3.683,5.773-5.828,12.619-5.828,19.96L380.345,316.77L380.345,316.77z M397.613,99.43c0-11.008,8.955-19.962,19.963-19.962
			c5.332,0,10.344,2.073,14.109,5.84c3.774,3.774,5.853,8.79,5.853,14.122v48.256h-39.926V99.43z M397.613,200.898v-35.945h39.926
			v15.982c0,7.341,2.145,14.188,5.829,19.962H397.613z M463.8,197.597c-5.411-3.575-8.993-9.704-8.993-16.661v-31.59h8.993V197.597z
			 M494.732,180.937c0,5.331-2.077,10.35-5.833,14.115c-2.237,2.232-4.916,3.854-7.83,4.819v-50.524h13.663V180.937z"/>
	</g>
</g>
<g>
</g>
<g>
</g>
<g>
</g>
<g>
</g>
<g>
</g>
<g>
</g>
<g>
</g>
<g>
</g>
<g>
</g>
<g>
</g>
<g>
</g>
<g>
</g>
<g>
</g>
<g>
</g>
<g>
</g>
</svg>
