<?xml version="1.0" encoding="iso-8859-1"?>
<!-- Generator: Adobe Illustrator 19.0.0, SVG Export Plug-In . SVG Version: 6.00 Build 0)  -->
<svg version="1.1" id="Layer_1" xmlns="http://www.w3.org/2000/svg" xmlns:xlink="http://www.w3.org/1999/xlink" x="0px" y="0px"
	 viewBox="0 0 512.002 512.002" style="enable-background:new 0 0 512.002 512.002;" xml:space="preserve">
<g>
	<g>
		<path d="M208.519,169.566c-48.319,0-87.63,39.31-87.63,87.63V373.44c0,4.938,4.004,8.942,8.942,8.942h157.376
			c4.94,0,8.942-4.004,8.942-8.942V257.196C296.15,208.876,256.839,169.566,208.519,169.566z M159.34,364.496h-20.566V257.195
			c0-19.285,7.87-36.766,20.566-49.404V364.496z M199.577,364.496h-22.353V194.894c6.881-3.471,14.409-5.829,22.353-6.852V364.496z
			 M239.816,364.497h-22.354V188.043c7.945,1.022,15.472,3.381,22.354,6.852V364.497z M278.265,364.496h-20.566V207.791
			c12.696,12.638,20.566,30.117,20.566,49.404V364.496z"/>
	</g>
</g>
<g>
	<g>
		<path d="M503.058,60.475H477.59c-18.003,0-32.648,14.646-32.648,32.649v100.128c0,8.141-6.623,14.764-14.764,14.764h-13.14
			v-36.662c0-4.939-4.003-8.942-8.942-8.942H392.72v-35.767h15.376c4.94,0,8.942-4.004,8.942-8.942V86.107
			c0-4.938-4.003-8.942-8.942-8.942h-11.16V54.51c0-4.938-4.003-8.942-8.942-8.942H29.044c-4.938,0-8.942,4.004-8.942,8.942v22.655
			H8.942C4.004,77.165,0,81.169,0,86.107v31.596c0,4.939,4.004,8.942,8.942,8.942h15.376v298.656c0,4.939,4.004,8.942,8.942,8.942
			h19.942v23.249c0,4.939,4.004,8.942,8.942,8.942h58.474c4.938,0,8.942-4.004,8.942-8.942v-23.249h157.917v23.249
			c0,4.939,4.003,8.942,8.942,8.942h58.474c4.94,0,8.942-4.004,8.942-8.942v-23.249h19.944c4.94,0,8.942-4.004,8.942-8.942V271.503
			h15.376c4.94,0,8.942-4.004,8.942-8.942V225.9h13.14c18.003,0,32.649-14.646,32.649-32.649V93.124
			c0-8.141,6.623-14.764,14.763-14.764h25.468c4.94,0,8.942-4.004,8.942-8.942C512.002,64.479,507.997,60.475,503.058,60.475z
			 M37.987,63.452h341.066v13.713H37.987V63.452z M111.677,448.55H71.087v-14.306h40.589V448.55z M345.952,448.55h-40.589v-14.306
			h40.589V448.55z M374.838,416.359h-0.001H42.203V126.646h332.635V416.359z M17.885,108.761V95.05h381.27v13.711H17.885z
			 M399.155,253.618h-6.434v-73.323h6.434V253.618z"/>
	</g>
</g>
<g>
	<g>
		<path d="M91.381,144.529c-18.736,0-33.979,15.244-33.979,33.979c0,18.736,15.242,33.979,33.979,33.979
			s33.979-15.244,33.979-33.979C125.361,159.772,110.117,144.529,91.381,144.529z M91.381,194.603
			c-8.874,0-16.095-7.221-16.095-16.095c0-8.874,7.219-16.095,16.095-16.095s16.095,7.221,16.095,16.095
			C107.476,187.383,100.256,194.603,91.381,194.603z"/>
	</g>
</g>
<g>
	<g>
		<path d="M325.657,144.529c-18.737,0-33.979,15.244-33.979,33.979c0,18.736,15.242,33.979,33.979,33.979
			s33.979-15.244,33.979-33.979C359.636,159.772,344.394,144.529,325.657,144.529z M325.657,194.603
			c-8.874,0-16.095-7.221-16.095-16.095c0-8.874,7.221-16.095,16.095-16.095c8.874,0,16.095,7.221,16.095,16.095
			C341.751,187.383,334.532,194.603,325.657,194.603z"/>
	</g>
</g>
<g>
</g>
<g>
</g>
<g>
</g>
<g>
</g>
<g>
</g>
<g>
</g>
<g>
</g>
<g>
</g>
<g>
</g>
<g>
</g>
<g>
</g>
<g>
</g>
<g>
</g>
<g>
</g>
<g>
</g>
</svg>
