<?xml version="1.0" encoding="iso-8859-1"?>
<!-- Generator: Adobe Illustrator 19.0.0, SVG Export Plug-In . SVG Version: 6.00 Build 0)  -->
<svg version="1.1" id="Layer_1" xmlns="http://www.w3.org/2000/svg" xmlns:xlink="http://www.w3.org/1999/xlink" x="0px" y="0px"
	 viewBox="0 0 512.001 512.001" style="enable-background:new 0 0 512.001 512.001;" xml:space="preserve">
<g>
	<g>
		<path d="M478.92,291.816h-7.773V8.674c0-4.791-3.883-8.674-8.674-8.674H49.524c-4.792,0-8.674,3.884-8.674,8.674v283.141h-7.769
			c-4.792,0-8.674,3.884-8.674,8.674v44.968c0,4.791,3.883,8.674,8.674,8.674h7.769v149.194c0,4.791,3.883,8.674,8.674,8.674h36.43
			c4.792,0,8.674-3.884,8.674-8.674V354.131h96.314v149.194c0,4.791,3.883,8.674,8.674,8.674c4.792,0,8.674-3.884,8.674-8.674
			v-93.678h95.412v93.678c0,4.791,3.883,8.674,8.674,8.674c4.792,0,8.674-3.884,8.674-8.674V354.131h96.314v149.194
			c0,4.791,3.883,8.674,8.674,8.674h36.431c4.792,0,8.674-3.884,8.674-8.674V354.131h7.773c4.792,0,8.674-3.884,8.674-8.674v-44.968
			C487.594,295.7,483.712,291.816,478.92,291.816z M58.199,17.349h395.601v274.467h-80.466V109.069c0-4.791-3.883-8.674-8.674-8.674
			H147.338c-4.792,0-8.674,3.884-8.674,8.674v182.747H58.199V17.349z M77.28,494.651H58.199V354.135H77.28V494.651z
			 M190.943,336.783H41.755v-27.619h149.187V336.783z M303.704,392.298h-95.412v-12.143h95.412V392.298z M303.705,362.808h-95.412
			V214.169h-0.001c0-6.044,4.917-10.961,10.961-10.961h73.491c6.044,0,10.961,4.917,10.961,10.961V362.808z M321.052,291.816
			v-77.647c0-15.61-12.699-28.31-28.308-28.31h-73.491c-15.609,0-28.31,12.699-28.31,28.31v77.647h-34.931V117.743h199.973v174.072
			H321.052z M453.799,494.651h-19.082V354.135h19.082V494.651z M470.246,336.784H321.053v-27.619h149.193V336.784z"/>
	</g>
</g>
<g>
	<g>
		<path d="M99.563,29.287c-17.183,0-31.161,13.98-31.161,31.162S82.38,91.61,99.563,91.61c17.182,0,31.162-13.98,31.162-31.162
			S116.746,29.287,99.563,29.287z M99.563,74.262c-7.616,0-13.812-6.197-13.812-13.813s6.196-13.813,13.812-13.813
			c7.617,0,13.813,6.196,13.813,13.813S107.18,74.262,99.563,74.262z"/>
	</g>
</g>
<g>
	<g>
		<path d="M203.853,29.287c-17.182,0-31.161,13.978-31.161,31.162s13.978,31.162,31.161,31.162c17.182,0,31.162-13.98,31.162-31.162
			S221.035,29.287,203.853,29.287z M203.853,74.262c-7.616,0-13.812-6.197-13.812-13.813s6.196-13.813,13.812-13.813
			c7.617,0,13.813,6.196,13.813,13.813S211.47,74.262,203.853,74.262z"/>
	</g>
</g>
<g>
	<g>
		<path d="M308.143,29.287c-17.182,0-31.161,13.978-31.161,31.162s13.978,31.162,31.161,31.162c17.182,0,31.162-13.98,31.162-31.162
			S325.325,29.287,308.143,29.287z M308.143,74.262c-7.616,0-13.812-6.197-13.812-13.813s6.196-13.813,13.812-13.813
			c7.617,0,13.813,6.196,13.813,13.813S315.76,74.262,308.143,74.262z"/>
	</g>
</g>
<g>
	<g>
		<path d="M99.563,119.781c-17.182,0-31.161,13.98-31.161,31.162c0,17.182,13.978,31.162,31.161,31.162
			c17.182,0,31.162-13.978,31.162-31.162C130.724,133.76,116.746,119.781,99.563,119.781z M99.563,164.756
			c-7.616,0-13.812-6.196-13.812-13.813s6.196-13.813,13.812-13.813c7.617,0,13.813,6.197,13.813,13.813
			S107.18,164.756,99.563,164.756z"/>
	</g>
</g>
<g>
	<g>
		<path d="M99.563,210.276c-17.182,0-31.161,13.978-31.161,31.162s13.978,31.162,31.161,31.162c17.182,0,31.162-13.98,31.162-31.162
			C130.724,224.255,116.746,210.276,99.563,210.276z M99.563,255.251c-7.616,0-13.812-6.197-13.812-13.813
			s6.196-13.813,13.812-13.813c7.617,0,13.813,6.196,13.813,13.813S107.18,255.251,99.563,255.251z"/>
	</g>
</g>
<g>
	<g>
		<path d="M412.433,29.287c-17.182,0-31.161,13.978-31.161,31.162s13.978,31.162,31.161,31.162s31.162-13.98,31.162-31.162
			S429.615,29.287,412.433,29.287z M412.433,74.262c-7.616,0-13.812-6.197-13.812-13.813s6.196-13.813,13.812-13.813
			c7.617,0,13.813,6.196,13.813,13.813S420.05,74.262,412.433,74.262z"/>
	</g>
</g>
<g>
	<g>
		<path d="M412.433,119.781c-17.182,0-31.161,13.98-31.161,31.162s13.978,31.162,31.161,31.162s31.162-13.978,31.162-31.162
			S429.615,119.781,412.433,119.781z M412.433,164.756c-7.616,0-13.812-6.196-13.812-13.813s6.196-13.813,13.812-13.813
			c7.617,0,13.813,6.197,13.813,13.813S420.05,164.756,412.433,164.756z"/>
	</g>
</g>
<g>
	<g>
		<path d="M412.433,210.276c-17.182,0-31.161,13.978-31.161,31.162c0,17.183,13.978,31.162,31.161,31.162
			s31.162-13.98,31.162-31.162C443.595,224.255,429.615,210.276,412.433,210.276z M412.433,255.251
			c-7.616,0-13.812-6.197-13.812-13.813s6.196-13.813,13.812-13.813c7.617,0,13.813,6.196,13.813,13.813
			S420.05,255.251,412.433,255.251z"/>
	</g>
</g>
<g>
</g>
<g>
</g>
<g>
</g>
<g>
</g>
<g>
</g>
<g>
</g>
<g>
</g>
<g>
</g>
<g>
</g>
<g>
</g>
<g>
</g>
<g>
</g>
<g>
</g>
<g>
</g>
<g>
</g>
</svg>
