<?xml version="1.0" encoding="iso-8859-1"?>
<!-- Generator: Adobe Illustrator 19.0.0, SVG Export Plug-In . SVG Version: 6.00 Build 0)  -->
<svg version="1.1" id="Layer_1" xmlns="http://www.w3.org/2000/svg" xmlns:xlink="http://www.w3.org/1999/xlink" x="0px" y="0px"
	 viewBox="0 0 512 512" style="enable-background:new 0 0 512 512;" xml:space="preserve">
<g>
	<g>
		<path d="M204.034,141.204c-29.771,0-53.992,24.221-53.992,53.992c0,5.197,4.213,9.41,9.41,9.41h89.165
			c5.197,0,9.41-4.213,9.41-9.41C258.027,165.425,233.806,141.204,204.034,141.204z M170.139,185.786
			c4.125-14.84,17.758-25.763,33.896-25.763c16.136,0,29.77,10.923,33.894,25.763H170.139z"/>
	</g>
</g>
<g>
	<g>
		<path d="M199.171,229.707H62.991c-5.197,0-9.41,4.213-9.41,9.41c0,42.733,34.766,77.5,77.501,77.5c42.733,0,77.5-34.766,77.5-77.5
			C208.581,233.92,204.368,229.707,199.171,229.707z M131.082,297.798c-29.153,0-53.409-21.373-57.926-49.27h115.852
			C184.489,276.425,160.233,297.798,131.082,297.798z"/>
	</g>
</g>
<g>
	<g>
		<path d="M504.872,123.988c-47.35-11.838-96.121-17.84-144.958-17.84c-18.539,0-37.248,0.887-55.765,2.618V50.261
			c0-4.317-2.938-8.081-7.128-9.129c-94.825-23.707-195.069-23.707-289.894,0C2.938,42.179,0,45.943,0,50.261v203.447
			c0,83.854,68.22,152.075,152.074,152.075c23.54,0,45.847-5.377,65.76-14.967c10.126,26.405,27.728,49.939,50.4,67.096
			c26.57,20.107,58.272,30.735,91.68,30.735c83.861,0,152.086-68.225,152.086-152.086V133.117
			C512,128.8,509.062,125.036,504.872,123.988z M304.148,253.708v-10.823h37.707c-4.127,14.835-17.76,25.753-33.898,25.753
			c-1.522,0-3.025-0.127-4.514-0.317C303.903,263.511,304.148,258.638,304.148,253.708z M152.074,386.963
			c-73.477,0-133.255-59.778-133.255-133.255v-49.102h79.755c5.197,0,9.41-4.213,9.41-9.41c0-29.771-24.221-53.992-53.992-53.992
			c-13.427,0-25.716,4.938-35.173,13.08V57.656c87.347-20.65,179.162-20.649,266.508,0v196.052
			C285.328,327.186,225.55,386.963,152.074,386.963z M20.098,185.787c4.125-14.841,17.758-25.763,33.896-25.763
			s29.77,10.923,33.896,25.763H20.098z M493.179,224.065h-79.76c-5.198,0-9.41,4.213-9.41,9.41
			c0,29.772,24.221,53.992,53.991,53.992c13.431,0,25.721-4.941,35.179-13.085v62.182c0.001,73.481-59.783,133.264-133.265,133.264
			c-29.275,0-57.05-9.31-80.324-26.922c-20.624-15.608-36.448-37.229-45.137-61.425c32.97-21.33,57.194-55.064,66.028-94.544
			c2.464,0.341,4.958,0.523,7.475,0.523c29.773,0,53.996-24.217,53.996-53.982c0-5.197-4.212-9.41-9.41-9.41h-48.395v-96.403
			c18.506-1.787,37.225-2.694,55.765-2.694c44.851,0,89.648,5.228,133.266,15.544V224.065z M491.896,242.882
			c-4.125,14.841-17.758,25.763-33.896,25.763s-29.77-10.923-33.894-25.763H491.896z"/>
	</g>
</g>
<g>
	<g>
		<path d="M380.913,291.324c-42.734,0-77.501,34.766-77.501,77.5c0,2.963,1.395,5.754,3.768,7.53
			c2.371,1.778,5.441,2.331,8.286,1.501c42.816-12.528,88.077-12.529,130.893,0c0.868,0.253,1.758,0.379,2.642,0.379
			c2.011,0,3.996-0.645,5.642-1.879c2.372-1.777,3.768-4.567,3.768-7.53C458.413,326.09,423.646,291.324,380.913,291.324z
			 M323.586,356.265c5.766-26.343,29.281-46.121,57.327-46.121c28.046,0,51.561,19.778,57.326,46.121
			C400.486,347.427,361.338,347.428,323.586,356.265z"/>
	</g>
</g>
<g>
</g>
<g>
</g>
<g>
</g>
<g>
</g>
<g>
</g>
<g>
</g>
<g>
</g>
<g>
</g>
<g>
</g>
<g>
</g>
<g>
</g>
<g>
</g>
<g>
</g>
<g>
</g>
<g>
</g>
</svg>
