<?xml version="1.0" encoding="iso-8859-1"?>
<!-- Generator: Adobe Illustrator 19.0.0, SVG Export Plug-In . SVG Version: 6.00 Build 0)  -->
<svg version="1.1" id="Layer_1" xmlns="http://www.w3.org/2000/svg" xmlns:xlink="http://www.w3.org/1999/xlink" x="0px" y="0px"
	 viewBox="0 0 512 512" style="enable-background:new 0 0 512 512;" xml:space="preserve">
<g>
	<g>
		<path d="M459.875,251.176l-0.268-0.174c-0.012-0.008-0.024-0.015-0.035-0.023c-51.068-33.326-89.991-81.833-112.562-140.28
			c-0.643-1.661-1.31-3.188-1.988-4.542c-14.913-29.77-37.709-54.907-65.922-72.692c-29.005-18.285-62.545-27.95-96.991-27.95
			C81.692,5.514,0,87.206,0,187.621v308.804c0,5.556,4.503,10.06,10.06,10.06h491.88c5.557,0,10.06-4.504,10.06-10.06V346.447
			C512,307.817,492.537,272.216,459.875,251.176z M89.433,486.365H64.837V416.05h24.596V486.365z M134.15,486.365h-24.596V416.05
			h24.596V486.365z M178.865,486.365H154.27V416.05h24.595V486.365z M223.582,486.365h-24.596V416.05h24.596V486.365z
			 M268.299,486.365h-24.596V416.05h24.596V486.365z M313.014,486.365h-24.596V416.05h24.596V486.365z M357.731,486.365h-24.596
			V416.05h24.596V486.365z M402.448,486.365h-24.596V416.05h24.596V486.365z M447.164,486.365h-24.596V416.05h24.596V486.365z
			 M491.88,486.365h-24.595v-80.375c0-5.556-4.503-10.06-10.06-10.06H54.777c-5.557,0-10.06,4.504-10.06,10.06v80.375H20.12V385.769
			H491.88V486.365z M199.667,365.648V341.45h112.667v24.198H199.667z M491.881,365.65H332.454v-34.258
			c0-5.556-4.503-10.06-10.06-10.06H189.607c-5.557,0-10.06,4.504-10.06,10.06v34.258H20.12V187.621
			c0-89.319,72.668-161.987,161.989-161.987c61.725,0,117.256,34.308,144.923,89.534c0.392,0.781,0.798,1.716,1.209,2.779
			c24.1,62.407,65.71,114.235,120.336,149.88l0.349,0.227c0.009,0.005,0.107,0.07,0.117,0.076
			c26.824,17.279,42.84,46.557,42.84,78.318V365.65z"/>
	</g>
</g>
<g>
</g>
<g>
</g>
<g>
</g>
<g>
</g>
<g>
</g>
<g>
</g>
<g>
</g>
<g>
</g>
<g>
</g>
<g>
</g>
<g>
</g>
<g>
</g>
<g>
</g>
<g>
</g>
<g>
</g>
</svg>
