<?xml version="1.0" encoding="iso-8859-1"?>
<!-- Generator: Adobe Illustrator 19.0.0, SVG Export Plug-In . SVG Version: 6.00 Build 0)  -->
<svg version="1.1" id="Layer_1" xmlns="http://www.w3.org/2000/svg" xmlns:xlink="http://www.w3.org/1999/xlink" x="0px" y="0px"
	 viewBox="0 0 512 512" style="enable-background:new 0 0 512 512;" xml:space="preserve">
<g>
	<g>
		<path d="M228.681,57.249c-6.83,0-13.365,1.779-19.096,5.121c-5.997-5.185-13.747-8.18-21.843-8.18
			c-18.413,0-33.394,14.981-33.394,33.394s14.979,33.394,33.394,33.394c5.296,0,9.588-4.293,9.588-9.587
			c0-5.295-4.291-9.588-9.588-9.588c-7.84,0-14.219-6.379-14.219-14.22s6.379-14.219,14.219-14.219
			c5.067,0,9.641,2.624,12.237,7.021c1.521,2.577,4.158,4.295,7.129,4.647c2.966,0.35,5.937-0.704,8.016-2.854
			c3.591-3.71,8.404-5.753,13.555-5.753c10.404,0,18.868,8.465,18.868,18.868c0,5.295,4.291,9.588,9.587,9.588
			c5.296,0,9.588-4.293,9.588-9.588C266.724,74.315,249.657,57.249,228.681,57.249z"/>
	</g>
</g>
<g>
	<g>
		<path d="M477.937,254.974l-6.342-38.829c-0.758-4.637-4.764-8.042-9.462-8.042h-9.86l-8.033-30.321
			c-1.113-4.204-4.919-7.133-9.268-7.133h-33.88l2.448-26.777c6.613-8.542,10.222-19.015,10.222-29.914
			c0-21.801-13.954-40.252-33.843-46.593c0.128-1.295,0.192-2.6,0.192-3.913c0-21.715-17.667-39.382-39.383-39.382
			c-6.192,0-12.163,1.418-17.545,4.1c-8.921-13.447-24.134-21.895-40.806-21.895c-10.404,0-20.283,3.23-28.485,9.126
			C246.572,5.934,235.105,0,222.697,0c-11.94,0-23.051,5.473-30.415,14.384c-7.926-5.237-17.295-8.111-26.972-8.111
			c-16.668,0-31.879,8.45-40.797,21.899c-5.384-2.685-11.355-4.103-17.543-4.103c-21.715,0-39.382,17.667-39.382,39.382
			c0,1.313,0.064,2.618,0.19,3.91c-19.89,6.338-33.843,24.792-33.843,46.595c0,10.896,3.607,21.371,10.218,29.918l34.639,359.454
			c0.474,4.916,4.606,8.668,9.544,8.668L427.005,512c4.988,0,9.143-3.825,9.556-8.796l19.645-237.099h12.267
			c2.812,0,5.484-1.235,7.306-3.379C477.603,260.584,478.391,257.749,477.937,254.974z M427.595,189.823l4.842,18.279H258.764
			l4.842-18.279H427.595z M274.927,170.647l1.929-20.534h52.747l-2.557,20.534H274.927z M346.283,170.648l2.557-20.534h34.875
			l-1.878,20.534H346.283z M53.115,113.957c0-13.523,8.823-24.919,21.292-28.549c4.865,6.767,13.401,13.751,25.835,13.751
			c1.494,0,3.046-0.101,4.653-0.316c5.248-0.699,8.936-5.521,8.236-10.77c-0.701-5.25-5.552-8.934-10.771-8.236
			c-9.526,1.268-13.343-6.853-14.028-8.542c-0.014-0.034-0.032-0.066-0.045-0.102c-0.009-0.022-0.014-0.046-0.023-0.068
			c-0.993-2.429-1.498-5.011-1.498-7.675c0-11.142,9.065-20.207,20.207-20.207c5.406,0,10.496,2.116,14.329,5.957
			c2.338,2.343,5.717,3.313,8.942,2.571c3.224-0.744,5.837-3.097,6.912-6.227c4.13-12.02,15.446-20.097,28.155-20.097
			c8.496,0,16.603,3.645,22.24,9.999c2.236,2.521,5.629,3.684,8.945,3.06c3.312-0.623,6.053-2.939,7.221-6.1
			c2.924-7.914,10.551-13.232,18.981-13.232c8.932,0,16.914,5.993,19.409,14.576c1.006,3.458,3.864,6.062,7.403,6.739
			c3.535,0.674,7.156-0.685,9.369-3.526c5.698-7.318,14.265-11.515,23.503-11.515c12.717,0,24.036,8.076,28.167,20.097
			c1.076,3.131,3.692,5.485,6.917,6.228c3.228,0.743,6.608-0.234,8.944-2.58c3.818-3.836,8.905-5.949,14.321-5.949
			c11.143,0,20.208,9.065,20.208,20.207c0,2.645-0.508,5.227-1.511,7.675c-1.154,2.82-0.9,6.021,0.685,8.622
			c1.586,2.603,4.314,4.295,7.35,4.561c15.21,1.332,27.125,14.354,27.125,29.647c0,6.128-1.9,12.021-5.36,16.983H58.469
			C55.013,125.976,53.115,120.083,53.115,113.957z M97.047,492.821L64.023,150.113h34.436l28.352,342.708H97.047z M146.05,492.821
			l-28.352-342.708h56.164l21.79,342.708H146.05z M214.867,492.821l-21.789-342.708h64.584l-1.933,20.576
			c-4.137,0.216-7.699,3.05-8.771,7.091l-8.033,30.321h-9.86c-4.699,0-8.705,3.405-9.462,8.042l-6.342,38.829
			c-0.453,2.776,0.336,5.612,2.158,7.754c1.822,2.144,4.493,3.379,7.306,3.379h12.267l18.785,226.716H214.867z M424.88,411.967
			h-47.637c-18.679,0-33.876-15.197-33.876-33.876c0-9.056,3.523-17.56,9.93-23.957c6.385-6.397,14.89-9.919,23.946-9.919h53.251
			L424.88,411.967z M432.084,325.04h-54.84c-14.184,0-27.507,5.521-37.505,15.534c-10.025,10.008-15.546,23.331-15.546,37.516
			c0,29.252,23.799,53.051,53.051,53.051h46.048l-5.111,61.683h-39.557v-0.004H273.018l-18.785-226.716h182.732L432.084,325.04z
			 M447.381,246.932H243.819h-9.814l3.21-19.654h9.09h198.59h9.09l3.21,19.654H447.381z"/>
	</g>
</g>
<g>
</g>
<g>
</g>
<g>
</g>
<g>
</g>
<g>
</g>
<g>
</g>
<g>
</g>
<g>
</g>
<g>
</g>
<g>
</g>
<g>
</g>
<g>
</g>
<g>
</g>
<g>
</g>
<g>
</g>
</svg>
