<?xml version="1.0" encoding="iso-8859-1"?>
<!-- Generator: Adobe Illustrator 19.0.0, SVG Export Plug-In . SVG Version: 6.00 Build 0)  -->
<svg version="1.1" id="Layer_1" xmlns="http://www.w3.org/2000/svg" xmlns:xlink="http://www.w3.org/1999/xlink" x="0px" y="0px"
	 viewBox="0 0 511.999 511.999" style="enable-background:new 0 0 511.999 511.999;" xml:space="preserve">
<g>
	<g>
		<path d="M374.474,225.9l-9.955-1.211V72.901h19.474c4.868,0,8.813-3.946,8.813-8.813v-28.3c0-4.867-3.945-8.813-8.813-8.813
			H281.266V8.813c0-4.867-3.945-8.813-8.813-8.813h-32.901c-4.868,0-8.813,3.946-8.813,8.813v18.162H128.011
			c-4.868,0-8.813,3.946-8.813,8.813v28.3c0,4.867,3.945,8.813,8.813,8.813h19.475v151.788l-9.955,1.211
			c-13.517,1.645-23.711,13.153-23.711,26.771v59.8c0,14.199,10.888,25.828,24.782,26.474c7.166,0.344,14.005-2.208,19.202-7.168
			c5.121-4.887,8.058-11.749,8.058-18.824v-34.541l25.451-4.449V485.53c0,14.449,11.552,26.323,25.752,26.467
			c0.09,0.001,0.181,0.001,0.271,0.001c6.947,0,13.469-2.703,18.391-7.625c4.919-4.916,7.626-11.449,7.626-18.397v-76.805
			c0-7.188,5.599-13.106,12.481-13.192c3.455-0.019,6.681,1.271,9.109,3.699c2.385,2.385,3.699,5.561,3.699,8.944v76.913
			c0,14.472,11.575,26.342,25.801,26.46c0.075,0.001,0.149,0.001,0.224,0.001c6.961,0,13.488-2.707,18.391-7.626
			c4.917-4.917,7.625-11.451,7.625-18.396V273.967l25.45,4.449v34.057c0,14.199,10.887,25.828,24.781,26.474
			c7.181,0.343,14.006-2.209,19.203-7.168c5.121-4.888,8.058-11.749,8.058-18.824v-60.284
			C398.184,239.054,387.991,227.545,374.474,225.9z M136.825,55.275V44.6h102.729c4.868,0,8.813-3.946,8.813-8.813V17.625h15.275
			v18.162c0,4.867,3.945,8.813,8.813,8.813h102.727v10.675H272.454c-4.868,0-8.813,3.946-8.813,8.813v18.164h-15.275V64.088
			c0-4.867-3.945-8.813-8.813-8.813H136.825z M165.114,72.901h65.627v18.163c0,4.867,3.945,8.813,8.813,8.813h7.638v75.076
			c-22.188,3.672-39.828,20.956-44.034,42.961l-38.044,4.631V72.901z M247.191,192.934v27.075c0,4.867,3.945,8.813,8.813,8.813
			c4.868,0,8.813-3.946,8.813-8.813v-27.075c15.709,3.946,27.377,18.183,27.377,35.099c0,19.954-16.234,36.189-36.189,36.189
			s-36.189-16.234-36.189-36.189C219.815,211.117,231.483,196.879,247.191,192.934z M264.817,174.952V99.877h7.638
			c4.868,0,8.813-3.946,8.813-8.813V72.901h65.628v149.644h-0.001l-38.044-4.631C304.645,195.909,287.004,178.624,264.817,174.952z
			 M377.957,319.026c-1.678,1.6-3.891,2.419-6.214,2.312c-4.399-0.204-7.977-4.183-7.977-8.868v-41.463
			c0-4.282-3.077-7.944-7.296-8.681l-43.075-7.528c-2.562-0.447-5.195,0.261-7.186,1.934c-1.992,1.673-3.143,4.144-3.143,6.747
			v222.497c0,2.237-0.874,4.344-2.473,5.943c-1.593,1.6-3.718,2.435-5.996,2.452c-4.589-0.039-8.323-4.002-8.323-8.836v-76.911
			c0-8.091-3.148-15.694-8.863-21.408c-5.816-5.815-13.517-8.978-21.791-8.86c-16.479,0.206-29.887,14.029-29.887,30.816v76.805
			c0,2.238-0.874,4.345-2.464,5.934c-1.591,1.591-3.695,2.463-5.935,2.463c-0.028,0-0.058,0-0.087,0
			c-4.579-0.047-8.305-4.014-8.305-8.843V263.48c0-2.603-1.15-5.073-3.143-6.747c-1.992-1.674-4.624-2.379-7.186-1.934
			l-43.076,7.528c-4.218,0.737-7.296,4.399-7.296,8.681v41.946c0,2.315-0.924,4.471-2.603,6.073
			c-1.677,1.599-3.86,2.421-6.212,2.312c-4.398-0.204-7.977-4.183-7.977-8.868v-59.8c0-4.718,3.532-8.705,8.215-9.274l63.083-7.679
			c3.741,26.045,26.192,46.13,53.257,46.13s49.515-20.085,53.257-46.13l63.083,7.679c4.682,0.57,8.213,4.557,8.213,9.274v60.284
			h0.002C380.559,315.27,379.635,317.426,377.957,319.026z"/>
	</g>
</g>
<g>
</g>
<g>
</g>
<g>
</g>
<g>
</g>
<g>
</g>
<g>
</g>
<g>
</g>
<g>
</g>
<g>
</g>
<g>
</g>
<g>
</g>
<g>
</g>
<g>
</g>
<g>
</g>
<g>
</g>
</svg>
