<?xml version="1.0" encoding="iso-8859-1"?>
<!-- Generator: Adobe Illustrator 19.0.0, SVG Export Plug-In . SVG Version: 6.00 Build 0)  -->
<svg version="1.1" id="Layer_1" xmlns="http://www.w3.org/2000/svg" xmlns:xlink="http://www.w3.org/1999/xlink" x="0px" y="0px"
	 viewBox="0 0 512 512" style="enable-background:new 0 0 512 512;" xml:space="preserve">
<g>
	<g>
		<path d="M256.001,38.057c-120.175,0-217.943,97.769-217.943,217.943c0,120.174,97.769,217.943,217.943,217.943
			s217.943-97.769,217.943-217.943S376.174,38.057,256.001,38.057z M443.516,190.319H240.311l72.08-124.842
			C373.552,83.61,422.485,130.45,443.516,190.319z M282.804,209.573l26.804,46.426l-26.804,46.426h-53.607l-26.804-46.426
			l26.804-46.426H282.804z M255.999,57.312c12.601,0,24.927,1.193,36.882,3.447L191.275,236.745l-72.026-124.751
			C154.898,78.125,203.063,57.312,255.999,57.312z M57.312,255.999c0-49.414,18.137-94.668,48.098-129.468l101.552,175.894H62.802
			C59.222,287.526,57.312,271.983,57.312,255.999z M68.484,321.681h203.203L199.61,446.524
			C138.448,428.389,89.515,381.55,68.484,321.681z M256.002,454.688c-12.602,0-24.927-1.194-36.882-3.447l101.606-175.986
			l72.026,124.751C357.104,433.875,308.939,454.688,256.002,454.688z M406.59,385.467L305.038,209.573h144.16
			c3.58,14.9,5.49,30.443,5.49,46.426C454.688,305.414,436.551,350.668,406.59,385.467z"/>
	</g>
</g>
<g>
	<g>
		<path d="M256.001,0C114.841,0,0,114.841,0,255.999C0,397.159,114.841,512,256.001,512C397.159,512,512,397.159,512,255.999
			C512,114.841,397.159,0,256.001,0z M256.001,492.745c-130.542,0-236.745-106.203-236.745-236.745S125.459,19.255,256.001,19.255
			c130.541,0,236.744,106.203,236.744,236.744S386.541,492.745,256.001,492.745z"/>
	</g>
</g>
<g>
</g>
<g>
</g>
<g>
</g>
<g>
</g>
<g>
</g>
<g>
</g>
<g>
</g>
<g>
</g>
<g>
</g>
<g>
</g>
<g>
</g>
<g>
</g>
<g>
</g>
<g>
</g>
<g>
</g>
</svg>
