<?xml version="1.0" encoding="iso-8859-1"?>
<!-- Generator: Adobe Illustrator 19.0.0, SVG Export Plug-In . SVG Version: 6.00 Build 0)  -->
<svg version="1.1" id="Layer_1" xmlns="http://www.w3.org/2000/svg" xmlns:xlink="http://www.w3.org/1999/xlink" x="0px" y="0px"
	 viewBox="0 0 512 512" style="enable-background:new 0 0 512 512;" xml:space="preserve">
<g>
	<g>
		<path d="M467.175,340.604c-11.724-15.19-14.948-34.711-8.627-52.219c8.714-24.13,12.996-49.493,12.726-75.386
			c-0.589-56.563-23.134-109.854-63.483-150.055c-40.35-40.2-93.723-62.552-150.292-62.939
			c-57.795-0.408-112.212,21.812-153.207,62.528c-41,40.721-63.579,94.969-63.579,152.753c0,25.101,4.286,49.699,12.74,73.11
			c6.321,17.499,3.094,37.017-8.631,52.21c-11.181,14.488-16.753,32.587-15.692,50.961c2.234,38.693,33.108,69.435,71.816,71.511
			c12.121,0.648,24.093-1.585,34.987-6.411v28.545c0,4.479,2.921,8.435,7.203,9.752C180.054,506.321,218.026,512,255.999,512
			s75.946-5.679,112.864-17.036c4.281-1.317,7.204-5.273,7.204-9.752v-28.545c10.894,4.824,22.863,7.06,34.987,6.411
			c38.707-2.075,69.582-32.818,71.816-71.51C483.93,373.194,478.356,355.095,467.175,340.604z M462.495,390.391
			c-1.608,27.839-24.685,50.816-52.535,52.309c-12.064,0.649-23.941-2.615-33.894-9.238v-22.957c0-5.635-4.567-10.204-10.204-10.204
			s-10.204,4.569-10.204,10.204v67.09c-11.42,3.26-22.94,5.937-34.522,8.057v-31.202c0-5.635-4.567-10.204-10.204-10.204
			c-5.637,0-10.204,4.569-10.204,10.204v34.349c-11.476,1.433-22.995,2.306-34.524,2.633v-36.981
			c0-5.635-4.567-10.204-10.204-10.204s-10.204,4.569-10.204,10.204v36.981c-11.529-0.326-23.047-1.199-34.523-2.631v-34.35
			c0-5.635-4.569-10.204-10.204-10.204s-10.204,4.569-10.204,10.204v31.203c-11.583-2.121-23.106-4.799-34.526-8.058v-67.09
			c0-5.635-4.569-10.204-10.204-10.204c-5.635,0-10.204,4.569-10.204,10.204v22.957c-9.948,6.62-21.806,9.885-33.894,9.237
			c-27.851-1.494-50.928-24.469-52.535-52.309c-0.778-13.466,3.298-26.719,11.476-37.316c16.009-20.745,20.371-47.516,11.669-71.61
			c-7.649-21.18-11.526-43.445-11.526-66.178c0-52.306,20.439-101.413,57.554-138.273c37.109-36.856,86.305-56.997,138.688-56.6
			c105.6,0.721,192.406,87.21,193.504,192.798c0.245,23.45-3.628,46.41-11.513,68.243c-8.702,24.104-4.341,50.878,11.665,71.619
			C459.197,363.672,463.272,376.924,462.495,390.391z"/>
	</g>
</g>
<g>
	<g>
		<path d="M438.184,362.982c-3.442-4.465-9.85-5.291-14.31-1.848c-4.461,3.442-5.29,9.85-1.846,14.311
			c2.869,3.72,4.185,8.038,3.909,12.832c-0.548,9.5-8.427,17.342-17.937,17.853c-5.627,0.302-9.945,5.107-9.643,10.736
			c0.291,5.442,4.794,9.658,10.179,9.658c0.185,0,0.369-0.004,0.555-0.015c19.732-1.057,36.079-17.333,37.217-37.055
			C447.017,377.195,442.281,368.292,438.184,362.982z"/>
	</g>
</g>
<g>
	<g>
		<path d="M398.468,107.92c-22.489-29.696-54.268-52.139-89.481-63.194c-5.377-1.686-11.103,1.303-12.792,6.679
			c-1.688,5.375,1.303,11.103,6.679,12.793c31.203,9.797,59.374,29.7,79.326,56.045c20.613,27.218,31.696,59.499,32.047,93.353
			c0.071,6.613-0.268,13.268-1.005,19.778c-0.635,5.6,3.39,10.653,8.989,11.287c0.391,0.045,0.778,0.065,1.162,0.065
			c5.121,0,9.536-3.846,10.125-9.056c0.831-7.341,1.215-14.84,1.136-22.288C434.256,175.121,421.744,138.653,398.468,107.92z"/>
	</g>
</g>
<g>
	<g>
		<path d="M219.498,272.809c-5.635,0-10.204,4.569-10.204,10.204c0,19.816-16.122,35.939-35.939,35.939
			s-35.939-16.122-35.939-35.939c0-5.635-4.569-10.204-10.204-10.204c-5.635,0-10.204,4.569-10.204,10.204
			c0,31.069,25.277,56.347,56.347,56.347s56.347-25.278,56.347-56.347C229.702,277.377,225.134,272.809,219.498,272.809z"/>
	</g>
</g>
<g>
	<g>
		<path d="M384.786,272.809c-5.637,0-10.204,4.569-10.204,10.204c0,19.816-16.123,35.939-35.939,35.939
			s-35.938-16.122-35.938-35.939c0-5.635-4.567-10.204-10.204-10.204c-5.637,0-10.204,4.569-10.204,10.204
			c0,31.069,25.277,56.347,56.346,56.347c31.07,0,56.347-25.277,56.347-56.347C394.989,277.377,390.422,272.809,384.786,272.809z"/>
	</g>
</g>
<g>
	<g>
		<path d="M299.866,361.016l-36.649-36.651c-3.986-3.985-10.446-3.985-14.43,0l-36.649,36.649
			c-6.208,6.208-9.627,14.461-9.627,23.24c0,8.779,3.419,17.032,9.627,23.24c6.208,6.208,14.461,9.626,23.24,9.626
			c7.596,0,14.8-2.559,20.624-7.271c5.824,4.711,13.028,7.271,20.624,7.271c8.779,0,17.032-3.419,23.239-9.626
			c6.208-6.208,9.628-14.461,9.628-23.24C309.493,375.475,306.073,367.221,299.866,361.016z M285.434,393.063
			c-2.352,2.352-5.48,3.649-8.809,3.649s-6.456-1.295-8.809-3.649c-3.156-3.156-7.352-4.894-11.816-4.894s-8.658,1.737-11.815,4.894
			c-4.857,4.857-12.762,4.857-17.619,0c-2.352-2.352-3.649-5.482-3.649-8.809s1.297-6.457,3.649-8.809l29.433-29.433l29.433,29.435
			c2.352,2.352,3.65,5.481,3.65,8.809C289.083,387.583,287.788,390.709,285.434,393.063z"/>
	</g>
</g>
<g>
	<g>
		<circle cx="275.87" cy="47.999" r="10.204"/>
	</g>
</g>
<g>
</g>
<g>
</g>
<g>
</g>
<g>
</g>
<g>
</g>
<g>
</g>
<g>
</g>
<g>
</g>
<g>
</g>
<g>
</g>
<g>
</g>
<g>
</g>
<g>
</g>
<g>
</g>
<g>
</g>
</svg>
