<?xml version="1.0" encoding="iso-8859-1"?>
<!-- Generator: Adobe Illustrator 19.0.0, SVG Export Plug-In . SVG Version: 6.00 Build 0)  -->
<svg version="1.1" id="Layer_1" xmlns="http://www.w3.org/2000/svg" xmlns:xlink="http://www.w3.org/1999/xlink" x="0px" y="0px"
	 viewBox="0 0 512 512" style="enable-background:new 0 0 512 512;" xml:space="preserve">
<g>
	<g>
		<path d="M461.912,132.957c-4.118-1.988-9.06-0.259-11.047,3.855L322.959,401.836h-16l-40.373-50.563l178.34-223.353
			c2.85-3.571,2.268-8.776-1.304-11.628c-3.57-2.851-8.776-2.268-11.628,1.303L255.999,338.014L81.392,119.34
			c-2.85-3.57-8.056-4.154-11.628-1.303c-3.571,2.85-4.154,8.057-1.303,11.628l176.95,221.611l-40.371,50.562h-15.999
			L61.135,136.811c-1.987-4.116-6.933-5.842-11.046-3.855c-4.115,1.986-5.841,6.932-3.855,11.046l124.435,257.833h-10.434
			c-4.569,0-8.273,3.704-8.273,8.273v23.165H77.301c-4.569,0-8.273,3.704-8.273,8.273c0,4.569,3.704,8.273,8.273,8.273h357.396
			c4.57,0,8.273-3.704,8.273-8.273c0-4.569-3.703-8.273-8.273-8.273h-74.661v-23.165c0-4.569-3.703-8.273-8.273-8.273h-10.433
			l124.435-257.833C467.753,139.889,466.026,134.942,461.912,132.957z M255.999,364.533l29.785,37.303h-59.57L255.999,364.533z
			 M343.492,418.382v14.892H168.508v-14.892H343.492z"/>
	</g>
</g>
<g>
	<g>
		<path d="M88.716,85.778L85.8,81.761c-7.444-10.253-18.432-16.994-30.946-18.982c-12.51-1.988-25.05,1.017-35.303,8.461
			C-1.615,86.605-6.334,116.324,9.03,137.488l2.917,4.017c1.618,2.229,4.142,3.414,6.702,3.414c1.684,0,3.385-0.513,4.852-1.578
			l63.38-46.008c1.776-1.288,2.966-3.23,3.31-5.397C90.536,89.769,90.006,87.553,88.716,85.778z M20.619,124.988
			c-7.753-13.501-4.226-31.01,8.653-40.358c5.469-3.97,11.813-5.88,18.104-5.88c8.523,0,16.945,3.509,22.949,10.157L20.619,124.988z
			"/>
	</g>
</g>
<g>
	<g>
		<path d="M492.449,71.241c-10.253-7.444-22.794-10.448-35.304-8.459c-12.513,1.987-23.503,8.729-30.946,18.982l-2.917,4.017
			c-1.29,1.775-1.819,3.991-1.476,6.157c0.345,2.166,1.535,4.109,3.31,5.397l63.379,46.008c1.468,1.066,3.168,1.578,4.854,1.578
			c2.558,0,5.083-1.184,6.701-3.414l2.917-4.017C518.334,116.325,513.615,86.606,492.449,71.241z M491.383,124.989l-49.708-36.084
			c4.711-5.229,11.018-8.665,18.066-9.784c8.152-1.293,16.311,0.663,22.988,5.51c6.677,4.847,11.066,12.003,12.36,20.151
			C496.207,111.83,494.895,118.891,491.383,124.989z"/>
	</g>
</g>
<g>
</g>
<g>
</g>
<g>
</g>
<g>
</g>
<g>
</g>
<g>
</g>
<g>
</g>
<g>
</g>
<g>
</g>
<g>
</g>
<g>
</g>
<g>
</g>
<g>
</g>
<g>
</g>
<g>
</g>
</svg>
