<?xml version="1.0" encoding="iso-8859-1"?>
<!-- Generator: Adobe Illustrator 19.0.0, SVG Export Plug-In . SVG Version: 6.00 Build 0)  -->
<svg version="1.1" id="Layer_1" xmlns="http://www.w3.org/2000/svg" xmlns:xlink="http://www.w3.org/1999/xlink" x="0px" y="0px"
	 viewBox="0 0 512.001 512.001" style="enable-background:new 0 0 512.001 512.001;" xml:space="preserve">
<g>
	<g>
		<path d="M307.503,67.353c-5.607-10.524-14.977-18.234-26.383-21.71c-23.544-7.175-48.539,6.142-55.716,29.686
			c-3.476,11.406-2.302,23.484,3.304,34.006c5.606,10.522,14.977,18.235,26.383,21.712c4.321,1.317,8.691,1.943,12.99,1.943
			c19.128,0,36.866-12.406,42.726-31.63C314.283,89.954,313.11,77.877,307.503,67.353z M280.452,111.52
			c-6.189,3.299-13.294,3.99-20.005,1.943c-2.526-0.77-4.88-1.893-7.012-3.323c7.028-2.015,14.246-3.448,21.582-4.275
			c4.403-0.5,8.903-0.772,13.37-0.822C286.227,107.67,283.547,109.872,280.452,111.52z M272.951,87.599
			c-10.388,1.172-20.577,3.421-30.408,6.682c-1.04-4.447-0.924-9.106,0.444-13.593c3.447-11.309,13.88-18.606,25.133-18.606
			c2.528,0,5.101,0.369,7.642,1.143c6.709,2.044,12.221,6.58,15.52,12.771c1.799,3.376,2.793,7.026,3.019,10.733
			C287.219,86.519,279.979,86.8,272.951,87.599z"/>
	</g>
</g>
<g>
	<g>
		<path d="M474.041,368.376l-38.794-166.213c-6.061-25.969-18.901-49.73-37.18-68.951C391.701,75.128,351.468,24.322,293.046,6.516
			c-72.494-22.094-150.088,13.588-180.498,83.001L44.059,245.845c-12.068,27.546-11.783,59.014,0.782,86.337
			c12.564,27.323,36.268,48.021,65.034,56.789l29.528,9.001l-0.039,8.106c-0.145,30.075,12.606,58.85,34.983,78.945
			c19.431,17.45,44.591,26.98,70.447,26.98c3.916,0,7.849-0.219,11.779-0.662l126.61-14.273
			c29.889-3.367,56.98-19.391,74.324-43.962C474.848,428.538,480.873,397.656,474.041,368.376z M115.235,371.387
			c-23.751-7.238-43.321-24.328-53.694-46.885c-10.373-22.558-10.608-48.539-0.645-71.28l68.489-156.327
			c21.351-48.735,69.22-78.51,120.085-78.51c12.673,0,25.537,1.849,38.219,5.715c63.576,19.377,102.606,83.312,90.787,148.718
			l-30.352,167.949c-4.416,24.433-19.103,45.867-40.295,58.803s-46.968,16.203-70.716,8.965L115.235,371.387z M442.49,442.504
			c-14.321,20.288-36.687,33.518-61.367,36.299l-126.609,14.271c-24.673,2.777-49.414-5.141-67.886-21.729
			c-18.475-16.591-29.003-40.349-28.883-65.18l0.012-2.6l73.994,22.553c10.049,3.064,20.398,4.573,30.706,4.573
			c19.196,0,38.247-5.237,54.947-15.433c25.668-15.669,43.457-41.629,48.805-71.224l30.351-167.95
			c0.801-4.436,1.392-8.865,1.789-13.277c8.877,13.157,15.343,27.885,18.996,43.535l38.794,166.213
			C461.782,396.727,456.807,422.223,442.49,442.504z"/>
	</g>
</g>
<g>
	<g>
		<path d="M288.795,220.857l-121.878-37.148c-4.854-1.482-9.991,1.256-11.471,6.112c-1.479,4.854,1.257,9.989,6.112,11.47
			l121.878,37.148c0.893,0.272,1.795,0.402,2.682,0.402c3.937,0,7.58-2.551,8.789-6.513
			C296.387,227.473,293.651,222.337,288.795,220.857z"/>
	</g>
</g>
<g>
	<g>
		<path d="M275.85,262.593l-121.878-37.148c-4.854-1.482-9.991,1.257-11.471,6.112s1.256,9.991,6.112,11.471l121.878,37.148
			c0.893,0.272,1.795,0.401,2.682,0.401c3.937,0,7.58-2.551,8.789-6.513C283.442,269.209,280.706,264.073,275.85,262.593z"/>
	</g>
</g>
<g>
</g>
<g>
</g>
<g>
</g>
<g>
</g>
<g>
</g>
<g>
</g>
<g>
</g>
<g>
</g>
<g>
</g>
<g>
</g>
<g>
</g>
<g>
</g>
<g>
</g>
<g>
</g>
<g>
</g>
</svg>
