<?xml version="1.0" encoding="iso-8859-1"?>
<!-- Generator: Adobe Illustrator 19.0.0, SVG Export Plug-In . SVG Version: 6.00 Build 0)  -->
<svg version="1.1" id="Layer_1" xmlns="http://www.w3.org/2000/svg" xmlns:xlink="http://www.w3.org/1999/xlink" x="0px" y="0px"
	 viewBox="0 0 512.001 512.001" style="enable-background:new 0 0 512.001 512.001;" xml:space="preserve">
<g>
	<g>
		<path d="M506.788,130.907L259.017,33.261c-1.94-0.764-4.095-0.764-6.034,0L5.212,130.907c-3.678,1.449-5.805,5.308-5.067,9.191
			c0.737,3.883,4.132,6.694,8.084,6.694h37.119v42.24c0,4.544,3.684,8.229,8.229,8.229H67.84v195.292H53.577
			c-4.544,0-8.229,3.684-8.229,8.229v26.923H27.743c-4.544,0-8.229,3.684-8.229,8.229v35.151c0,4.544,3.684,8.229,8.229,8.229
			h456.516c4.544,0,8.229-3.684,8.229-8.229v-35.151c0-4.544-3.684-8.229-8.229-8.229h-17.606v-26.923
			c0-4.544-3.684-8.229-8.229-8.229h-14.263V197.26h14.263c4.544,0,8.229-3.684,8.229-8.229v-42.24h37.119
			c3.953,0,7.346-2.811,8.084-6.694S510.466,132.357,506.788,130.907z M476.031,444.16v18.694H35.972V444.16H476.031z
			 M450.196,409.009v18.694H61.806v-18.694H450.196z M84.298,392.552V197.259h12.069v195.292H84.298z M112.824,392.552V197.259
			h12.069v195.292H112.824z M141.35,392.552V197.259h77.897v195.292H141.35z M235.704,392.552V197.259h12.069v195.292H235.704z
			 M264.23,392.552V197.259h12.069v195.292H264.23z M292.756,392.552V197.259h77.897v195.292H292.756z M387.11,392.552V197.259
			h12.069v195.292H387.11z M415.636,392.552V197.259h12.069v195.292H415.636z M450.196,180.802H61.806v-34.012h388.39V180.802z
			 M458.425,130.333H53.578h-2.025l204.449-80.572l204.448,80.572H458.425z"/>
	</g>
</g>
<g>
</g>
<g>
</g>
<g>
</g>
<g>
</g>
<g>
</g>
<g>
</g>
<g>
</g>
<g>
</g>
<g>
</g>
<g>
</g>
<g>
</g>
<g>
</g>
<g>
</g>
<g>
</g>
<g>
</g>
</svg>
