<?xml version="1.0" encoding="iso-8859-1"?>
<!-- Generator: Adobe Illustrator 19.0.0, SVG Export Plug-In . SVG Version: 6.00 Build 0)  -->
<svg version="1.1" id="Layer_1" xmlns="http://www.w3.org/2000/svg" xmlns:xlink="http://www.w3.org/1999/xlink" x="0px" y="0px"
	 viewBox="0 0 512 512" style="enable-background:new 0 0 512 512;" xml:space="preserve">
<g>
	<g>
		<path d="M498.292,420.624H459.8V203.8C459.8,91.425,368.375,0,256,0C143.623,0,52.2,91.425,52.2,203.8v216.823H13.708
			c-5.596,0-10.132,4.536-10.132,10.132v71.113c0,5.596,4.536,10.132,10.132,10.132h484.584c5.597,0,10.132-4.536,10.132-10.132
			v-71.113C508.424,425.16,503.889,420.624,498.292,420.624z M72.464,203.8c0-101.202,82.333-183.536,183.536-183.536
			S439.536,102.599,439.536,203.8v216.823h-26.64V203.8c0-86.513-70.383-156.896-156.896-156.896S99.104,117.287,99.104,203.8
			v216.823h-26.64V203.8z M256,296.555c-32.284,0-58.549,26.265-58.549,58.549v65.52h-78.083V203.8
			c0-75.34,61.293-136.632,136.632-136.632S392.632,128.461,392.632,203.8v216.823h-78.083v-65.52
			C314.549,322.819,288.284,296.555,256,296.555z M294.285,355.104v65.52h-76.57v-65.52c0-21.11,17.174-38.285,38.285-38.285
			C277.111,316.819,294.285,333.993,294.285,355.104z M488.16,491.736H23.84v-50.849H488.16V491.736z"/>
	</g>
</g>
<g>
	<g>
		<path d="M272.643,248.138h-33.287c-5.596,0-10.132,4.536-10.132,10.132s4.536,10.132,10.132,10.132h33.287
			c5.597,0,10.132-4.536,10.132-10.132S278.239,248.138,272.643,248.138z"/>
	</g>
</g>
<g>
	<g>
		<path d="M272.643,172.486h-33.287c-5.596,0-10.132,4.536-10.132,10.132s4.536,10.132,10.132,10.132h33.287
			c5.597,0,10.132-4.536,10.132-10.132S278.24,172.486,272.643,172.486z"/>
	</g>
</g>
<g>
	<g>
		<path d="M293.826,210.312h-75.652c-5.596,0-10.132,4.536-10.132,10.132c0,5.596,4.536,10.132,10.132,10.132h75.652
			c5.597,0,10.132-4.536,10.132-10.132C303.958,214.848,299.423,210.312,293.826,210.312z"/>
	</g>
</g>
<g>
</g>
<g>
</g>
<g>
</g>
<g>
</g>
<g>
</g>
<g>
</g>
<g>
</g>
<g>
</g>
<g>
</g>
<g>
</g>
<g>
</g>
<g>
</g>
<g>
</g>
<g>
</g>
<g>
</g>
</svg>
