<?xml version="1.0" encoding="iso-8859-1"?>
<!-- Generator: Adobe Illustrator 19.0.0, SVG Export Plug-In . SVG Version: 6.00 Build 0)  -->
<svg version="1.1" id="Layer_1" xmlns="http://www.w3.org/2000/svg" xmlns:xlink="http://www.w3.org/1999/xlink" x="0px" y="0px"
	 viewBox="0 0 511.999 511.999" style="enable-background:new 0 0 511.999 511.999;" xml:space="preserve">
<g>
	<g>
		<path d="M503.416,235.451h-32.694c-14.857,0-26.945,12.088-26.945,26.945v2.502h-33.884v-24.785
			c18.469-15.816,30.208-39.278,30.208-65.443c0-47.513-38.654-86.166-86.166-86.166s-86.166,38.654-86.166,86.166
			c0,9.194,1.463,18.05,4.142,26.365h-27.708c1.855-8.498,2.842-17.319,2.842-26.365c0-68.109-55.411-123.521-123.521-123.521
			S0,106.561,0,174.671c0,43.649,22.758,82.083,57.031,104.059v173.536c0,4.741,3.842,8.584,8.584,8.584h335.692
			c4.742,0,8.584-3.844,8.584-8.584v-55.289h33.884v2.503c0,14.857,12.088,26.945,26.945,26.945h32.694
			c4.742,0,8.584-3.844,8.584-8.584V244.036C512,239.295,508.158,235.451,503.416,235.451z M17.169,174.671
			c0-58.643,47.71-106.352,106.352-106.352c58.643,0,106.352,47.71,106.352,106.352c0,58.643-47.71,106.352-106.352,106.352
			C64.878,281.023,17.169,233.314,17.169,174.671z M392.723,443.68H74.2V287.906c15.116,6.61,31.796,10.286,49.321,10.286
			c52.793,0,97.949-33.295,115.591-79.987h40.506c14.985,25.481,42.677,42.632,74.314,42.632c13.949,0,27.122-3.352,38.791-9.262
			V443.68z M353.933,243.668c-38.046,0-68.998-30.952-68.998-68.998c0-38.046,30.951-68.998,68.998-68.998
			c38.046,0,68.998,30.952,68.998,68.998C422.931,212.716,391.979,243.668,353.933,243.668z M443.776,379.807h-33.884v-97.739
			h33.884V379.807z M494.831,409.254h-24.109c-5.391,0-9.776-4.385-9.776-9.776V388.39V273.483v-11.086
			c0-5.39,4.385-9.776,9.776-9.776h24.109V409.254z"/>
	</g>
</g>
<g>
	<g>
		<path d="M123.521,131.94c-23.562,0-42.731,19.169-42.731,42.731s19.168,42.731,42.731,42.731
			c23.562,0,42.732-19.168,42.732-42.731C166.253,151.108,147.083,131.94,123.521,131.94z M123.521,200.233
			c-14.094,0.001-25.562-11.466-25.562-25.562c0-14.096,11.468-25.562,25.562-25.562c14.096,0,25.563,11.468,25.563,25.562
			C149.084,188.765,137.617,200.233,123.521,200.233z"/>
	</g>
</g>
<g>
	<g>
		<path d="M192.159,106.035c-3.354-3.352-8.788-3.352-12.141,0l-19.35,19.35c-3.352,3.352-3.352,8.788,0,12.139
			c1.676,1.677,3.873,2.515,6.07,2.515c2.196,0,4.394-0.838,6.071-2.515l19.35-19.35
			C195.512,114.822,195.512,109.386,192.159,106.035z"/>
	</g>
</g>
<g>
	<g>
		<path d="M86.376,211.818c-3.354-3.352-8.788-3.352-12.142,0l-19.35,19.35c-3.352,3.352-3.352,8.788,0,12.139
			c1.677,1.676,3.874,2.515,6.071,2.515s4.394-0.838,6.071-2.515l19.35-19.35C89.728,220.605,89.728,215.169,86.376,211.818z"/>
	</g>
</g>
<g>
	<g>
		<path d="M192.159,231.168l-19.351-19.35c-3.354-3.352-8.788-3.352-12.141,0s-3.352,8.788,0,12.139l19.35,19.35
			c1.677,1.676,3.874,2.515,6.071,2.515s4.394-0.838,6.071-2.515C195.512,239.955,195.512,234.52,192.159,231.168z"/>
	</g>
</g>
<g>
	<g>
		<path d="M86.376,125.385l-19.35-19.35c-3.354-3.352-8.788-3.352-12.141,0s-3.352,8.788,0,12.139l19.349,19.35
			c1.677,1.676,3.874,2.515,6.071,2.515s4.394-0.838,6.071-2.515C89.728,134.172,89.728,128.736,86.376,125.385z"/>
	</g>
</g>
<g>
	<g>
		<path d="M391.129,199.727l-9.626-9.626c-3.354-3.352-8.788-3.352-12.141,0c-3.352,3.352-3.352,8.788,0,12.139l9.625,9.626
			c1.677,1.676,3.874,2.515,6.071,2.515s4.394-0.838,6.071-2.515C394.481,208.514,394.481,203.078,391.129,199.727z"/>
	</g>
</g>
<g>
	<g>
		<path d="M338.505,147.102l-9.626-9.626c-3.354-3.352-8.788-3.352-12.141,0c-3.352,3.352-3.352,8.788,0,12.139l9.625,9.626
			c1.677,1.676,3.874,2.515,6.071,2.515s4.394-0.838,6.071-2.515C341.858,155.889,341.858,150.454,338.505,147.102z"/>
	</g>
</g>
<g>
	<g>
		<path d="M338.504,190.101c-3.354-3.352-8.788-3.352-12.141,0l-9.626,9.626c-3.352,3.352-3.352,8.788,0,12.139
			c1.676,1.676,3.873,2.515,6.07,2.515c2.196,0,4.394-0.838,6.071-2.515l9.626-9.626
			C341.857,198.888,341.857,193.452,338.504,190.101z"/>
	</g>
</g>
<g>
	<g>
		<path d="M391.129,137.476c-3.354-3.352-8.788-3.352-12.141,0l-9.626,9.626c-3.352,3.352-3.352,8.788,0,12.139
			c1.676,1.677,3.873,2.515,6.07,2.515s4.394-0.838,6.071-2.515l9.626-9.626C394.481,146.263,394.481,140.828,391.129,137.476z"/>
	</g>
</g>
<g>
	<g>
		<path d="M337.451,332.387h-207.98c-4.742,0-8.584,3.844-8.584,8.584v54.732c0,4.741,3.842,8.584,8.584,8.584h207.98
			c4.742,0,8.584-3.844,8.584-8.584v-54.732C346.036,336.231,342.193,332.387,337.451,332.387z M138.056,387.119v-37.563h190.811
			v37.563H138.056z"/>
	</g>
</g>
<g>
	<g>
		<path d="M240.802,260.862c-14.2,0-25.752,11.552-25.752,25.752c0,14.2,11.552,25.753,25.752,25.753
			c14.2,0,25.752-11.552,25.752-25.753C266.554,272.414,255.001,260.862,240.802,260.862z M240.802,295.198
			c-4.733,0-8.583-3.85-8.583-8.584c0-4.733,3.85-8.583,8.583-8.583c4.733,0,8.583,3.85,8.583,8.583
			S245.534,295.198,240.802,295.198z"/>
	</g>
</g>
<g>
	<g>
		<path d="M302.606,260.862c-14.2,0-25.752,11.552-25.752,25.752c0,14.2,11.552,25.753,25.752,25.753s25.752-11.552,25.752-25.753
			C328.358,272.414,316.805,260.862,302.606,260.862z M302.606,295.198c-4.733,0-8.583-3.85-8.583-8.584
			c0-4.733,3.85-8.583,8.583-8.583s8.583,3.85,8.583,8.583S307.339,295.198,302.606,295.198z"/>
	</g>
</g>
<g>
	<g>
		<circle cx="353.939" cy="174.674" r="8.584"/>
	</g>
</g>
<g>
</g>
<g>
</g>
<g>
</g>
<g>
</g>
<g>
</g>
<g>
</g>
<g>
</g>
<g>
</g>
<g>
</g>
<g>
</g>
<g>
</g>
<g>
</g>
<g>
</g>
<g>
</g>
<g>
</g>
</svg>
