<?xml version="1.0" encoding="iso-8859-1"?>
<!-- Generator: Adobe Illustrator 19.0.0, SVG Export Plug-In . SVG Version: 6.00 Build 0)  -->
<svg version="1.1" id="Layer_1" xmlns="http://www.w3.org/2000/svg" xmlns:xlink="http://www.w3.org/1999/xlink" x="0px" y="0px"
	 viewBox="0 0 512 512" style="enable-background:new 0 0 512 512;" xml:space="preserve">
<g>
	<g>
		<path d="M503.172,346.037h-45.775c6.233-27.758-1.892-56.859-22.139-77.484c-3.861-31.736-25.099-58.364-55.241-69.213
			c-17.242-26.935-47.916-41.728-79.73-38.436c-27.241-16.798-61.359-16.796-88.577,0c-31.803-3.283-62.468,11.494-79.724,38.432
			c-30.088,10.803-51.345,37.414-55.241,69.214c-20.243,20.619-28.369,49.714-22.138,77.488H8.828c-4.875,0-8.828,3.953-8.828,8.828
			s3.953,8.828,8.828,8.828h494.344c4.875,0,8.828-3.953,8.828-8.828S508.047,346.037,503.172,346.037z M146.539,346.037v-18.771
			H222.7c11.532,0,21.226,8.018,23.802,18.771H146.539z M365.462,346.037H265.5c2.575-10.753,12.27-18.771,23.802-18.771h76.161
			V346.037z M439.17,346.039h-56.056V318.44c0-4.875-3.953-8.828-8.828-8.828H289.3c-13.533,0-25.587,6.421-33.3,16.368
			c-7.713-9.947-19.768-16.368-33.3-16.368H137.71c-4.875,0-8.828,3.953-8.828,8.828v27.599H72.829
			c-6.333-22.051-0.949-45.648,14.328-62.767l32.298,15.575c1.236,0.597,2.542,0.879,3.828,0.879c3.284,0,6.436-1.84,7.958-4.995
			c2.118-4.392,0.274-9.668-4.117-11.786l-32.352-15.601c3.893-22.502,18.918-41.337,40.039-50.154l43.103,54
			c1.743,2.183,4.313,3.322,6.906,3.322c1.93,0,3.875-0.631,5.502-1.929c3.81-3.042,4.434-8.596,1.392-12.408l-43.069-53.957
			c13.27-18.717,35.064-29.24,57.968-27.999l15.37,67.334c0.933,4.093,4.572,6.866,8.598,6.866c0.651,0,1.311-0.073,1.973-0.222
			c4.754-1.085,7.727-5.818,6.642-10.571l-15.373-67.34c20.073-11.063,44.268-11.063,64.344-0.001l-15.371,67.342
			c-1.085,4.753,1.888,9.486,6.642,10.571c0.661,0.151,1.322,0.222,1.973,0.222c4.027,0,7.665-2.773,8.599-6.866l15.37-67.334
			c22.872-1.238,44.638,9.251,57.914,27.918l-43.064,54.005c-3.04,3.811-2.414,9.367,1.398,12.406
			c1.626,1.297,3.569,1.927,5.498,1.927c2.594,0,5.165-1.138,6.908-3.325l43.064-54.005c21.124,8.766,36.196,27.612,40.122,50.203
			l-32.349,15.595c-4.392,2.118-6.236,7.394-4.119,11.786c1.521,3.157,4.674,4.997,7.958,4.997c1.285,0,2.592-0.282,3.827-0.878
			l32.305-15.574C440.121,300.398,445.505,323.998,439.17,346.039z"/>
	</g>
</g>
<g>
</g>
<g>
</g>
<g>
</g>
<g>
</g>
<g>
</g>
<g>
</g>
<g>
</g>
<g>
</g>
<g>
</g>
<g>
</g>
<g>
</g>
<g>
</g>
<g>
</g>
<g>
</g>
<g>
</g>
</svg>
