<?xml version="1.0" encoding="iso-8859-1"?>
<!-- Generator: Adobe Illustrator 19.0.0, SVG Export Plug-In . SVG Version: 6.00 Build 0)  -->
<svg version="1.1" id="Layer_1" xmlns="http://www.w3.org/2000/svg" xmlns:xlink="http://www.w3.org/1999/xlink" x="0px" y="0px"
	 viewBox="0 0 511.998 511.998" style="enable-background:new 0 0 511.998 511.998;" xml:space="preserve">
<g>
	<g>
		<path d="M475.286,289.836H308.244c-6.321,0-12.251,3.089-15.86,8.264c-3.655,5.243-4.513,11.974-2.294,18l22.276,61.261
			c1.218,3.348,4.401,5.577,7.963,5.577h154.958c4.68,0,8.472-3.793,8.472-8.472v-76.159
			C483.758,293.629,479.966,289.836,475.286,289.836z M466.814,365.993H326.262l-20.206-55.564l-0.065-0.177
			c-0.427-1.164-0.001-2.04,0.29-2.459c0.323-0.463,0.925-1.014,1.962-1.014h158.57V365.993z"/>
	</g>
</g>
<g>
	<g>
		<path d="M219.616,298.099c-3.609-5.175-9.539-8.263-15.86-8.263H36.713c-4.68,0-8.472,3.793-8.472,8.472v76.159
			c0,4.679,3.792,8.472,8.472,8.472H191.67c3.562,0,6.745-2.229,7.963-5.577l22.215-61.091l0.062-0.166
			C224.13,310.071,223.272,303.34,219.616,298.099z M206.005,310.258l-20.269,55.735H45.185v-59.215h158.57
			c1.038,0,1.64,0.551,1.962,1.013C206.01,308.211,206.436,309.088,206.005,310.258z"/>
	</g>
</g>
<g>
	<g>
		<path d="M503.528,100.819c-4.68,0-8.472,3.793-8.472,8.472v152.303H16.944V109.291c0-4.679-3.792-8.472-8.472-8.472
			S0,104.612,0,109.291v273.688c0,15.549,12.649,28.2,28.2,28.2h169.05c12.043,0,22.9-7.605,27.018-18.923l24.129-66.357
			c1.796-4.941,6.273-5.325,7.602-5.325c1.33,0,5.806,0.384,7.601,5.325l24.13,66.357c4.116,11.319,14.973,18.924,27.018,18.924
			h169.049c15.55,0,28.201-12.651,28.201-28.2V109.291C512,104.612,508.208,100.819,503.528,100.819z M495.056,382.979
			c0,6.206-5.049,11.255-11.257,11.255H314.75c-4.945,0-9.404-3.122-11.093-7.769l-24.13-66.357
			c-3.641-10.011-12.874-16.479-23.525-16.479c-0.001,0-0.001,0-0.001,0c-10.652,0-19.887,6.468-23.528,16.479l-24.128,66.357
			c-1.691,4.648-6.148,7.771-11.094,7.771H28.2c-6.206,0-11.255-5.049-11.255-11.256V278.54h478.111V382.979z"/>
	</g>
</g>
<g>
</g>
<g>
</g>
<g>
</g>
<g>
</g>
<g>
</g>
<g>
</g>
<g>
</g>
<g>
</g>
<g>
</g>
<g>
</g>
<g>
</g>
<g>
</g>
<g>
</g>
<g>
</g>
<g>
</g>
</svg>
