<?xml version="1.0" encoding="iso-8859-1"?>
<!-- Generator: Adobe Illustrator 19.0.0, SVG Export Plug-In . SVG Version: 6.00 Build 0)  -->
<svg version="1.1" id="Layer_1" xmlns="http://www.w3.org/2000/svg" xmlns:xlink="http://www.w3.org/1999/xlink" x="0px" y="0px"
	 viewBox="0 0 509.258 509.258" style="enable-background:new 0 0 509.258 509.258;" xml:space="preserve">
<g>
	<g>
		<path d="M509.258,254.632c0-13.712-3.935-26.232-11.566-37.082c-7.393-10.493-8.943-24.563-4.054-36.606
			c6.796-16.932,2.504-33.744-12.281-47.337c-21.343-19.674-55.803-17.409-102.424,6.677
			c-25.874,13.354-47.933,29.571-56.756,36.367c-44.833-15.262-90.262-15.262-135.095,0c-8.704-6.677-30.882-23.013-56.756-36.367
			c-46.621-24.086-81.081-26.351-102.424-6.677c-14.785,13.593-19.078,30.405-12.281,47.337c4.889,12.043,3.339,26.113-4.054,36.606
			C3.935,228.4,0,240.92,0,254.632s3.935,26.232,11.566,37.082c7.393,10.493,8.943,24.563,4.054,36.606
			c-6.796,16.932-2.504,33.744,12.281,47.337c9.539,8.823,21.82,13.235,36.605,13.235c18.124,0,40.183-6.677,65.818-19.912
			c25.874-13.354,47.933-29.571,56.756-36.367c22.416,7.631,44.952,11.447,67.488,11.447s45.071-3.816,67.488-11.447
			c8.704,6.677,30.882,23.013,56.756,36.367c25.636,13.235,47.694,19.912,65.818,19.912c14.785,0,26.947-4.412,36.606-13.235
			c14.785-13.593,19.078-30.405,12.281-47.337c-4.889-12.043-3.339-26.113,4.054-36.606
			C505.323,280.864,509.258,268.464,509.258,254.632z M174.919,319.735c-31.598,24.205-104.928,70.23-134.737,42.806
			c-9.42-8.585-11.804-17.289-7.75-27.424c7.273-17.885,5.008-37.917-6.081-53.537c-5.485-7.87-8.346-16.812-8.346-26.828
			c0-10.016,2.742-18.958,8.346-26.828c10.97-15.62,13.235-35.652,6.081-53.537c-4.054-10.135-1.55-18.839,7.75-27.424
			c29.809-27.424,103.139,18.601,134.737,42.925C160.134,233.051,160.134,276.572,174.919,319.735z M316.93,315.562
			c-41.375,14.189-83.108,14.189-124.483,0c-14.308-40.421-14.308-81.438,0-121.859c41.256-14.07,83.108-14.07,124.483,0
			C331.238,234.124,331.238,275.141,316.93,315.562z M483.026,281.461c-10.97,15.62-13.235,35.652-6.081,53.537
			c4.054,10.135,1.55,18.839-7.75,27.424c-29.809,27.424-103.139-18.601-134.737-42.925c14.785-43.164,14.785-86.685,0-129.848
			c31.598-24.324,104.928-70.349,134.737-42.925c9.42,8.585,11.804,17.289,7.75,27.424c-7.273,17.885-5.008,37.917,6.081,53.537
			c5.485,7.87,8.347,16.812,8.347,26.828C491.372,264.648,488.63,273.71,483.026,281.461z"/>
	</g>
</g>
<g>
	<g>
		<path d="M438.789,206.103c-0.835-4.889-5.485-8.108-10.254-7.393l-64.388,10.731c-4.889,0.835-8.108,5.366-7.393,10.254
			c0.715,4.412,4.531,7.512,8.823,7.512c0.477,0,0.954,0,1.431-0.119l64.388-10.731
			C436.285,215.523,439.504,210.992,438.789,206.103z"/>
	</g>
</g>
<g>
	<g>
		<path d="M431.396,292.907l-64.388-10.731c-4.889-0.835-9.42,2.504-10.254,7.393c-0.835,4.889,2.504,9.42,7.393,10.254
			l64.388,10.731c0.477,0.119,0.954,0.119,1.431,0.119c4.292,0,8.108-3.1,8.823-7.512
			C439.624,298.392,436.285,293.742,431.396,292.907z"/>
	</g>
</g>
<g>
	<g>
		<path d="M141.295,209.442l-64.388-10.731c-4.889-0.835-9.539,2.504-10.254,7.393c-0.835,4.889,2.504,9.42,7.393,10.254
			l64.388,10.731c0.477,0.119,0.954,0.119,1.431,0.119c4.292,0,8.108-3.1,8.823-7.512
			C149.403,214.927,146.184,210.277,141.295,209.442z"/>
	</g>
</g>
<g>
	<g>
		<path d="M148.568,289.569c-0.715-4.889-5.366-8.227-10.254-7.393l-64.388,10.731c-4.889,0.835-8.108,5.366-7.393,10.254
			c0.715,4.412,4.531,7.512,8.823,7.512c0.477,0,0.954,0,1.431-0.119l64.388-10.731
			C146.064,298.988,149.284,294.457,148.568,289.569z"/>
	</g>
</g>
<g>
</g>
<g>
</g>
<g>
</g>
<g>
</g>
<g>
</g>
<g>
</g>
<g>
</g>
<g>
</g>
<g>
</g>
<g>
</g>
<g>
</g>
<g>
</g>
<g>
</g>
<g>
</g>
<g>
</g>
</svg>
