<?xml version="1.0" encoding="iso-8859-1"?>
<!-- Generator: Adobe Illustrator 19.0.0, SVG Export Plug-In . SVG Version: 6.00 Build 0)  -->
<svg version="1.1" id="Layer_1" xmlns="http://www.w3.org/2000/svg" xmlns:xlink="http://www.w3.org/1999/xlink" x="0px" y="0px"
	 viewBox="0 0 512.002 512.002" style="enable-background:new 0 0 512.002 512.002;" xml:space="preserve">
<g>
	<g>
		<path d="M502.922,22.998H9.078C4.065,22.998,0,27.063,0,32.077v308.652c0,5.014,4.065,9.078,9.078,9.078h493.843
			c5.015,0,9.078-4.065,9.078-9.078V32.077C512,27.063,507.936,22.998,502.922,22.998z M493.843,331.65H18.157V41.155h475.686
			V331.65z"/>
	</g>
</g>
<g>
	<g>
		<path d="M303.341,178.541l-64.863-37.449c-2.808-1.622-6.27-1.622-9.078,0c-2.808,1.622-4.539,4.618-4.539,7.862v74.897
			c0,3.244,1.731,6.241,4.539,7.863c1.404,0.811,2.972,1.217,4.539,1.217c1.568,0,3.135-0.406,4.539-1.217l64.863-37.449
			c2.808-1.622,4.539-4.618,4.539-7.862S306.149,180.163,303.341,178.541z M243.017,208.127v-43.45l37.627,21.724L243.017,208.127z"
			/>
	</g>
</g>
<g>
	<g>
		<path d="M502.922,470.847h-17.248v-51.988c0-9.489-4.766-17.881-12.025-22.924c-2.054-19.1-18.267-34.024-37.904-34.024
			s-35.85,14.924-37.904,34.024c-7.259,5.043-12.025,13.435-12.025,22.924v51.988h-19.971v-51.988
			c0-9.489-4.766-17.881-12.025-22.924c-2.054-19.1-18.267-34.024-37.904-34.024s-35.85,14.924-37.904,34.024
			c-7.259,5.043-12.025,13.435-12.025,22.924v51.988h-19.971v-51.988c0-9.489-4.766-17.882-12.026-22.924
			c-2.054-19.1-18.267-34.022-37.903-34.022c-19.637,0-35.85,14.924-37.904,34.022c-7.26,5.043-12.026,13.435-12.026,22.924v51.988
			h-19.971v-51.988c0-9.489-4.766-17.882-12.026-22.924c-2.054-19.1-18.267-34.022-37.903-34.022
			c-19.637,0-35.85,14.924-37.904,34.022c-7.26,5.043-12.026,13.435-12.026,22.924v51.988H9.078c-5.014,0-9.078,4.065-9.078,9.078
			s4.065,9.078,9.078,9.078h26.326h81.703h38.128h81.703h38.128h81.701h38.128h81.701h26.326c5.015,0,9.078-4.065,9.078-9.078
			S507.936,470.847,502.922,470.847z M76.257,380.069c7.741,0,14.453,4.436,17.766,10.893H58.49
			C61.803,384.505,68.515,380.069,76.257,380.069z M108.028,470.847H44.483v-51.988c0-5.372,4.37-9.741,9.741-9.741h44.063
			c5.371,0,9.741,4.37,9.741,9.741V470.847z M196.086,380.069c7.741,0,14.453,4.436,17.766,10.893H178.32
			C181.632,384.505,188.344,380.069,196.086,380.069z M227.859,470.847h-63.546v-51.988c0-5.372,4.37-9.741,9.741-9.741h44.064
			c5.371,0,9.741,4.37,9.741,9.741V470.847z M315.915,380.069c7.742,0,14.453,4.436,17.766,10.893h-35.532
			C301.462,384.505,308.174,380.069,315.915,380.069z M347.687,470.847h-63.544v-51.988c0-5.372,4.369-9.741,9.741-9.741h44.063
			c5.372,0,9.741,4.37,9.741,9.741V470.847z M435.745,380.069c7.742,0,14.453,4.436,17.766,10.893h-35.532
			C421.292,384.505,428.004,380.069,435.745,380.069z M467.517,470.847h-63.544v-51.988c0-5.372,4.369-9.741,9.741-9.741h44.063
			c5.372,0,9.741,4.37,9.741,9.741V470.847z"/>
	</g>
</g>
<g>
	<g>
		<path d="M256.001,88.359c-54.062,0-98.043,43.981-98.043,98.043c0,54.062,43.981,98.044,98.043,98.044
			s98.044-43.982,98.044-98.044C354.044,132.34,310.062,88.359,256.001,88.359z M256.001,266.289
			c-44.049,0-79.886-35.837-79.886-79.887s35.837-79.886,79.886-79.886c44.05,0,79.887,35.836,79.887,79.886
			S300.052,266.289,256.001,266.289z"/>
	</g>
</g>
<g>
	<g>
		<path d="M256.001,293.2c-5.014,0-9.078,4.065-9.078,9.078v11.22c0,5.014,4.065,9.078,9.078,9.078s9.078-4.065,9.078-9.078v-11.22
			C265.078,297.265,261.014,293.2,256.001,293.2z"/>
	</g>
</g>
<g>
	<g>
		<path d="M256.001,50.235c-5.015,0-9.078,4.065-9.078,9.078v11.22c0,5.014,4.065,9.078,9.078,9.078s9.078-4.065,9.078-9.078v-11.22
			C265.079,54.299,261.016,50.235,256.001,50.235z"/>
	</g>
</g>
<g>
	<g>
		<path d="M140.121,177.32l-87.466,0.001c-5.014,0-9.078,4.065-9.078,9.078s4.063,9.078,9.078,9.078l87.466-0.001
			c5.014,0,9.078-4.065,9.078-9.078S145.134,177.32,140.121,177.32z"/>
	</g>
</g>
<g>
	<g>
		<path d="M459.346,177.321l-87.466-0.001c-5.014,0-9.078,4.065-9.078,9.078s4.064,9.078,9.078,9.078l87.466,0.001
			c5.014,0,9.078-4.065,9.078-9.078S464.361,177.321,459.346,177.321z"/>
	</g>
</g>
<g>
</g>
<g>
</g>
<g>
</g>
<g>
</g>
<g>
</g>
<g>
</g>
<g>
</g>
<g>
</g>
<g>
</g>
<g>
</g>
<g>
</g>
<g>
</g>
<g>
</g>
<g>
</g>
<g>
</g>
</svg>
