<?xml version="1.0" encoding="iso-8859-1"?>
<!-- Generator: Adobe Illustrator 19.0.0, SVG Export Plug-In . SVG Version: 6.00 Build 0)  -->
<svg version="1.1" id="Layer_1" xmlns="http://www.w3.org/2000/svg" xmlns:xlink="http://www.w3.org/1999/xlink" x="0px" y="0px"
	 viewBox="0 0 512 512" style="enable-background:new 0 0 512 512;" xml:space="preserve">
<g>
	<g>
		<path d="M424.402,257.169h-4.52V8.807c0-2.576-1.128-5.023-3.087-6.696c-1.958-1.673-4.552-2.405-7.096-2.002
			c-101.985,16.153-205.407,16.153-307.393,0c-2.548-0.404-5.138,0.328-7.096,2.002c-1.96,1.673-3.088,4.12-3.088,6.696v248.361
			h-4.52c-4.863,0-8.806,3.943-8.806,8.806v16.493c0,15.801,12.857,28.658,28.658,28.658h15.251l95.149,95.148l-90.695,90.695
			c-2.518,2.518-3.272,6.306-1.909,9.596c1.363,3.291,4.574,5.436,8.135,5.436h51.392c2.335,0,4.576-0.928,6.226-2.58L256,444.421
			l64.998,64.999c1.651,1.652,3.891,2.579,6.226,2.579h51.392c3.562,0,6.772-2.145,8.135-5.436c1.363-3.291,0.609-7.078-1.909-9.596
			l-90.694-90.694l95.148-95.148h15.251c15.802,0,28.658-12.857,28.658-28.658v-16.493
			C433.208,261.111,429.265,257.169,424.402,257.169z M109.733,19.064c97.12,14.364,195.417,14.364,292.537,0V147.85
			c-97.096,14.621-195.44,14.621-292.537,0V19.064z M402.27,165.656v91.514h-14.493v-0.001v-89.487
			C392.611,167.038,397.442,166.37,402.27,165.656z M370.164,169.868v87.301H141.838v-87.301
			c37.96,4.368,76.061,6.562,114.162,6.562C294.103,176.43,332.204,174.236,370.164,169.868z M109.733,165.655
			c4.828,0.714,9.659,1.383,14.493,2.025v89.487h-14.493V165.655z M147.61,311.125h26.487l69.452,69.451l-13.243,13.243
			L147.61,311.125z M199.003,311.125H313l-56.998,56.998L199.003,311.125z M357.36,494.389h-26.487l-62.419-62.419l13.243-13.243
			L357.36,494.389z M181.13,494.389h-26.487l183.264-183.264h26.487L181.13,494.389z M415.596,282.468
			c0,6.091-4.956,11.046-11.046,11.046H107.453c-6.091,0-11.046-4.956-11.046-11.046v-7.687h319.19V282.468z"/>
	</g>
</g>
<g>
</g>
<g>
</g>
<g>
</g>
<g>
</g>
<g>
</g>
<g>
</g>
<g>
</g>
<g>
</g>
<g>
</g>
<g>
</g>
<g>
</g>
<g>
</g>
<g>
</g>
<g>
</g>
<g>
</g>
</svg>
