<?xml version="1.0" encoding="iso-8859-1"?>
<!-- Generator: Adobe Illustrator 19.0.0, SVG Export Plug-In . SVG Version: 6.00 Build 0)  -->
<svg version="1.1" id="Layer_1" xmlns="http://www.w3.org/2000/svg" xmlns:xlink="http://www.w3.org/1999/xlink" x="0px" y="0px"
	 viewBox="0 0 511.999 511.999" style="enable-background:new 0 0 511.999 511.999;" xml:space="preserve">
<g>
	<g>
		<path d="M131.96,84.746H38.124c-4.86,0-8.798,3.939-8.798,8.798v216.998c0,4.859,3.938,8.798,8.798,8.798s8.798-3.939,8.798-8.798
			V102.342h85.039c4.86,0,8.798-3.939,8.798-8.798S136.82,84.746,131.96,84.746z"/>
	</g>
</g>
<g>
	<g>
		<path d="M259.226,409.657H46.921v-67.445c0-4.859-3.938-8.798-8.798-8.798s-8.798,3.939-8.798,8.798v76.243
			c0,4.859,3.938,8.798,8.798,8.798h221.103c4.86,0,8.798-3.939,8.798-8.798S264.086,409.657,259.226,409.657z"/>
	</g>
</g>
<g>
	<g>
		<path d="M259.226,84.746h-74.484c-4.86,0-8.798,3.939-8.798,8.798s3.939,8.798,8.798,8.798h65.686v285.617
			c0,4.859,3.938,8.798,8.798,8.798s8.798-3.939,8.798-8.798V93.544C268.024,88.685,264.086,84.746,259.226,84.746z"/>
	</g>
</g>
<g>
	<g>
		<path d="M362.449,157.465c-22.681,0-44.908,5.116-65.099,14.889V64.218c0-4.859-3.938-8.798-8.798-8.798H8.798
			C3.938,55.421,0,59.36,0,64.218V447.78c0,4.859,3.938,8.798,8.798,8.798h279.755c4.86,0,8.798-3.939,8.798-8.798v-6.093
			c20.19,9.775,42.418,14.889,65.099,14.889c82.463,0,149.55-67.088,149.55-149.55C512,224.559,444.912,157.465,362.449,157.465z
			 M279.755,438.983H17.596V73.016h262.159V438.983z M362.449,438.983c-22.932,0-45.333-5.923-65.099-17.163V192.223
			c19.766-11.24,42.166-17.161,65.099-17.161c72.76,0,131.955,59.199,131.955,131.966
			C494.404,379.788,435.21,438.983,362.449,438.983z"/>
	</g>
</g>
<g>
	<g>
		<path d="M362.449,271.037c-19.843,0-35.986,16.143-35.986,35.986c0,19.843,16.143,35.986,35.986,35.986
			s35.988-16.143,35.988-35.986C398.436,287.18,382.292,271.037,362.449,271.037z M362.449,325.414
			c-10.141,0-18.391-8.25-18.391-18.391c0-10.141,8.25-18.391,18.391-18.391c10.142,0,18.392,8.25,18.392,18.391
			S372.591,325.414,362.449,325.414z"/>
	</g>
</g>
<g>
</g>
<g>
</g>
<g>
</g>
<g>
</g>
<g>
</g>
<g>
</g>
<g>
</g>
<g>
</g>
<g>
</g>
<g>
</g>
<g>
</g>
<g>
</g>
<g>
</g>
<g>
</g>
<g>
</g>
</svg>
