<?xml version="1.0" encoding="iso-8859-1"?>
<!-- Generator: Adobe Illustrator 19.0.0, SVG Export Plug-In . SVG Version: 6.00 Build 0)  -->
<svg version="1.1" id="Layer_1" xmlns="http://www.w3.org/2000/svg" xmlns:xlink="http://www.w3.org/1999/xlink" x="0px" y="0px"
	 viewBox="0 0 512.001 512.001" style="enable-background:new 0 0 512.001 512.001;" xml:space="preserve">
<g>
	<g>
		<path d="M436.511,106.701c18.87-8.71,31.521-27.728,31.521-49.403c0-30.021-24.424-54.444-54.444-54.444
			s-54.444,24.424-54.444,54.444c0,0.246,0.012,0.497,0.02,0.745h-63.011V44.383c0-5.145-4.17-9.316-9.316-9.316
			c-5.146,0-9.316,4.171-9.316,9.316v13.66h-12.205V9.316c0-5.145-4.17-9.316-9.316-9.316c-5.146,0-9.316,4.171-9.316,9.316v48.727
			H234.48v-13.66c0-5.145-4.17-9.316-9.316-9.316c-5.146,0-9.316,4.171-9.316,9.316v13.66h-63.011
			c0.007-0.248,0.02-0.499,0.02-0.745c0-30.021-24.424-54.444-54.444-54.444S43.968,27.277,43.968,57.298
			c0,21.676,12.65,40.694,31.521,49.403c-24.914,36.48-38.015,78.934-38.015,123.578c0,50.901,17.811,100.523,50.15,139.724
			c30.236,36.652,71.756,62.64,117.581,73.784l-0.525,8.467h-36.172c-4.073,0-7.674,2.646-8.89,6.534l-12.867,41.114
			c-0.886,2.83-0.373,5.91,1.383,8.3c1.755,2.389,4.542,3.8,7.507,3.8h200.732c2.965,0,5.752-1.411,7.507-3.8
			c1.755-2.389,2.268-5.47,1.383-8.3l-12.867-41.114c-1.216-3.887-4.817-6.534-8.89-6.534h-36.184l-0.525-8.467
			c45.824-11.143,87.343-37.132,117.58-73.784c32.34-39.201,50.15-88.822,50.15-139.724
			C474.525,185.635,461.423,143.181,436.511,106.701z M147.917,76.675h216.167c1.935,4.483,4.1,8.558,5.839,11.599H142.076
			C143.818,85.23,145.981,81.155,147.917,76.675z M380.504,106.905c7.987,16.987,12.913,37.742,15.254,64.031
			c7.921,88.719-23.413,142.645-95.675,164.575l-0.467-7.535c-0.168-2.713-1.489-5.091-3.464-6.68V106.905H380.504z M281.561,337.87
			l7.091,114.384h-65.305l7.102-114.384H281.561z M234.48,319.237V106.905h12.204v212.332H234.48z M265.315,319.237V106.905h12.204
			v212.332H265.315z M215.849,106.905v214.402c-1.969,1.589-3.284,3.962-3.452,6.669l-0.468,7.54
			c-72.271-21.928-103.609-75.855-95.686-164.58c2.341-26.293,7.269-47.051,15.252-64.03H215.849z M101.996,358.147
			c-29.592-35.871-45.89-81.283-45.89-127.867c0-42.817,13.164-83.427,38.135-117.851c1.129-1.556,5.939-8.218,7.561-10.929
			c1.717-2.869,3.824-6.649,5.786-10.869c6.294-13.545,7.886-24.763,4.73-33.341c-1.891-5.137-6.409-11.851-17.201-14.667
			c-4.977-1.298-10.066,1.684-11.365,6.663c-1.299,4.978,1.683,10.066,6.661,11.365c3.634,0.948,4.164,2.38,4.417,3.067
			c1.341,3.636-0.615,14.349-8.394,27.324c-14.105-4.964-23.836-18.33-23.836-33.746c0-19.747,16.066-35.813,35.813-35.813
			s35.813,16.066,35.813,35.813c0,6.382-6.398,19.073-10.953,26.066c-14.181,21.845-22.313,49.147-25.59,85.916
			c-8.87,99.359,29.169,161.67,113.06,185.322l-4.364,70.266C165.729,414.257,128.965,390.837,101.996,358.147z M336.659,470.886
			l7.037,22.482H168.317l7.037-22.482H336.659z M410.003,358.147c-26.968,32.689-63.73,56.109-104.38,66.721l-4.356-70.269
			c83.886-23.654,121.921-85.964,113.051-185.317c-3.278-36.772-11.409-64.072-25.605-85.942
			c-3.569-5.46-10.938-19.011-10.938-26.041c0-19.747,16.065-35.813,35.813-35.813c19.747,0,35.813,16.066,35.813,35.813
			c0,15.417-9.729,28.784-23.836,33.746c-7.779-12.975-9.737-23.69-8.395-27.325c0.255-0.688,0.783-2.119,4.417-3.067
			c4.978-1.299,7.961-6.388,6.661-11.365c-1.298-4.978-6.385-7.963-11.365-6.663c-10.792,2.816-15.309,9.529-17.2,14.666
			c-3.156,8.578-1.566,19.796,4.73,33.341c2.112,4.545,4.398,8.585,6.183,11.527s5.812,8.415,6.911,9.924
			c25.135,34.497,38.386,75.236,38.386,118.196C455.893,276.864,439.595,322.276,410.003,358.147z"/>
	</g>
</g>
<g>
</g>
<g>
</g>
<g>
</g>
<g>
</g>
<g>
</g>
<g>
</g>
<g>
</g>
<g>
</g>
<g>
</g>
<g>
</g>
<g>
</g>
<g>
</g>
<g>
</g>
<g>
</g>
<g>
</g>
</svg>
