<?xml version="1.0" encoding="iso-8859-1"?>
<!-- Generator: Adobe Illustrator 19.0.0, SVG Export Plug-In . SVG Version: 6.00 Build 0)  -->
<svg version="1.1" id="Layer_1" xmlns="http://www.w3.org/2000/svg" xmlns:xlink="http://www.w3.org/1999/xlink" x="0px" y="0px"
	 viewBox="0 0 512 512" style="enable-background:new 0 0 512 512;" xml:space="preserve">
<g>
	<g>
		<path d="M470.912,0H41.088C18.432,0,0,18.432,0,41.088v429.823C0,493.568,18.432,512,41.088,512h429.823
			C493.568,512,512,493.568,512,470.912V41.088C512,18.432,493.568,0,470.912,0z M490.12,470.912
			c0,10.592-8.616,19.208-19.208,19.208H41.088c-10.592,0-19.208-8.616-19.208-19.208V41.088c0-10.592,8.616-19.208,19.208-19.208
			h429.823c10.592,0,19.208,8.616,19.208,19.208V470.912z"/>
	</g>
</g>
<g>
	<g>
		<path d="M156.869,85.491h-33.916V61.425c0-6.042-4.897-10.94-10.94-10.94s-10.94,4.898-10.94,10.94v24.067H67.164
			c-6.043,0-10.94,4.898-10.94,10.94v39.383c0,6.042,4.897,10.94,10.94,10.94h33.909v290.997c0,6.042,4.897,10.94,10.94,10.94
			s10.94-4.898,10.94-10.94V146.754h33.916c6.043,0,10.94-4.898,10.94-10.94V96.431C167.809,90.389,162.912,85.491,156.869,85.491z
			 M145.929,124.874H78.104v-17.503h67.825V124.874z"/>
	</g>
</g>
<g>
	<g>
		<path d="M169.997,163.71h-26.256c-6.043,0-10.94,4.898-10.94,10.94c0,6.042,4.897,10.94,10.94,10.94h26.256
			c6.043,0,10.94-4.898,10.94-10.94C180.937,168.608,176.04,163.71,169.997,163.71z"/>
	</g>
</g>
<g>
	<g>
		<path d="M169.997,202.819h-26.256c-6.043,0-10.94,4.898-10.94,10.94s4.897,10.94,10.94,10.94h26.256
			c6.043,0,10.94-4.898,10.94-10.94S176.04,202.819,169.997,202.819z"/>
	</g>
</g>
<g>
	<g>
		<path d="M169.997,241.928h-26.256c-6.043,0-10.94,4.898-10.94,10.94c0,6.042,4.897,10.94,10.94,10.94h26.256
			c6.043,0,10.94-4.898,10.94-10.94C180.937,246.826,176.04,241.928,169.997,241.928z"/>
	</g>
</g>
<g>
	<g>
		<path d="M169.997,281.037h-26.256c-6.043,0-10.94,4.898-10.94,10.94s4.897,10.94,10.94,10.94h26.256
			c6.043,0,10.94-4.898,10.94-10.94S176.04,281.037,169.997,281.037z"/>
	</g>
</g>
<g>
	<g>
		<path d="M169.997,320.147h-26.256c-6.043,0-10.94,4.898-10.94,10.94c0,6.042,4.897,10.94,10.94,10.94h26.256
			c6.043,0,10.94-4.898,10.94-10.94C180.937,325.046,176.04,320.147,169.997,320.147z"/>
	</g>
</g>
<g>
	<g>
		<path d="M169.997,359.256h-26.256c-6.043,0-10.94,4.898-10.94,10.94c0,6.042,4.897,10.94,10.94,10.94h26.256
			c6.043,0,10.94-4.898,10.94-10.94S176.04,359.256,169.997,359.256z"/>
	</g>
</g>
<g>
	<g>
		<path d="M169.997,398.365h-26.256c-6.043,0-10.94,4.898-10.94,10.94c0,6.042,4.897,10.94,10.94,10.94h26.256
			c6.043,0,10.94-4.898,10.94-10.94C180.937,403.263,176.04,398.365,169.997,398.365z"/>
	</g>
</g>
<g>
	<g>
		<path d="M301.979,85.491h-33.917V61.425c0-6.042-4.897-10.94-10.94-10.94c-6.043,0-10.94,4.898-10.94,10.94v24.067h-33.907
			c-6.043,0-10.94,4.898-10.94,10.94v39.383c0,6.042,4.897,10.94,10.94,10.94h33.907v290.997c0,6.042,4.897,10.94,10.94,10.94
			c6.043,0,10.94-4.898,10.94-10.94V146.754h33.917c6.043,0,10.94-4.898,10.94-10.94V96.431
			C312.919,90.389,308.023,85.491,301.979,85.491z M291.038,124.874h-67.825v-17.503h67.825V124.874z"/>
	</g>
</g>
<g>
	<g>
		<path d="M315.106,163.71h-26.255c-6.043,0-10.94,4.898-10.94,10.94c0,6.042,4.897,10.94,10.94,10.94h26.255
			c6.043,0,10.94-4.898,10.94-10.94C326.046,168.608,321.148,163.71,315.106,163.71z"/>
	</g>
</g>
<g>
	<g>
		<path d="M315.106,202.819h-26.255c-6.043,0-10.94,4.898-10.94,10.94s4.897,10.94,10.94,10.94h26.255
			c6.043,0,10.94-4.898,10.94-10.94S321.148,202.819,315.106,202.819z"/>
	</g>
</g>
<g>
	<g>
		<path d="M315.106,241.928h-26.255c-6.043,0-10.94,4.898-10.94,10.94c0,6.042,4.897,10.94,10.94,10.94h26.255
			c6.043,0,10.94-4.898,10.94-10.94C326.046,246.826,321.148,241.928,315.106,241.928z"/>
	</g>
</g>
<g>
	<g>
		<path d="M315.106,281.037h-26.255c-6.043,0-10.94,4.898-10.94,10.94s4.897,10.94,10.94,10.94h26.255
			c6.043,0,10.94-4.898,10.94-10.94S321.148,281.037,315.106,281.037z"/>
	</g>
</g>
<g>
	<g>
		<path d="M315.106,320.147h-26.255c-6.043,0-10.94,4.898-10.94,10.94c0,6.042,4.897,10.94,10.94,10.94h26.255
			c6.043,0,10.94-4.898,10.94-10.94C326.046,325.046,321.148,320.147,315.106,320.147z"/>
	</g>
</g>
<g>
	<g>
		<path d="M315.106,359.256h-26.255c-6.043,0-10.94,4.898-10.94,10.94c0,6.042,4.897,10.94,10.94,10.94h26.255
			c6.043,0,10.94-4.898,10.94-10.94S321.148,359.256,315.106,359.256z"/>
	</g>
</g>
<g>
	<g>
		<path d="M315.106,398.365h-26.255c-6.043,0-10.94,4.898-10.94,10.94c0,6.042,4.897,10.94,10.94,10.94h26.255
			c6.043,0,10.94-4.898,10.94-10.94C326.046,403.263,321.148,398.365,315.106,398.365z"/>
	</g>
</g>
<g>
	<g>
		<path d="M447.087,85.491h-33.916V61.425c0-6.042-4.897-10.94-10.94-10.94c-6.043,0-10.94,4.898-10.94,10.94v24.067h-33.909
			c-6.043,0-10.94,4.898-10.94,10.94v39.383c0,6.042,4.897,10.94,10.94,10.94h33.909v290.997c0,6.042,4.897,10.94,10.94,10.94
			c6.043,0,10.94-4.898,10.94-10.94V146.754h33.916c6.043,0,10.94-4.898,10.94-10.94V96.431
			C458.027,90.389,453.13,85.491,447.087,85.491z M436.147,124.874h-67.825v-17.503h0h67.825V124.874z"/>
	</g>
</g>
<g>
	<g>
		<path d="M460.215,163.71H433.96c-6.043,0-10.94,4.898-10.94,10.94c0,6.042,4.897,10.94,10.94,10.94h26.255
			c6.043,0,10.94-4.898,10.94-10.94C471.155,168.608,466.258,163.71,460.215,163.71z"/>
	</g>
</g>
<g>
	<g>
		<path d="M460.215,202.819H433.96c-6.043,0-10.94,4.898-10.94,10.94s4.897,10.94,10.94,10.94h26.255
			c6.043,0,10.94-4.898,10.94-10.94S466.258,202.819,460.215,202.819z"/>
	</g>
</g>
<g>
	<g>
		<path d="M460.215,241.928H433.96c-6.043,0-10.94,4.898-10.94,10.94c0,6.042,4.897,10.94,10.94,10.94h26.255
			c6.043,0,10.94-4.898,10.94-10.94C471.155,246.826,466.258,241.928,460.215,241.928z"/>
	</g>
</g>
<g>
	<g>
		<path d="M460.215,281.037H433.96c-6.043,0-10.94,4.898-10.94,10.94s4.897,10.94,10.94,10.94h26.255
			c6.043,0,10.94-4.898,10.94-10.94S466.258,281.037,460.215,281.037z"/>
	</g>
</g>
<g>
	<g>
		<path d="M460.215,320.147H433.96c-6.043,0-10.94,4.898-10.94,10.94c0,6.042,4.897,10.94,10.94,10.94h26.255
			c6.043,0,10.94-4.898,10.94-10.94C471.155,325.046,466.258,320.147,460.215,320.147z"/>
	</g>
</g>
<g>
	<g>
		<path d="M460.215,359.256H433.96c-6.043,0-10.94,4.898-10.94,10.94c0,6.042,4.897,10.94,10.94,10.94h26.255
			c6.043,0,10.94-4.898,10.94-10.94S466.258,359.256,460.215,359.256z"/>
	</g>
</g>
<g>
	<g>
		<path d="M460.215,398.365H433.96c-6.043,0-10.94,4.898-10.94,10.94c0,6.042,4.897,10.94,10.94,10.94h26.255
			c6.043,0,10.94-4.898,10.94-10.94C471.155,403.263,466.258,398.365,460.215,398.365z"/>
	</g>
</g>
<g>
</g>
<g>
</g>
<g>
</g>
<g>
</g>
<g>
</g>
<g>
</g>
<g>
</g>
<g>
</g>
<g>
</g>
<g>
</g>
<g>
</g>
<g>
</g>
<g>
</g>
<g>
</g>
<g>
</g>
</svg>
