<?xml version="1.0" encoding="iso-8859-1"?>
<!-- Generator: Adobe Illustrator 19.0.0, SVG Export Plug-In . SVG Version: 6.00 Build 0)  -->
<svg version="1.1" id="Layer_1" xmlns="http://www.w3.org/2000/svg" xmlns:xlink="http://www.w3.org/1999/xlink" x="0px" y="0px"
	 viewBox="0 0 512 512" style="enable-background:new 0 0 512 512;" xml:space="preserve">
<g>
	<g>
		<path d="M502.634,435.564H490.77l-19.715-289.713h12.965c5.172,0,9.366-4.193,9.366-9.366v-29.97c0-5.172-4.193-9.366-9.366-9.366
			h-3.494c7.918-8.93,12.74-20.665,12.74-33.509c0-27.887-22.688-50.575-50.575-50.575c-27.887,0-50.575,22.688-50.575,50.575
			c0,12.845,4.821,24.579,12.74,33.509h-3.493c-5.172,0-9.366,4.193-9.366,9.366v22.017c-37.553,33.01-85.679,51.148-135.994,51.148
			c-50.324,0-98.451-18.138-135.998-51.151v-22.014c0-5.172-4.193-9.366-9.366-9.366h-3.494c7.918-8.93,12.74-20.665,12.74-33.509
			c0-27.887-22.688-50.575-50.575-50.575c-27.887,0-50.575,22.688-50.575,50.575c0,12.845,4.821,24.579,12.74,33.509h-3.493
			c-5.172,0-9.366,4.193-9.366,9.366v29.97c0,5.172,4.193,9.366,9.366,9.366h12.965L21.231,435.564H9.366
			c-5.172,0-9.366,4.193-9.366,9.366v44.638c0,5.172,4.193,9.366,9.366,9.366h119.889c5.172,0,9.366-4.193,9.366-9.366V444.93
			c0-5.172-4.193-9.366-9.366-9.366H117.39l-17.067-250.785c44.807,33.077,99.304,51.096,155.679,51.096
			c56.372,0,110.868-18.021,155.676-51.103l-17.067,250.793h-11.866c-5.172,0-9.366,4.193-9.366,9.366v44.638
			c0,5.172,4.193,9.366,9.366,9.366h119.889c5.172,0,9.366-4.193,9.366-9.366V444.93C512,439.758,507.807,435.564,502.634,435.564z
			 M471.995,435.564h-58.609l19.715-289.713h19.178L471.995,435.564z M442.69,31.797c17.559,0,31.843,14.285,31.843,31.843
			s-14.285,31.843-31.843,31.843s-31.843-14.285-31.843-31.843S425.131,31.797,442.69,31.797z M410.728,115.881h63.925v11.239
			h-63.925V115.881z M69.31,31.797c17.559,0,31.843,14.285,31.843,31.843S86.869,95.484,69.31,95.484S37.467,81.199,37.467,63.641
			S51.751,31.797,69.31,31.797z M37.348,127.12v-11.239h63.925v11.239H37.348z M59.721,145.852h19.178l19.715,289.713H40.005
			L59.721,145.852z M108.64,454.296h11.249v25.907H18.731v-25.907H29.98H108.64z M256.003,217.143
			c-57.873,0-113.607-20.436-157.396-57.604l-0.932-13.688h12.965c0.251,0,0.497-0.019,0.743-0.037
			c40.401,33.981,91.387,52.598,144.62,52.598c53.227,0,104.214-18.617,144.62-52.598c0.245,0.019,0.49,0.037,0.739,0.037h12.965
			l-0.93,13.679C369.604,196.705,313.871,217.143,256.003,217.143z M493.269,480.203H392.111v-25.907h11.249h78.659h11.249V480.203z
			"/>
	</g>
</g>
<g>
</g>
<g>
</g>
<g>
</g>
<g>
</g>
<g>
</g>
<g>
</g>
<g>
</g>
<g>
</g>
<g>
</g>
<g>
</g>
<g>
</g>
<g>
</g>
<g>
</g>
<g>
</g>
<g>
</g>
</svg>
