<?xml version="1.0" encoding="iso-8859-1"?>
<!-- Generator: Adobe Illustrator 19.0.0, SVG Export Plug-In . SVG Version: 6.00 Build 0)  -->
<svg version="1.1" id="Layer_1" xmlns="http://www.w3.org/2000/svg" xmlns:xlink="http://www.w3.org/1999/xlink" x="0px" y="0px"
	 viewBox="0 0 512 512" style="enable-background:new 0 0 512 512;" xml:space="preserve">
<g>
	<g>
		<path d="M482.114,0H29.886c-5.245,0-9.497,4.252-9.497,9.497v493.006c0,5.245,4.252,9.497,9.497,9.497h452.229
			c5.245,0,9.497-4.252,9.497-9.497V9.497C491.611,4.252,487.359,0,482.114,0z M160.084,18.994h191.83v65.709
			c0,6.48-5.272,11.751-11.751,11.751H171.835c-6.48,0-11.751-5.272-11.751-11.751V18.994z M100.483,493.006h-61.1V18.994h61.1
			V493.006z M351.914,493.006h-191.83v-65.708c0-6.48,5.272-11.751,11.751-11.751h168.328c6.48,0,11.751,5.272,11.751,11.751
			V493.006z M392.521,493.006h-21.612v-65.708c0-16.953-13.792-30.745-30.746-30.745H171.835c-16.953,0-30.745,13.792-30.745,30.745
			v65.708h-21.612V18.994h21.612v65.709c0,16.953,13.792,30.745,30.745,30.745h168.328c16.953,0,30.746-13.792,30.746-30.745V18.994
			h21.612V493.006z M472.617,493.006h-61.101V18.994h61.101V493.006z"/>
	</g>
</g>
<g>
	<g>
		<path d="M451.977,33.767h-19.806c-5.245,0-9.497,4.252-9.497,9.497c0,5.245,4.252,9.497,9.497,9.497h19.806
			c5.245,0,9.497-4.252,9.497-9.497C461.474,38.019,457.222,33.767,451.977,33.767z"/>
	</g>
</g>
<g>
	<g>
		<path d="M451.977,76.314h-19.806c-5.245,0-9.497,4.252-9.497,9.497c0,5.245,4.252,9.497,9.497,9.497h19.806
			c5.245,0,9.497-4.252,9.497-9.497C461.474,80.566,457.222,76.314,451.977,76.314z"/>
	</g>
</g>
<g>
	<g>
		<path d="M451.977,118.861h-19.806c-5.245,0-9.497,4.252-9.497,9.497c0,5.245,4.252,9.497,9.497,9.497h19.806
			c5.245,0,9.497-4.252,9.497-9.497C461.474,123.114,457.222,118.861,451.977,118.861z"/>
	</g>
</g>
<g>
	<g>
		<path d="M451.977,161.409h-19.806c-5.245,0-9.497,4.252-9.497,9.497c0,5.245,4.252,9.497,9.497,9.497h19.806
			c5.245,0,9.497-4.252,9.497-9.497C461.474,165.661,457.222,161.409,451.977,161.409z"/>
	</g>
</g>
<g>
	<g>
		<path d="M451.977,203.955h-19.806c-5.245,0-9.497,4.252-9.497,9.497c0,5.245,4.252,9.497,9.497,9.497h19.806
			c5.245,0,9.497-4.252,9.497-9.497C461.474,208.207,457.222,203.955,451.977,203.955z"/>
	</g>
</g>
<g>
	<g>
		<path d="M451.977,246.503h-19.806c-5.245,0-9.497,4.252-9.497,9.497c0,5.245,4.252,9.497,9.497,9.497h19.806
			c5.245,0,9.497-4.252,9.497-9.497C461.474,250.756,457.222,246.503,451.977,246.503z"/>
	</g>
</g>
<g>
	<g>
		<path d="M451.977,289.051h-19.806c-5.245,0-9.497,4.252-9.497,9.497s4.252,9.497,9.497,9.497h19.806
			c5.245,0,9.497-4.252,9.497-9.497S457.222,289.051,451.977,289.051z"/>
	</g>
</g>
<g>
	<g>
		<path d="M451.977,331.598h-19.806c-5.245,0-9.497,4.252-9.497,9.497s4.252,9.497,9.497,9.497h19.806
			c5.245,0,9.497-4.252,9.497-9.497S457.222,331.598,451.977,331.598z"/>
	</g>
</g>
<g>
	<g>
		<path d="M451.977,374.145h-19.806c-5.245,0-9.497,4.252-9.497,9.497c0,5.245,4.252,9.497,9.497,9.497h19.806
			c5.245,0,9.497-4.252,9.497-9.497C461.474,378.398,457.222,374.145,451.977,374.145z"/>
	</g>
</g>
<g>
	<g>
		<path d="M451.977,416.691h-19.806c-5.245,0-9.497,4.252-9.497,9.497c0,5.245,4.252,9.497,9.497,9.497h19.806
			c5.245,0,9.497-4.252,9.497-9.497C461.474,420.944,457.222,416.691,451.977,416.691z"/>
	</g>
</g>
<g>
	<g>
		<path d="M451.977,459.24h-19.806c-5.245,0-9.497,4.252-9.497,9.497c0,5.245,4.252,9.497,9.497,9.497h19.806
			c5.245,0,9.497-4.252,9.497-9.497C461.474,463.492,457.222,459.24,451.977,459.24z"/>
	</g>
</g>
<g>
	<g>
		<path d="M79.828,33.767H60.023c-5.245,0-9.497,4.252-9.497,9.497c0,5.245,4.252,9.497,9.497,9.497h19.805
			c5.245,0,9.497-4.252,9.497-9.497C89.325,38.019,85.073,33.767,79.828,33.767z"/>
	</g>
</g>
<g>
	<g>
		<path d="M79.828,76.314H60.023c-5.245,0-9.497,4.252-9.497,9.497c0,5.245,4.252,9.497,9.497,9.497h19.805
			c5.245,0,9.497-4.252,9.497-9.497C89.325,80.566,85.073,76.314,79.828,76.314z"/>
	</g>
</g>
<g>
	<g>
		<path d="M79.828,118.861H60.023c-5.245,0-9.497,4.252-9.497,9.497c0,5.245,4.252,9.497,9.497,9.497h19.805
			c5.245,0,9.497-4.252,9.497-9.497C89.325,123.114,85.073,118.861,79.828,118.861z"/>
	</g>
</g>
<g>
	<g>
		<path d="M79.828,161.409H60.023c-5.245,0-9.497,4.252-9.497,9.497c0,5.245,4.252,9.497,9.497,9.497h19.805
			c5.245,0,9.497-4.252,9.497-9.497C89.325,165.661,85.073,161.409,79.828,161.409z"/>
	</g>
</g>
<g>
	<g>
		<path d="M79.828,203.955H60.023c-5.245,0-9.497,4.252-9.497,9.497c0,5.245,4.252,9.497,9.497,9.497h19.805
			c5.245,0,9.497-4.252,9.497-9.497C89.325,208.207,85.073,203.955,79.828,203.955z"/>
	</g>
</g>
<g>
	<g>
		<path d="M79.828,246.503H60.023c-5.245,0-9.497,4.252-9.497,9.497c0,5.245,4.252,9.497,9.497,9.497h19.805
			c5.245,0,9.497-4.252,9.497-9.497C89.325,250.756,85.073,246.503,79.828,246.503z"/>
	</g>
</g>
<g>
	<g>
		<path d="M79.828,289.051H60.023c-5.245,0-9.497,4.252-9.497,9.497s4.252,9.497,9.497,9.497h19.805
			c5.245,0,9.497-4.252,9.497-9.497S85.073,289.051,79.828,289.051z"/>
	</g>
</g>
<g>
	<g>
		<path d="M79.828,331.598H60.023c-5.245,0-9.497,4.252-9.497,9.497s4.252,9.497,9.497,9.497h19.805
			c5.245,0,9.497-4.252,9.497-9.497S85.073,331.598,79.828,331.598z"/>
	</g>
</g>
<g>
	<g>
		<path d="M79.828,374.145H60.023c-5.245,0-9.497,4.252-9.497,9.497c0,5.245,4.252,9.497,9.497,9.497h19.805
			c5.245,0,9.497-4.252,9.497-9.497C89.325,378.398,85.073,374.145,79.828,374.145z"/>
	</g>
</g>
<g>
	<g>
		<path d="M79.828,416.691H60.023c-5.245,0-9.497,4.252-9.497,9.497c0,5.245,4.252,9.497,9.497,9.497h19.805
			c5.245,0,9.497-4.252,9.497-9.497C89.325,420.944,85.073,416.691,79.828,416.691z"/>
	</g>
</g>
<g>
	<g>
		<path d="M79.828,459.24H60.023c-5.245,0-9.497,4.252-9.497,9.497c0,5.245,4.252,9.497,9.497,9.497h19.805
			c5.245,0,9.497-4.252,9.497-9.497C89.325,463.492,85.073,459.24,79.828,459.24z"/>
	</g>
</g>
<g>
	<g>
		<path d="M370.91,180.383c0-16.953-13.792-30.746-30.747-30.746H171.835c-16.953,0-30.745,13.792-30.745,30.746v151.235
			c0,16.953,13.792,30.745,30.745,30.745h168.329c16.954,0,30.747-13.792,30.747-30.745V180.383H370.91z M351.917,331.617h-0.001
			c0,6.48-5.273,11.751-11.752,11.751H171.835c-6.48,0-11.751-5.272-11.751-11.751V180.383c0-6.48,5.272-11.751,11.751-11.751
			h168.329c6.48,0,11.752,5.272,11.752,11.751V331.617z"/>
	</g>
</g>
<g>
</g>
<g>
</g>
<g>
</g>
<g>
</g>
<g>
</g>
<g>
</g>
<g>
</g>
<g>
</g>
<g>
</g>
<g>
</g>
<g>
</g>
<g>
</g>
<g>
</g>
<g>
</g>
<g>
</g>
</svg>
