<?xml version="1.0" encoding="iso-8859-1"?>
<!-- Generator: Adobe Illustrator 19.0.0, SVG Export Plug-In . SVG Version: 6.00 Build 0)  -->
<svg version="1.1" id="Layer_1" xmlns="http://www.w3.org/2000/svg" xmlns:xlink="http://www.w3.org/1999/xlink" x="0px" y="0px"
	 viewBox="0 0 512 512" style="enable-background:new 0 0 512 512;" xml:space="preserve">
<g>
	<g>
		<path d="M372.374,48.205C341.29,17.119,299.961,0,256,0c-43.96,0-85.289,17.119-116.374,48.204
			c-53.785,53.785-63.78,136.76-24.309,201.78l132.666,218.532c1.701,2.801,4.74,4.512,8.017,4.512s6.318-1.71,8.017-4.511
			l132.666-218.534C436.156,184.964,426.159,101.989,372.374,48.205z M380.648,240.248L256,445.575L131.352,240.248
			c-34.972-57.608-26.116-131.126,21.539-178.78c27.541-27.541,64.159-42.71,103.11-42.71s75.57,15.168,103.11,42.71
			C406.764,109.122,415.621,182.64,380.648,240.248z"/>
	</g>
</g>
<g>
	<g>
		<path d="M256,56.262c-59.729,0-108.319,48.591-108.319,108.319c0,59.729,48.592,108.319,108.319,108.319
			c59.729,0,108.319-48.592,108.319-108.319C364.319,104.854,315.728,56.262,256,56.262z M256,254.142
			c-49.385,0-89.561-40.177-89.561-89.561c0-49.384,40.177-89.561,89.561-89.561c49.385,0,89.561,40.176,89.561,89.561
			C345.561,213.966,305.385,254.142,256,254.142z"/>
	</g>
</g>
<g>
	<g>
		<path d="M308.436,156.46l-67.528-38.988c-2.901-1.676-6.478-1.676-9.379,0c-2.901,1.676-4.69,4.771-4.69,8.122v77.974
			c0,3.352,1.788,6.447,4.69,8.122c1.451,0.838,3.07,1.257,4.69,1.257c1.62,0,3.239-0.419,4.69-1.257l67.528-38.987
			c2.901-1.676,4.69-4.771,4.69-8.122C313.126,161.231,311.337,158.136,308.436,156.46z M245.598,187.324V141.84l39.39,22.743
			L245.598,187.324z"/>
	</g>
</g>
<g>
	<g>
		<path d="M309.459,493.241H202.54c-5.18,0-9.379,4.199-9.379,9.379S197.36,512,202.54,512h106.919c5.18,0,9.379-4.199,9.379-9.379
			S314.639,493.241,309.459,493.241z"/>
	</g>
</g>
<g>
</g>
<g>
</g>
<g>
</g>
<g>
</g>
<g>
</g>
<g>
</g>
<g>
</g>
<g>
</g>
<g>
</g>
<g>
</g>
<g>
</g>
<g>
</g>
<g>
</g>
<g>
</g>
<g>
</g>
</svg>
