<?xml version="1.0" encoding="iso-8859-1"?>
<!-- Generator: Adobe Illustrator 19.0.0, SVG Export Plug-In . SVG Version: 6.00 Build 0)  -->
<svg version="1.1" id="Layer_1" xmlns="http://www.w3.org/2000/svg" xmlns:xlink="http://www.w3.org/1999/xlink" x="0px" y="0px"
	 viewBox="0 0 512.001 512.001" style="enable-background:new 0 0 512.001 512.001;" xml:space="preserve">
<g>
	<g>
		<path d="M503.08,151.975h-40.818c-23.005-18.639-52.275-29.833-84.121-29.833c-31.851,0-61.134,11.188-84.14,29.833H8.92
			c-4.926,0-8.92,3.994-8.92,8.92v188.349c0,4.926,3.994,8.92,8.92,8.92h17.19v22.774c0,4.926,3.994,8.92,8.92,8.92h70.86
			c4.926,0,8.92-3.994,8.92-8.92v-22.774h176.944c23.332,19.759,53.488,31.694,86.387,31.694c32.897,0,63.052-11.937,86.384-31.694
			h38.555c4.926,0,8.92-3.994,8.92-8.92V160.895C512,155.969,508.006,151.975,503.08,151.975z M96.971,372.019h-53.02v-13.854h53.02
			V372.019z M17.841,340.324V169.816h257.967c-19.658,23.303-31.526,53.383-31.526,86.186c0,31.936,11.248,61.29,29.982,84.323
			H17.841z M494.159,340.324h-12.13c4.499-5.532,8.548-11.441,12.13-17.65V340.324z M378.142,372.019
			c-63.973,0-116.019-52.046-116.019-116.018s52.046-116.019,116.019-116.019S494.159,192.027,494.159,256
			S442.114,372.019,378.142,372.019z M494.159,189.325c-3.99-6.916-8.577-13.442-13.696-19.51h13.696V189.325z"/>
	</g>
</g>
<g>
	<g>
		<path d="M378.146,163.863c-50.805,0-92.138,41.332-92.138,92.137c0,50.805,41.333,92.137,92.138,92.137
			s92.137-41.332,92.137-92.137C470.283,205.195,428.951,163.863,378.146,163.863z M378.146,330.298
			c-40.968,0-74.298-33.33-74.298-74.297s33.33-74.297,74.298-74.297c40.967,0,74.297,33.33,74.297,74.297
			S419.112,330.298,378.146,330.298z"/>
	</g>
</g>
<g>
	<g>
		<path d="M378.146,193.352c-4.926,0-8.92,3.994-8.92,8.92s3.994,8.92,8.92,8.92c24.707,0,44.807,20.1,44.807,44.807
			c0,4.926,3.994,8.92,8.92,8.92s8.92-3.994,8.92-8.92C440.793,221.457,412.69,193.352,378.146,193.352z"/>
	</g>
</g>
<g>
	<g>
		<path d="M221.506,193.004H38.76c-4.926,0-8.92,3.994-8.92,8.92v37.295c0,4.926,3.994,8.92,8.92,8.92h182.746
			c4.926,0,8.92-3.994,8.92-8.92v-37.295C230.427,196.998,226.433,193.004,221.506,193.004z M70.865,230.299H47.681v-19.455h23.184
			V230.299z M121.214,230.299H88.706v-19.455h32.508V230.299z M212.586,230.299h-73.532v-19.455h73.532V230.299z"/>
	</g>
</g>
<g>
	<g>
		<path d="M221.506,261.999H38.76c-4.926,0-8.92,3.994-8.92,8.92v37.295c0,4.926,3.994,8.92,8.92,8.92h182.746
			c4.926,0,8.92-3.994,8.92-8.92V270.92C230.427,265.993,226.433,261.999,221.506,261.999z M145.456,299.294H47.681V279.84h97.775
			V299.294z M179.02,299.294h-15.725V279.84h15.725V299.294z M212.586,299.294h-15.725V279.84h15.725V299.294z"/>
	</g>
</g>
<g>
</g>
<g>
</g>
<g>
</g>
<g>
</g>
<g>
</g>
<g>
</g>
<g>
</g>
<g>
</g>
<g>
</g>
<g>
</g>
<g>
</g>
<g>
</g>
<g>
</g>
<g>
</g>
<g>
</g>
</svg>
