<?xml version="1.0" encoding="iso-8859-1"?>
<!-- Generator: Adobe Illustrator 19.0.0, SVG Export Plug-In . SVG Version: 6.00 Build 0)  -->
<svg version="1.1" id="Layer_1" xmlns="http://www.w3.org/2000/svg" xmlns:xlink="http://www.w3.org/1999/xlink" x="0px" y="0px"
	 viewBox="0 0 512.004 512.004" style="enable-background:new 0 0 512.004 512.004;" xml:space="preserve">
<g>
	<g>
		<path d="M496.881,209.733c-8.312-7.452-19.024-11.17-30.166-10.472c-11.141,0.699-21.305,5.727-28.621,14.158l-41.544,47.88
			L435.009,144c1.176-3.587,1.876-7.213,2.143-10.81c10.588-8.369,16.782-21.219,17.953-37.428
			c0.905-12.527-1.536-22.842-1.639-23.276c-0.664-2.757-2.597-5.035-5.208-6.141c-2.611-1.105-5.592-0.906-8.034,0.537
			l-28.04,16.566l-8.42-31.461c-0.733-2.739-2.722-4.969-5.361-6.008c-2.64-1.04-5.614-0.767-8.019,0.737
			c-0.378,0.236-9.342,5.891-17.468,15.469c-10.123,11.932-14.745,24.902-13.558,37.801c-4.062,4.475-7.228,9.764-9.217,15.574
			l-25.914,75.697l6.41-116.182c16.701-1.177,29.933-15.131,29.933-32.128c0-17.765-14.452-32.217-32.217-32.217
			c-9.874,0-19.024,4.574-25.043,11.989c-5.692-2.652-11.912-4.172-18.385-4.431c-2.856-0.115-5.662,0.042-8.406,0.42
			C271.374,7.587,260.101,0,247.272,0c-17.765,0-32.217,14.452-32.217,32.217c0,13.339,8.3,25,20.107,29.828
			c-0.047,0.521-0.098,1.041-0.128,1.566l-5.577,99.679l-12.449-80.919c-1.904-12.38-8.605-23.152-18.87-30.332
			c-10.264-7.18-22.681-9.781-34.964-7.325c-21.447,4.29-36.339,22.68-36.539,43.987l-38.692,25.5
			c-2.875,1.893-4.406,5.269-3.94,8.68c0.467,3.41,2.85,6.25,6.128,7.302l42.338,13.589l15.427,137.218
			c0.661,5.868-3.547,8.685-4.852,9.409c-1.303,0.723-5.913,2.795-10.533-0.867c-16.594-13.154-36.34-28.811-52.664-41.769
			c-10.372-8.233-23.828-11.815-36.91-9.827c-13.15,1.997-25.014,9.479-32.544,20.524l-0.594,0.87
			c-7.387,10.834-9.986,23.872-7.321,36.711c2.666,12.839,10.241,23.763,21.331,30.763l4.618,2.914
			c29.991,18.927,54.681,45.467,71.4,76.749c6.391,11.959,15.635,22.207,26.731,29.637c11.449,7.666,18.977,19.999,20.655,33.839
			l4.145,34.194c0.544,4.49,4.354,7.867,8.877,7.867h208.828c4.259,0,7.928-3.005,8.767-7.18
			c9.809-48.8,28.706-94.588,56.166-136.09l69.762-105.436C514.977,246.334,512.022,223.308,496.881,209.733z M113.376,118.859
			l15.168-9.995l1.734,15.419L113.376,118.859z M437.409,89.319c0.077,6.56-0.822,14.601-4.461,21.453
			c-2.333-4.893-5.565-9.361-9.581-13.158L437.409,89.319z M390.06,69.974l4.116,15.379c-5.299-0.199-10.624,0.535-15.706,2.206
			C380.787,80.482,385.59,74.425,390.06,69.974z M367.062,121.352c2.449-7.153,7.602-12.783,14.512-15.852
			c6.91-3.07,14.543-3.119,21.491-0.142c12.892,5.527,19.317,19.743,14.948,33.069l-10.092,30.779l-50.73-19.023L367.062,121.352z
			 M328.351,28.616c7.903,0,14.332,6.429,14.332,14.332c0,7.279-5.459,13.295-12.496,14.201
			c-1.643-8.567-5.609-16.544-11.636-23.173c-0.234-0.258-0.479-0.5-0.718-0.751C320.502,30.355,324.29,28.616,328.351,28.616z
			 M284.208,36.16c8.135,0.326,15.633,3.823,21.111,9.848c5.476,6.025,8.246,13.819,7.798,21.95l-2.003,36.302l-60.128-5.587
			l1.905-34.061C253.806,48.269,267.871,35.515,284.208,36.16z M232.94,32.217c0-7.903,6.429-14.332,14.332-14.332
			c5.047,0,9.547,2.639,12.102,6.663c-8.17,4.662-14.894,11.652-19.202,20.091C235.851,42.154,232.94,37.484,232.94,32.217z
			 M144.687,92.372c-1.611-14.34,7.843-27.288,21.994-30.119c7.45-1.489,14.981,0.088,21.206,4.443
			c6.225,4.354,10.289,10.887,11.444,18.396l8.265,53.728l-56.666,9.084L144.687,92.372z M419.078,358.861
			c-27.389,41.396-46.64,86.865-57.274,135.254H168.158l-3.192-26.328c-2.305-19.016-12.678-35.982-28.459-46.548
			c-8.666-5.802-15.896-13.826-20.908-23.206c-18.177-34.01-45.021-62.865-77.629-83.444l-4.618-2.914
			c-6.948-4.384-11.693-11.228-13.364-19.273c-1.67-8.044-0.042-16.211,4.585-22.997l0.594-0.87
			c4.812-7.059,12.076-11.647,20.454-12.919c8.31-1.264,16.515,0.923,23.104,6.154c16.328,12.961,36.077,28.62,52.674,41.776
			c1.911,1.516,3.959,2.73,6.085,3.676c12.691,6.643,29.426,10.195,47.013,13.921c23.31,4.939,49.73,10.537,69.825,24.18
			c22.327,15.158,34.021,38.682,35.751,71.915c0.248,4.774,4.197,8.478,8.922,8.478c0.156,0,0.315-0.004,0.472-0.012
			c4.933-0.256,8.722-4.463,8.466-9.396c-4.596-88.268-71.143-102.367-119.731-112.661c-6.397-1.356-12.664-2.688-18.56-4.131
			c4.654-5.581,6.887-12.854,6.024-20.525L152.93,165.696l57.385-9.199l9.224,59.954c0.996,6.472,6.476,10.936,13.005,10.623
			c6.54-0.317,11.553-5.292,11.919-11.829l5.522-98.705l60.141,5.589l-4.706,85.31c-0.43,7.818,4.835,14.579,12.52,16.076
			c7.688,1.499,15.103-2.792,17.638-10.199l15.818-46.205l50.948,19.104l-23.94,73.019c-2.574,7.849,0.646,16.178,7.834,20.252
			c7.185,4.074,15.987,2.562,21.401-3.678l9.188-10.589l43.332,31.552L419.078,358.861z M488.84,253.424l-18.802,28.417
			l-41.447-30.18l14.344-16.532c0.665,4.282,4.357,7.561,8.826,7.561c4.939,0,8.943-4.004,8.943-8.943
			c0-4.886-3.922-8.851-8.788-8.934c4.124-4.577,9.752-7.317,15.92-7.704c6.316-0.393,12.394,1.713,17.108,5.939
			C493.528,230.748,495.205,243.806,488.84,253.424z"/>
	</g>
</g>
<g>
	<g>
		<circle cx="160.229" cy="98.416" r="8.943"/>
	</g>
</g>
<g>
	<g>
		<circle cx="265.752" cy="67.415" r="8.943"/>
	</g>
</g>
<g>
	<g>
		<circle cx="297.945" cy="69.204" r="8.943"/>
	</g>
</g>
<g>
	<g>
		<circle cx="379.621" cy="128.225" r="8.943"/>
	</g>
</g>
<g>
	<g>
		<circle cx="403.468" cy="138.36" r="8.943"/>
	</g>
</g>
<g>
	<g>
		<circle cx="474.413" cy="248.652" r="8.943"/>
	</g>
</g>
<g>
</g>
<g>
</g>
<g>
</g>
<g>
</g>
<g>
</g>
<g>
</g>
<g>
</g>
<g>
</g>
<g>
</g>
<g>
</g>
<g>
</g>
<g>
</g>
<g>
</g>
<g>
</g>
<g>
</g>
</svg>
