<?xml version="1.0" encoding="iso-8859-1"?>
<!-- Generator: Adobe Illustrator 19.0.0, SVG Export Plug-In . SVG Version: 6.00 Build 0)  -->
<svg version="1.1" id="Layer_1" xmlns="http://www.w3.org/2000/svg" xmlns:xlink="http://www.w3.org/1999/xlink" x="0px" y="0px"
	 viewBox="0 0 512.001 512.001" style="enable-background:new 0 0 512.001 512.001;" xml:space="preserve">
<g>
	<g>
		<path d="M416.117,4.799c-1.525-3.155-4.827-5.049-8.324-4.773c-12.921,1.029-29.137,11.718-49.575,32.68
			c-15.769,16.175-34.151,38.555-54.635,66.52c-34.184,46.669-67.491,99.934-80.456,122.546
			c-20.263,35.344-4.382,76.308,1.851,89.657l-20.007,34.893h-67.244c-16.959,0-30.755,13.797-30.755,30.755
			c0,5.87,1.655,11.359,4.52,16.031c-11.237,4.582-19.18,15.622-19.18,28.487v59.651c0,16.959,13.797,30.755,30.755,30.755h134.101
			c16.959,0,30.755-13.797,30.755-30.755v-59.651c0-12.865-7.942-23.903-19.179-28.487c2.865-4.672,4.52-10.162,4.52-16.031
			c0-16.959-13.797-30.755-30.755-30.755h-17.95l15.16-26.438c14.666-1.364,58.045-8.35,78.312-43.696
			c12.964-22.609,42.107-78.261,65.116-131.34c13.787-31.804,23.816-58.974,29.809-80.754
			C420.724,35.864,421.758,16.47,416.117,4.799z M270.933,481.245c-0.001,7.588-6.175,13.762-13.763,13.762H123.069
			c-7.588,0-13.762-6.174-13.762-13.762v-38.27h161.626V481.245z M270.929,421.592v4.389H109.306v-4.389
			c0-7.589,6.174-13.762,13.762-13.762h14.66h104.781h14.659C264.755,407.831,270.929,414.005,270.929,421.592z M242.51,363.314
			c7.588-0.001,13.762,6.173,13.762,13.762c0,7.589-6.174,13.762-13.762,13.762H137.73c-7.588,0-13.762-6.174-13.762-13.762
			s6.174-13.762,13.762-13.762H242.51z M367.557,138.086c-22.734,52.445-51.485,107.356-64.267,129.648
			c-12.252,21.369-36.537,29.898-52.754,33.284L386.01,64.744c2.334-4.07,0.926-9.262-3.145-11.597
			c-4.068-2.334-9.263-0.927-11.596,3.145L235.796,292.563c-5.27-15.71-10.175-40.974,2.074-62.34
			c12.783-22.293,45.649-74.845,79.424-120.956c47.927-65.435,73.129-84.905,85.199-90.353
			C403.891,32.084,399.817,63.669,367.557,138.086z"/>
	</g>
</g>
<g>
</g>
<g>
</g>
<g>
</g>
<g>
</g>
<g>
</g>
<g>
</g>
<g>
</g>
<g>
</g>
<g>
</g>
<g>
</g>
<g>
</g>
<g>
</g>
<g>
</g>
<g>
</g>
<g>
</g>
</svg>
