<?xml version="1.0" encoding="iso-8859-1"?>
<!-- Generator: Adobe Illustrator 19.0.0, SVG Export Plug-In . SVG Version: 6.00 Build 0)  -->
<svg version="1.1" id="Layer_1" xmlns="http://www.w3.org/2000/svg" xmlns:xlink="http://www.w3.org/1999/xlink" x="0px" y="0px"
	 viewBox="0 0 512.002 512.002" style="enable-background:new 0 0 512.002 512.002;" xml:space="preserve">
<g>
	<g>
		<path d="M428.439,202.43h-17.434c-13.002,0-23.581,10.579-23.581,23.581c0,11.759,8.661,21.506,19.933,23.268v43.302
			c0,7.305-4.432,13.59-10.747,16.319c-3.035-9.517-10.265-17.172-19.505-20.796v-167C377.104,54.327,322.778,0,256.002,0
			S134.899,54.327,134.899,121.103v167.002c-9.24,3.624-16.47,11.279-19.505,20.797c-6.315-2.729-10.748-9.014-10.748-16.319V249.28
			c11.272-1.762,19.933-11.509,19.933-23.268c0-13.002-10.577-23.58-23.58-23.58H83.565c-13.002,0-23.58,10.578-23.58,23.58
			s10.577,23.58,23.58,23.58h3.91v42.991c0,16.634,11.687,30.582,27.279,34.087c2.826,11.775,11.956,21.12,23.609,24.252v152.494
			c0,4.742,3.843,8.586,8.586,8.586c4.743,0,8.586-3.844,8.586-8.586V392.044h200.934v111.373c0,4.742,3.843,8.586,8.586,8.586
			c4.743,0,8.586-3.844,8.586-8.586V350.921c11.655-3.132,20.784-12.477,23.61-24.252c15.591-3.505,27.278-17.453,27.278-34.087
			v-42.991h3.91c13.002,0,23.58-10.578,23.58-23.58C452.019,213.008,441.442,202.43,428.439,202.43z M83.566,232.42
			c-3.534,0-6.409-2.876-6.409-6.409c0-3.534,2.876-6.409,6.409-6.409H101c3.534,0,6.409,2.876,6.409,6.409
			s-2.876,6.409-6.409,6.409H83.566z M152.07,121.103c0-57.308,46.624-103.932,103.932-103.932s103.931,46.624,103.931,103.932
			v164.722H152.07V121.103z M356.469,374.871H155.536v-22.816h200.933V374.871z M365.055,334.884H146.95
			c-8.792,0-15.944-7.152-15.944-15.944s7.152-15.944,15.944-15.944h218.105c8.793,0,15.945,7.152,15.945,15.944
			S373.847,334.884,365.055,334.884z M428.439,232.42h-17.434c-3.534,0-6.409-2.876-6.409-6.409s2.876-6.409,6.409-6.409h17.434
			c3.534,0,6.409,2.876,6.409,6.409C434.848,229.544,431.972,232.42,428.439,232.42z"/>
	</g>
</g>
<g>
</g>
<g>
</g>
<g>
</g>
<g>
</g>
<g>
</g>
<g>
</g>
<g>
</g>
<g>
</g>
<g>
</g>
<g>
</g>
<g>
</g>
<g>
</g>
<g>
</g>
<g>
</g>
<g>
</g>
</svg>
