<?xml version="1.0" encoding="iso-8859-1"?>
<!-- Generator: Adobe Illustrator 19.0.0, SVG Export Plug-In . SVG Version: 6.00 Build 0)  -->
<svg version="1.1" id="Layer_1" xmlns="http://www.w3.org/2000/svg" xmlns:xlink="http://www.w3.org/1999/xlink" x="0px" y="0px"
	 viewBox="0 0 512.001 512.001" style="enable-background:new 0 0 512.001 512.001;" xml:space="preserve">
<g>
	<g>
		<path d="M469.08,83.958c-2.265-1.733-5.209-2.311-7.964-1.566l-97.163,26.331l26.331-97.164c0.746-2.754,0.167-5.698-1.566-7.964
			C386.985,1.329,384.294,0,381.442,0H130.561c-2.853,0-5.544,1.329-7.277,3.595c-1.733,2.266-2.313,5.21-1.566,7.964l26.331,97.164
			L50.886,82.392c-2.754-0.745-5.698-0.166-7.964,1.566c-2.266,1.732-3.595,4.424-3.595,7.277v250.88
			c0,2.853,1.329,5.544,3.595,7.277c1.616,1.236,3.577,1.885,5.568,1.885c0.8,0,1.606-0.105,2.396-0.319l97.163-26.331
			l-26.331,97.164c-0.746,2.754-0.167,5.698,1.566,7.964c1.734,2.266,4.424,3.595,7.277,3.595h96.562v69.489
			c0,5.06,4.102,9.162,9.162,9.162h39.432c5.06,0,9.162-4.102,9.162-9.162V433.35h96.562c2.853,0,5.544-1.329,7.277-3.595
			s2.313-5.21,1.566-7.964l-26.331-97.164l97.163,26.331c0.79,0.214,1.595,0.319,2.396,0.319c1.99,0,3.952-0.649,5.568-1.885
			c2.266-1.733,3.595-4.424,3.595-7.277V91.235C472.676,88.382,471.346,85.691,469.08,83.958z M142.536,18.325h226.929
			l-25.543,94.256H168.081L142.536,18.325z M341.77,130.905v171.538H170.232V130.905H341.77z M57.651,330.139V103.211l94.256,25.543
			v175.842L57.651,330.139z M266.554,493.675h-21.107v-60.327h21.107V493.675z M369.465,415.024H142.536l25.543-94.256h175.842
			L369.465,415.024z M454.351,330.139l-94.256-25.543V128.754l94.256-25.543V330.139z"/>
	</g>
</g>
<g>
	<g>
		<path d="M256.001,141.79c-41.291,0-74.885,33.594-74.885,74.885c0,41.291,33.594,74.885,74.885,74.885
			c41.292,0,74.885-33.594,74.885-74.885C330.887,175.383,297.293,141.79,256.001,141.79z M256.001,273.235
			c-31.187,0-56.56-25.373-56.56-56.56c0-31.187,25.373-56.56,56.56-56.56s56.56,25.373,56.56,56.56
			C312.561,247.862,287.189,273.235,256.001,273.235z"/>
	</g>
</g>
<g>
</g>
<g>
</g>
<g>
</g>
<g>
</g>
<g>
</g>
<g>
</g>
<g>
</g>
<g>
</g>
<g>
</g>
<g>
</g>
<g>
</g>
<g>
</g>
<g>
</g>
<g>
</g>
<g>
</g>
</svg>
