<?xml version="1.0" encoding="iso-8859-1"?>
<!-- Generator: Adobe Illustrator 19.0.0, SVG Export Plug-In . SVG Version: 6.00 Build 0)  -->
<svg version="1.1" id="Layer_1" xmlns="http://www.w3.org/2000/svg" xmlns:xlink="http://www.w3.org/1999/xlink" x="0px" y="0px"
	 viewBox="0 0 512 512" style="enable-background:new 0 0 512 512;" xml:space="preserve">
<g>
	<g>
		<path d="M221.51,169.641c-0.991-2.572-3.146-4.521-5.805-5.253c-2.657-0.731-5.506-0.158-7.675,1.545
			c-26.437,20.762-58.135,32.991-91.67,35.363c-2.75,0.195-5.245,1.682-6.724,4.009c-1.479,2.327-1.765,5.218-0.773,7.79
			c5.803,15.045,17.118,26.929,31.86,33.462c7.83,3.47,16.127,5.211,24.442,5.211c7.339,0.001,14.693-1.355,21.748-4.076
			c15.045-5.803,26.929-17.118,33.464-31.86C226.911,201.09,227.313,184.686,221.51,169.641z M204.482,208.787
			c-4.653,10.497-13.113,18.552-23.826,22.685c-10.713,4.131-22.394,3.843-32.887-0.808c-6.81-3.018-12.591-7.639-16.941-13.437
			c27.71-3.958,53.993-14.098,77.182-29.774C208.681,194.671,207.5,201.978,204.482,208.787z"/>
	</g>
</g>
<g>
	<g>
		<path d="M402.366,205.307c-1.479-2.329-3.973-3.816-6.724-4.01c-33.533-2.371-65.231-14.6-91.671-35.363
			c-2.169-1.704-5.018-2.276-7.674-1.545c-2.659,0.731-4.813,2.681-5.805,5.253c-5.805,15.045-5.401,31.449,1.134,46.191
			c6.535,14.742,18.419,26.057,33.462,31.86c7.055,2.721,14.407,4.079,21.749,4.079c8.314,0,16.614-1.741,24.443-5.211
			c14.742-6.534,26.057-18.419,31.859-33.463C404.131,210.525,403.845,207.633,402.366,205.307z M364.234,230.665
			c-10.499,4.652-22.179,4.939-32.889,0.807c-10.711-4.132-19.173-12.189-23.826-22.685c-3.018-6.808-4.198-14.116-3.528-21.334
			c23.191,15.676,49.474,25.816,77.184,29.774C376.825,223.025,371.042,227.646,364.234,230.665z"/>
	</g>
</g>
<g>
	<g>
		<path d="M256.001,266.945c-56.136,0-101.806,45.67-101.806,101.806c0,2.757,1.309,5.351,3.525,6.99
			c2.218,1.64,5.081,2.128,7.717,1.321c59.243-18.168,121.877-18.17,181.126,0c0.837,0.256,1.695,0.383,2.549,0.383
			c1.838,0,3.653-0.583,5.168-1.703c2.216-1.639,3.525-4.233,3.525-6.99C357.806,312.614,312.137,266.945,256.001,266.945z
			 M256,346.045c-28.063,0-56.131,3.649-83.602,10.945c5.739-41.004,41.043-72.66,83.604-72.66c42.56,0,77.864,31.655,83.602,72.66
			C312.133,349.694,284.064,346.045,256,346.045z"/>
	</g>
</g>
<g>
	<g>
		<path d="M503.308,346.8c-15.468,0-28.052-12.584-28.052-28.052v-92.883c0-24.974-20.255-45.302-45.199-45.432V65.551
			c0-3.988-2.715-7.466-6.585-8.433c-109.56-27.39-225.381-27.39-334.944,0c-3.87,0.968-6.585,4.445-6.585,8.433v114.882
			c-24.944,0.13-45.199,20.458-45.199,45.432v92.883c0,15.468-12.584,28.052-28.052,28.052C3.891,346.8,0,350.692,0,355.493
			c0,4.801,3.891,8.693,8.693,8.693c25.054,0,45.438-20.383,45.438-45.438v-92.883c0-15.388,12.455-27.916,27.813-28.046v103.55
			c0,95.974,78.081,174.056,174.056,174.056s174.056-78.081,174.056-174.056v-103.55c15.358,0.13,27.813,12.658,27.813,28.046
			v92.883c0,25.054,20.383,45.438,45.438,45.438c4.802,0,8.693-3.892,8.693-8.693C512,350.692,508.11,346.8,503.308,346.8z
			 M412.671,301.369c0,86.388-70.282,156.67-156.67,156.67s-156.67-70.282-156.67-156.67V72.374
			c102.656-24.555,210.684-24.555,313.34,0V301.369z"/>
	</g>
</g>
<g>
</g>
<g>
</g>
<g>
</g>
<g>
</g>
<g>
</g>
<g>
</g>
<g>
</g>
<g>
</g>
<g>
</g>
<g>
</g>
<g>
</g>
<g>
</g>
<g>
</g>
<g>
</g>
<g>
</g>
</svg>
