<?xml version="1.0" encoding="iso-8859-1"?>
<!-- Generator: Adobe Illustrator 19.0.0, SVG Export Plug-In . SVG Version: 6.00 Build 0)  -->
<svg version="1.1" id="Layer_1" xmlns="http://www.w3.org/2000/svg" xmlns:xlink="http://www.w3.org/1999/xlink" x="0px" y="0px"
	 viewBox="0 0 511.999 511.999" style="enable-background:new 0 0 511.999 511.999;" xml:space="preserve">
<g>
	<g>
		<path d="M511.568,197.782c-1.032-3.178-3.78-5.494-7.086-5.974l-166.259-24.159L263.871,16.993
			c-1.479-2.996-4.531-4.894-7.873-4.894c-3.342,0-6.393,1.897-7.873,4.894l-74.353,150.656L7.516,191.808
			c-3.307,0.48-6.054,2.796-7.086,5.974c-1.032,3.178-0.171,6.667,2.22,8.999L122.956,324.05L94.555,489.636
			c-0.564,3.294,0.789,6.623,3.493,8.586c1.53,1.112,3.341,1.677,5.161,1.677c1.396,0,2.8-0.334,4.084-1.008l148.706-78.18
			l148.706,78.18c2.958,1.554,6.543,1.296,9.245-0.668c2.704-1.964,4.057-5.292,3.493-8.586l-28.401-165.587l120.306-117.269
			C511.74,204.449,512.602,200.96,511.568,197.782z M373.481,314.7c-2.069,2.017-3.013,4.923-2.525,7.771l26.174,152.604
			l-137.047-72.05c-2.559-1.344-5.613-1.344-8.17,0l-137.046,72.049l26.173-152.604c0.488-2.848-0.455-5.754-2.525-7.771
			L27.643,206.624l153.223-22.265c2.859-0.416,5.332-2.211,6.61-4.803l68.523-138.843l68.523,138.843
			c1.278,2.59,3.75,4.387,6.61,4.803l153.223,22.265L373.481,314.7z"/>
	</g>
</g>
<g>
	<g>
		<path d="M256,185.753c-52.422,0-95.07,42.648-95.07,95.07s42.648,95.069,95.07,95.069s95.069-42.648,95.069-95.069
			S308.42,185.753,256,185.753z M256,358.335c-42.741,0-77.513-34.772-77.513-77.512c0-42.74,34.772-77.513,77.513-77.513
			c42.741,0,77.511,34.772,77.511,77.513C333.511,323.564,298.739,358.335,256,358.335z"/>
	</g>
</g>
<g>
	<g>
		<path d="M291.99,243.075h-71.982c-4.848,0-8.779,3.931-8.779,8.779c0,4.848,3.93,8.779,8.779,8.779h71.982
			c4.848,0,8.779-3.931,8.779-8.779C300.769,247.005,296.838,243.075,291.99,243.075z"/>
	</g>
</g>
<g>
	<g>
		<path d="M306.501,272.043H205.499c-4.848,0-8.779,3.931-8.779,8.779c0,4.848,3.931,8.779,8.779,8.779h101.002
			c4.848,0,8.779-3.931,8.779-8.779C315.279,275.974,311.349,272.043,306.501,272.043z"/>
	</g>
</g>
<g>
	<g>
		<path d="M291.99,301.012h-71.982c-4.848,0-8.779,3.931-8.779,8.779s3.93,8.779,8.779,8.779h71.982
			c4.848,0,8.779-3.931,8.779-8.779S296.838,301.012,291.99,301.012z"/>
	</g>
</g>
<g>
</g>
<g>
</g>
<g>
</g>
<g>
</g>
<g>
</g>
<g>
</g>
<g>
</g>
<g>
</g>
<g>
</g>
<g>
</g>
<g>
</g>
<g>
</g>
<g>
</g>
<g>
</g>
<g>
</g>
</svg>
